<svg xmlns="http://www.w3.org/2000/svg" width="1320" height="1300" viewBox="0 0 1320 1300" font-family="ui-sans-serif,Segoe UI,Helvetica,Arial">
<defs><marker id="ar" viewBox="0 0 10 10" refX="8" refY="5" markerWidth="7" markerHeight="7" orient="auto-start-reverse"><path d="M0 0 L10 5 L0 10 z" fill="#c0392b"/></marker><marker id="ab" viewBox="0 0 10 10" refX="8" refY="5" markerWidth="7" markerHeight="7" orient="auto-start-reverse"><path d="M0 0 L10 5 L0 10 z" fill="#2c6fb0"/></marker><marker id="ag" viewBox="0 0 10 10" refX="8" refY="5" markerWidth="7" markerHeight="7" orient="auto-start-reverse"><path d="M0 0 L10 5 L0 10 z" fill="#2e8b57"/></marker><marker id="ap" viewBox="0 0 10 10" refX="8" refY="5" markerWidth="7" markerHeight="7" orient="auto-start-reverse"><path d="M0 0 L10 5 L0 10 z" fill="#7a3fb0"/></marker><marker id="ao" viewBox="0 0 10 10" refX="8" refY="5" markerWidth="7" markerHeight="7" orient="auto-start-reverse"><path d="M0 0 L10 5 L0 10 z" fill="#a86a1e"/></marker></defs>
<rect width="1320" height="1300" fill="#f7f9fb"/>
<text x="660.0" y="32" font-size="20" font-weight="700" fill="#0d1b26" text-anchor="middle">comm_pe.csl — the prefill block&#x27;s communication toolbox</text>
<text x="660.0" y="54" font-size="12.5" font-weight="500" fill="#4a5b66" text-anchor="middle">One scarce color+queue pool, time-shared across every phase. Correctness = count-exactness + backpressure/parity ordering; every rebind lands on a drained queue.</text>
<text x="660.0" y="72" font-size="11.5" font-weight="500" fill="#4a5b66" text-anchor="middle">Block = P_BLOCK_SIZE x P_BLOCK_SIZE (8x8 in ref cfg).  Y (rows) = HIDDEN dim shard.   X (cols) = SEQUENCE (tokens).   kv-band = a run of Y-PEs for one KV head.</text>
<text x="40" y="108" font-size="14.5" font-weight="700" fill="#0d1b26" text-anchor="start">A.  Each collective / shuttle / matmul mapped to physical fabric motion</text>
<rect x="40" y="128" width="600" height="380" rx="8" fill="#ffffff" fill-opacity="1.0" stroke="#d7dfe6" stroke-width="1.4"/><rect x="40" y="128" width="600" height="44" rx="8" fill="#eef3f7" fill-opacity="1.0" stroke="#d7dfe6" stroke-width="1.4"/><text x="54" y="146" font-size="13.5" font-weight="700" fill="#c0392b" text-anchor="start">P-1  full-column Y all-reduce  (all_reduce_full)</text><text x="54" y="164" font-size="10.5" font-weight="600" fill="#5a6b76" text-anchor="start">RMSNorm  ·  reduce_1st c1/q5,c2/q6 + bcast c5/q1</text>
<rect x="130" y="208" width="30" height="30" rx="3" fill="#e9eef3" fill-opacity="1.0" stroke="#9db2c2" stroke-width="1.0"/>
<rect x="170" y="208" width="30" height="30" rx="3" fill="#e9eef3" fill-opacity="1.0" stroke="#9db2c2" stroke-width="1.0"/>
<rect x="210" y="208" width="30" height="30" rx="3" fill="#e9eef3" fill-opacity="1.0" stroke="#9db2c2" stroke-width="1.0"/>
<rect x="250" y="208" width="30" height="30" rx="3" fill="#e9eef3" fill-opacity="1.0" stroke="#9db2c2" stroke-width="1.0"/>
<rect x="290" y="208" width="30" height="30" rx="3" fill="#e9eef3" fill-opacity="1.0" stroke="#9db2c2" stroke-width="1.0"/>
<rect x="130" y="248" width="30" height="30" rx="3" fill="#e9eef3" fill-opacity="1.0" stroke="#9db2c2" stroke-width="1.0"/>
<rect x="170" y="248" width="30" height="30" rx="3" fill="#e9eef3" fill-opacity="1.0" stroke="#9db2c2" stroke-width="1.0"/>
<rect x="210" y="248" width="30" height="30" rx="3" fill="#e9eef3" fill-opacity="1.0" stroke="#9db2c2" stroke-width="1.0"/>
<rect x="250" y="248" width="30" height="30" rx="3" fill="#e9eef3" fill-opacity="1.0" stroke="#9db2c2" stroke-width="1.0"/>
<rect x="290" y="248" width="30" height="30" rx="3" fill="#e9eef3" fill-opacity="1.0" stroke="#9db2c2" stroke-width="1.0"/>
<rect x="130" y="288" width="30" height="30" rx="3" fill="#e9eef3" fill-opacity="1.0" stroke="#9db2c2" stroke-width="1.0"/>
<rect x="170" y="288" width="30" height="30" rx="3" fill="#e9eef3" fill-opacity="1.0" stroke="#9db2c2" stroke-width="1.0"/>
<rect x="210" y="288" width="30" height="30" rx="3" fill="#e9eef3" fill-opacity="1.0" stroke="#9db2c2" stroke-width="1.0"/>
<rect x="250" y="288" width="30" height="30" rx="3" fill="#e9eef3" fill-opacity="1.0" stroke="#9db2c2" stroke-width="1.0"/>
<rect x="290" y="288" width="30" height="30" rx="3" fill="#e9eef3" fill-opacity="1.0" stroke="#9db2c2" stroke-width="1.0"/>
<rect x="130" y="328" width="30" height="30" rx="3" fill="#e9eef3" fill-opacity="1.0" stroke="#9db2c2" stroke-width="1.0"/>
<rect x="170" y="328" width="30" height="30" rx="3" fill="#e9eef3" fill-opacity="1.0" stroke="#9db2c2" stroke-width="1.0"/>
<rect x="210" y="328" width="30" height="30" rx="3" fill="#e9eef3" fill-opacity="1.0" stroke="#9db2c2" stroke-width="1.0"/>
<rect x="250" y="328" width="30" height="30" rx="3" fill="#e9eef3" fill-opacity="1.0" stroke="#9db2c2" stroke-width="1.0"/>
<rect x="290" y="328" width="30" height="30" rx="3" fill="#e9eef3" fill-opacity="1.0" stroke="#9db2c2" stroke-width="1.0"/>
<rect x="130" y="368" width="30" height="30" rx="3" fill="#e9eef3" fill-opacity="1.0" stroke="#9db2c2" stroke-width="1.0"/>
<rect x="170" y="368" width="30" height="30" rx="3" fill="#e9eef3" fill-opacity="1.0" stroke="#9db2c2" stroke-width="1.0"/>
<rect x="210" y="368" width="30" height="30" rx="3" fill="#e9eef3" fill-opacity="1.0" stroke="#9db2c2" stroke-width="1.0"/>
<rect x="250" y="368" width="30" height="30" rx="3" fill="#e9eef3" fill-opacity="1.0" stroke="#9db2c2" stroke-width="1.0"/>
<rect x="290" y="368" width="30" height="30" rx="3" fill="#e9eef3" fill-opacity="1.0" stroke="#9db2c2" stroke-width="1.0"/>
<rect x="210" y="208" width="30" height="30" rx="3" fill="#e9eef3" fill-opacity="1.0" stroke="#245f96" stroke-width="1.2"/>
<rect x="210" y="248" width="30" height="30" rx="3" fill="#e9eef3" fill-opacity="1.0" stroke="#245f96" stroke-width="1.2"/>
<rect x="210" y="288" width="30" height="30" rx="3" fill="#cfe0ef" fill-opacity="1.0" stroke="#245f96" stroke-width="1.2"/>
<rect x="210" y="328" width="30" height="30" rx="3" fill="#e9eef3" fill-opacity="1.0" stroke="#245f96" stroke-width="1.2"/>
<rect x="210" y="368" width="30" height="30" rx="3" fill="#e9eef3" fill-opacity="1.0" stroke="#245f96" stroke-width="1.2"/>
<line x1="225.0" y1="238" x2="225.0" y2="248" stroke="#c0392b" stroke-width="2.2" marker-end="url(#ar)"/>
<line x1="225.0" y1="278" x2="225.0" y2="288" stroke="#c0392b" stroke-width="2.2" marker-end="url(#ar)"/>
<line x1="225.0" y1="328" x2="225.0" y2="318" stroke="#c0392b" stroke-width="2.2" marker-end="url(#ar)"/>
<line x1="225.0" y1="368" x2="225.0" y2="358" stroke="#c0392b" stroke-width="2.2" marker-end="url(#ar)"/>
<text x="225.0" y="200" font-size="10" font-weight="700" fill="#245f96" text-anchor="middle">root</text>
<line x1="241.0" y1="303.0" x2="241.0" y2="206" stroke="#2c6fb0" stroke-width="1.6" stroke-dasharray="4 3" marker-end="url(#ar)"/>
<line x1="241.0" y1="303.0" x2="241.0" y2="398" stroke="#2c6fb0" stroke-width="1.6" stroke-dasharray="4 3" marker-end="url(#ar)"/>
<text x="54" y="442" font-size="10.5" font-weight="500" fill="#34434d" text-anchor="start">Bidirectional f32 chain -&gt; root_2nd_phase, then P-2 router</text>
<text x="54" y="460" font-size="10.5" font-weight="500" fill="#34434d" text-anchor="start">multicast broadcast back (blue).  One-phase (not 2-phase);</text>
<text x="54" y="478" font-size="10.5" font-weight="500" fill="#34434d" text-anchor="start">that freed colors 3,4 for the shuttle.</text>
<line x1="96" y1="308.0" x2="96" y2="268.0" stroke="#7a8a95" stroke-width="1.6" marker-end="url(#ar)"/>
<text x="90" y="324.0" font-size="11" font-weight="700" fill="#7a8a95" text-anchor="end">Y</text>
<rect x="680" y="128" width="600" height="380" rx="8" fill="#ffffff" fill-opacity="1.0" stroke="#d7dfe6" stroke-width="1.4"/><rect x="680" y="128" width="600" height="44" rx="8" fill="#eef3f7" fill-opacity="1.0" stroke="#d7dfe6" stroke-width="1.4"/><text x="694" y="146" font-size="13.5" font-weight="700" fill="#7a3fb0" text-anchor="start">P-3  Cannon operand shift  (two_hop_comm)</text><text x="694" y="164" font-size="10.5" font-weight="600" fill="#5a6b76" text-anchor="start">MeshGEMM  ·  left x_inter c6-8/q2 · right y_inter c9-11/q3</text>
<rect x="770" y="206" width="30" height="30" rx="3" fill="#e9eef3" fill-opacity="1.0" stroke="#9db2c2" stroke-width="1.0"/>
<rect x="810" y="206" width="30" height="30" rx="3" fill="#e9eef3" fill-opacity="1.0" stroke="#9db2c2" stroke-width="1.0"/>
<rect x="850" y="206" width="30" height="30" rx="3" fill="#e9eef3" fill-opacity="1.0" stroke="#9db2c2" stroke-width="1.0"/>
<rect x="890" y="206" width="30" height="30" rx="3" fill="#e9eef3" fill-opacity="1.0" stroke="#9db2c2" stroke-width="1.0"/>
<rect x="930" y="206" width="30" height="30" rx="3" fill="#e9eef3" fill-opacity="1.0" stroke="#9db2c2" stroke-width="1.0"/>
<rect x="770" y="246" width="30" height="30" rx="3" fill="#e9eef3" fill-opacity="1.0" stroke="#9db2c2" stroke-width="1.0"/>
<rect x="810" y="246" width="30" height="30" rx="3" fill="#e9eef3" fill-opacity="1.0" stroke="#9db2c2" stroke-width="1.0"/>
<rect x="850" y="246" width="30" height="30" rx="3" fill="#e9eef3" fill-opacity="1.0" stroke="#9db2c2" stroke-width="1.0"/>
<rect x="890" y="246" width="30" height="30" rx="3" fill="#e9eef3" fill-opacity="1.0" stroke="#9db2c2" stroke-width="1.0"/>
<rect x="930" y="246" width="30" height="30" rx="3" fill="#e9eef3" fill-opacity="1.0" stroke="#9db2c2" stroke-width="1.0"/>
<rect x="770" y="286" width="30" height="30" rx="3" fill="#e9eef3" fill-opacity="1.0" stroke="#9db2c2" stroke-width="1.0"/>
<rect x="810" y="286" width="30" height="30" rx="3" fill="#e9eef3" fill-opacity="1.0" stroke="#9db2c2" stroke-width="1.0"/>
<rect x="850" y="286" width="30" height="30" rx="3" fill="#e9eef3" fill-opacity="1.0" stroke="#9db2c2" stroke-width="1.0"/>
<rect x="890" y="286" width="30" height="30" rx="3" fill="#e9eef3" fill-opacity="1.0" stroke="#9db2c2" stroke-width="1.0"/>
<rect x="930" y="286" width="30" height="30" rx="3" fill="#e9eef3" fill-opacity="1.0" stroke="#9db2c2" stroke-width="1.0"/>
<rect x="770" y="326" width="30" height="30" rx="3" fill="#e9eef3" fill-opacity="1.0" stroke="#9db2c2" stroke-width="1.0"/>
<rect x="810" y="326" width="30" height="30" rx="3" fill="#e9eef3" fill-opacity="1.0" stroke="#9db2c2" stroke-width="1.0"/>
<rect x="850" y="326" width="30" height="30" rx="3" fill="#e9eef3" fill-opacity="1.0" stroke="#9db2c2" stroke-width="1.0"/>
<rect x="890" y="326" width="30" height="30" rx="3" fill="#e9eef3" fill-opacity="1.0" stroke="#9db2c2" stroke-width="1.0"/>
<rect x="930" y="326" width="30" height="30" rx="3" fill="#e9eef3" fill-opacity="1.0" stroke="#9db2c2" stroke-width="1.0"/>
<rect x="770" y="366" width="30" height="30" rx="3" fill="#e9eef3" fill-opacity="1.0" stroke="#9db2c2" stroke-width="1.0"/>
<rect x="810" y="366" width="30" height="30" rx="3" fill="#e9eef3" fill-opacity="1.0" stroke="#9db2c2" stroke-width="1.0"/>
<rect x="850" y="366" width="30" height="30" rx="3" fill="#e9eef3" fill-opacity="1.0" stroke="#9db2c2" stroke-width="1.0"/>
<rect x="890" y="366" width="30" height="30" rx="3" fill="#e9eef3" fill-opacity="1.0" stroke="#9db2c2" stroke-width="1.0"/>
<rect x="930" y="366" width="30" height="30" rx="3" fill="#e9eef3" fill-opacity="1.0" stroke="#9db2c2" stroke-width="1.0"/>
<line x1="785.0" y1="238" x2="785.0" y2="261.0" stroke="#7a3fb0" stroke-width="1.9" marker-end="url(#ap)"/>
<line x1="825.0" y1="238" x2="825.0" y2="261.0" stroke="#7a3fb0" stroke-width="1.9" marker-end="url(#ap)"/>
<line x1="865.0" y1="238" x2="865.0" y2="261.0" stroke="#7a3fb0" stroke-width="1.9" marker-end="url(#ap)"/>
<line x1="905.0" y1="238" x2="905.0" y2="261.0" stroke="#7a3fb0" stroke-width="1.9" marker-end="url(#ap)"/>
<line x1="945.0" y1="238" x2="945.0" y2="261.0" stroke="#7a3fb0" stroke-width="1.9" marker-end="url(#ap)"/>
<line x1="802" y1="221.0" x2="825.0" y2="221.0" stroke="#2e8b57" stroke-width="1.9" marker-end="url(#ag)"/>
<line x1="802" y1="261.0" x2="825.0" y2="261.0" stroke="#2e8b57" stroke-width="1.9" marker-end="url(#ag)"/>
<line x1="802" y1="301.0" x2="825.0" y2="301.0" stroke="#2e8b57" stroke-width="1.9" marker-end="url(#ag)"/>
<line x1="802" y1="341.0" x2="825.0" y2="341.0" stroke="#2e8b57" stroke-width="1.9" marker-end="url(#ag)"/>
<line x1="802" y1="381.0" x2="825.0" y2="381.0" stroke="#2e8b57" stroke-width="1.9" marker-end="url(#ag)"/>
<text x="976" y="221.0" font-size="10" font-weight="700" fill="#2e8b57" text-anchor="start">right</text>
<text x="976" y="235.0" font-size="9" font-weight="600" fill="#2e8b57" text-anchor="start">(weights)</text>
<text x="785.0" y="418" font-size="10" font-weight="700" fill="#7a3fb0" text-anchor="middle">left (activations)</text>
<text x="694" y="436" font-size="10.5" font-weight="500" fill="#34434d" text-anchor="start">Both operands cyclically shift 1 ring-pos/step (no</text>
<text x="694" y="454" font-size="10.5" font-weight="500" fill="#34434d" text-anchor="start">broadcast). Left = X-channel hops along Y; right =</text>
<text x="694" y="472" font-size="10.5" font-weight="500" fill="#34434d" text-anchor="start">Y-channel hops along X.  left_matrix_shift skew reuses</text>
<text x="694" y="490" font-size="10.5" font-weight="500" fill="#34434d" text-anchor="start">the x channel (q2).  Ring embedded on line by trace_perm.</text>
<rect x="40" y="546" width="600" height="380" rx="8" fill="#ffffff" fill-opacity="1.0" stroke="#d7dfe6" stroke-width="1.4"/><rect x="40" y="546" width="600" height="44" rx="8" fill="#eef3f7" fill-opacity="1.0" stroke="#d7dfe6" stroke-width="1.4"/><text x="54" y="564" font-size="13.5" font-weight="700" fill="#a86a1e" text-anchor="start">P-5/P-6  serpentine shuttle  (run_shuttle)</text><text x="54" y="582" font-size="10.5" font-weight="600" fill="#5a6b76" text-anchor="start">cross-block  ·  N/S c3/q7,c4/q0  ·  E/W c12,c13 reuse q7,q0</text>
<rect x="90" y="626" width="26" height="26" rx="3" fill="#f3ece0" fill-opacity="1.0" stroke="#c9a875" stroke-width="1.0"/>
<rect x="124" y="626" width="26" height="26" rx="3" fill="#f3ece0" fill-opacity="1.0" stroke="#c9a875" stroke-width="1.0"/>
<rect x="158" y="626" width="26" height="26" rx="3" fill="#f3ece0" fill-opacity="1.0" stroke="#c9a875" stroke-width="1.0"/>
<rect x="192" y="626" width="26" height="26" rx="3" fill="#f3ece0" fill-opacity="1.0" stroke="#c9a875" stroke-width="1.0"/>
<rect x="226" y="626" width="26" height="26" rx="3" fill="#f3ece0" fill-opacity="1.0" stroke="#c9a875" stroke-width="1.0"/>
<rect x="90" y="660" width="26" height="26" rx="3" fill="#f3ece0" fill-opacity="1.0" stroke="#c9a875" stroke-width="1.0"/>
<rect x="124" y="660" width="26" height="26" rx="3" fill="#f3ece0" fill-opacity="1.0" stroke="#c9a875" stroke-width="1.0"/>
<rect x="158" y="660" width="26" height="26" rx="3" fill="#f3ece0" fill-opacity="1.0" stroke="#c9a875" stroke-width="1.0"/>
<rect x="192" y="660" width="26" height="26" rx="3" fill="#f3ece0" fill-opacity="1.0" stroke="#c9a875" stroke-width="1.0"/>
<rect x="226" y="660" width="26" height="26" rx="3" fill="#f3ece0" fill-opacity="1.0" stroke="#c9a875" stroke-width="1.0"/>
<rect x="90" y="694" width="26" height="26" rx="3" fill="#f3ece0" fill-opacity="1.0" stroke="#c9a875" stroke-width="1.0"/>
<rect x="124" y="694" width="26" height="26" rx="3" fill="#f3ece0" fill-opacity="1.0" stroke="#c9a875" stroke-width="1.0"/>
<rect x="158" y="694" width="26" height="26" rx="3" fill="#f3ece0" fill-opacity="1.0" stroke="#c9a875" stroke-width="1.0"/>
<rect x="192" y="694" width="26" height="26" rx="3" fill="#f3ece0" fill-opacity="1.0" stroke="#c9a875" stroke-width="1.0"/>
<rect x="226" y="694" width="26" height="26" rx="3" fill="#f3ece0" fill-opacity="1.0" stroke="#c9a875" stroke-width="1.0"/>
<rect x="90" y="728" width="26" height="26" rx="3" fill="#f3ece0" fill-opacity="1.0" stroke="#c9a875" stroke-width="1.0"/>
<rect x="124" y="728" width="26" height="26" rx="3" fill="#f3ece0" fill-opacity="1.0" stroke="#c9a875" stroke-width="1.0"/>
<rect x="158" y="728" width="26" height="26" rx="3" fill="#f3ece0" fill-opacity="1.0" stroke="#c9a875" stroke-width="1.0"/>
<rect x="192" y="728" width="26" height="26" rx="3" fill="#f3ece0" fill-opacity="1.0" stroke="#c9a875" stroke-width="1.0"/>
<rect x="226" y="728" width="26" height="26" rx="3" fill="#f3ece0" fill-opacity="1.0" stroke="#c9a875" stroke-width="1.0"/>
<rect x="90" y="762" width="26" height="26" rx="3" fill="#f3ece0" fill-opacity="1.0" stroke="#c9a875" stroke-width="1.0"/>
<rect x="124" y="762" width="26" height="26" rx="3" fill="#f3ece0" fill-opacity="1.0" stroke="#c9a875" stroke-width="1.0"/>
<rect x="158" y="762" width="26" height="26" rx="3" fill="#f3ece0" fill-opacity="1.0" stroke="#c9a875" stroke-width="1.0"/>
<rect x="192" y="762" width="26" height="26" rx="3" fill="#f3ece0" fill-opacity="1.0" stroke="#c9a875" stroke-width="1.0"/>
<rect x="226" y="762" width="26" height="26" rx="3" fill="#f3ece0" fill-opacity="1.0" stroke="#c9a875" stroke-width="1.0"/>
<rect x="326" y="626" width="26" height="26" rx="3" fill="#e6eef3" fill-opacity="1.0" stroke="#9db2c2" stroke-width="1.0"/>
<rect x="360" y="626" width="26" height="26" rx="3" fill="#e6eef3" fill-opacity="1.0" stroke="#9db2c2" stroke-width="1.0"/>
<rect x="394" y="626" width="26" height="26" rx="3" fill="#e6eef3" fill-opacity="1.0" stroke="#9db2c2" stroke-width="1.0"/>
<rect x="428" y="626" width="26" height="26" rx="3" fill="#e6eef3" fill-opacity="1.0" stroke="#9db2c2" stroke-width="1.0"/>
<rect x="462" y="626" width="26" height="26" rx="3" fill="#e6eef3" fill-opacity="1.0" stroke="#9db2c2" stroke-width="1.0"/>
<rect x="326" y="660" width="26" height="26" rx="3" fill="#e6eef3" fill-opacity="1.0" stroke="#9db2c2" stroke-width="1.0"/>
<rect x="360" y="660" width="26" height="26" rx="3" fill="#e6eef3" fill-opacity="1.0" stroke="#9db2c2" stroke-width="1.0"/>
<rect x="394" y="660" width="26" height="26" rx="3" fill="#e6eef3" fill-opacity="1.0" stroke="#9db2c2" stroke-width="1.0"/>
<rect x="428" y="660" width="26" height="26" rx="3" fill="#e6eef3" fill-opacity="1.0" stroke="#9db2c2" stroke-width="1.0"/>
<rect x="462" y="660" width="26" height="26" rx="3" fill="#e6eef3" fill-opacity="1.0" stroke="#9db2c2" stroke-width="1.0"/>
<rect x="326" y="694" width="26" height="26" rx="3" fill="#e6eef3" fill-opacity="1.0" stroke="#9db2c2" stroke-width="1.0"/>
<rect x="360" y="694" width="26" height="26" rx="3" fill="#e6eef3" fill-opacity="1.0" stroke="#9db2c2" stroke-width="1.0"/>
<rect x="394" y="694" width="26" height="26" rx="3" fill="#e6eef3" fill-opacity="1.0" stroke="#9db2c2" stroke-width="1.0"/>
<rect x="428" y="694" width="26" height="26" rx="3" fill="#e6eef3" fill-opacity="1.0" stroke="#9db2c2" stroke-width="1.0"/>
<rect x="462" y="694" width="26" height="26" rx="3" fill="#e6eef3" fill-opacity="1.0" stroke="#9db2c2" stroke-width="1.0"/>
<rect x="326" y="728" width="26" height="26" rx="3" fill="#e6eef3" fill-opacity="1.0" stroke="#9db2c2" stroke-width="1.0"/>
<rect x="360" y="728" width="26" height="26" rx="3" fill="#e6eef3" fill-opacity="1.0" stroke="#9db2c2" stroke-width="1.0"/>
<rect x="394" y="728" width="26" height="26" rx="3" fill="#e6eef3" fill-opacity="1.0" stroke="#9db2c2" stroke-width="1.0"/>
<rect x="428" y="728" width="26" height="26" rx="3" fill="#e6eef3" fill-opacity="1.0" stroke="#9db2c2" stroke-width="1.0"/>
<rect x="462" y="728" width="26" height="26" rx="3" fill="#e6eef3" fill-opacity="1.0" stroke="#9db2c2" stroke-width="1.0"/>
<rect x="326" y="762" width="26" height="26" rx="3" fill="#e6eef3" fill-opacity="1.0" stroke="#9db2c2" stroke-width="1.0"/>
<rect x="360" y="762" width="26" height="26" rx="3" fill="#e6eef3" fill-opacity="1.0" stroke="#9db2c2" stroke-width="1.0"/>
<rect x="394" y="762" width="26" height="26" rx="3" fill="#e6eef3" fill-opacity="1.0" stroke="#9db2c2" stroke-width="1.0"/>
<rect x="428" y="762" width="26" height="26" rx="3" fill="#e6eef3" fill-opacity="1.0" stroke="#9db2c2" stroke-width="1.0"/>
<rect x="462" y="762" width="26" height="26" rx="3" fill="#e6eef3" fill-opacity="1.0" stroke="#9db2c2" stroke-width="1.0"/>
<text x="171.0" y="618" font-size="10.5" font-weight="700" fill="#a86a1e" text-anchor="middle">block k (source)</text>
<text x="407.0" y="618" font-size="10.5" font-weight="700" fill="#245f96" text-anchor="middle">block k+1 (dest)</text>
<line x1="258" y1="639.0" x2="313.0" y2="639.0" stroke="#a86a1e" stroke-width="1.8" marker-end="url(#ao)"/>
<line x1="258" y1="673.0" x2="313.0" y2="673.0" stroke="#a86a1e" stroke-width="1.8" stroke-dasharray="5 3" marker-end="url(#ao)"/>
<line x1="258" y1="707.0" x2="313.0" y2="707.0" stroke="#a86a1e" stroke-width="1.8" marker-end="url(#ao)"/>
<line x1="258" y1="741.0" x2="313.0" y2="741.0" stroke="#a86a1e" stroke-width="1.8" stroke-dasharray="5 3" marker-end="url(#ao)"/>
<line x1="258" y1="775.0" x2="313.0" y2="775.0" stroke="#a86a1e" stroke-width="1.8" marker-end="url(#ao)"/>
<rect x="263.0" y="802" width="60" height="20" rx="5" fill="#f7efe2" fill-opacity="1.0" stroke="#c9a875" stroke-width="1.1"/>
<text x="293.0" y="816" font-size="10" font-weight="700" fill="#a86a1e" text-anchor="middle">P steps</text>
<text x="54" y="854" font-size="10.5" font-weight="500" fill="#34434d" text-anchor="start">P-step BLOCKING shift register moves each PE&#x27;s hidden</text>
<text x="54" y="872" font-size="10.5" font-weight="500" fill="#34434d" text-anchor="start">tile to same-coord PE one block over. Parity ordering</text>
<text x="54" y="890" font-size="10.5" font-weight="500" fill="#34434d" text-anchor="start">(even: send-&gt;recv; odd solid vs dashed: recv-&gt;send) =</text>
<text x="54" y="908" font-size="10.5" font-weight="500" fill="#34434d" text-anchor="start">deadlock-free.  Turn blocks @queue_flush-drain q7/q0 first.</text>
<rect x="680" y="546" width="600" height="380" rx="8" fill="#ffffff" fill-opacity="1.0" stroke="#d7dfe6" stroke-width="1.4"/><rect x="680" y="546" width="600" height="44" rx="8" fill="#eef3f7" fill-opacity="1.0" stroke="#d7dfe6" stroke-width="1.4"/><text x="694" y="564" font-size="13.5" font-weight="700" fill="#2c6fb0" text-anchor="start">P-7  kv-band reduce  (attn_score_reduce)</text><text x="694" y="582" font-size="10.5" font-weight="600" fill="#5a6b76" text-anchor="start">Q@KT / softmax  ·  S-chain c1,c2/q5,q6 + N-chain c3,c4/q7,q0</text>
<rect x="850" y="628" width="30" height="30" rx="3" fill="#e6dcf3" fill-opacity="1.0" stroke="#245f96" stroke-width="1.2"/>
<text x="840" y="647.0" font-size="9.5" font-weight="600" fill="#5a6b76" text-anchor="end">pe 0</text>
<rect x="850" y="668" width="30" height="30" rx="3" fill="#e6dcf3" fill-opacity="1.0" stroke="#245f96" stroke-width="1.2"/>
<text x="840" y="687.0" font-size="9.5" font-weight="600" fill="#5a6b76" text-anchor="end">pe 1</text>
<rect x="850" y="708" width="30" height="30" rx="3" fill="#cfe0ef" fill-opacity="1.0" stroke="#245f96" stroke-width="1.2"/>
<text x="840" y="727.0" font-size="9.5" font-weight="600" fill="#5a6b76" text-anchor="end">pe 2</text>
<rect x="850" y="748" width="30" height="30" rx="3" fill="#e6dcf3" fill-opacity="1.0" stroke="#245f96" stroke-width="1.2"/>
<text x="840" y="767.0" font-size="9.5" font-weight="600" fill="#5a6b76" text-anchor="end">pe 3</text>
<line x1="860.5" y1="658" x2="860.5" y2="668" stroke="#c0392b" stroke-width="2.0" marker-end="url(#ar)"/>
<line x1="860.5" y1="698" x2="860.5" y2="708" stroke="#c0392b" stroke-width="2.0" marker-end="url(#ar)"/>
<line x1="869.5" y1="748" x2="869.5" y2="738" stroke="#7a3fb0" stroke-width="2.0" marker-end="url(#ap)"/>
<text x="865.0" y="620" font-size="9.5" font-weight="700" fill="#245f96" text-anchor="middle">cycling root</text>
<text x="896" y="640.0" font-size="9.5" font-weight="700" fill="#c0392b" text-anchor="start">S-chain (c1,c2)</text>
<text x="896" y="766.0" font-size="9.5" font-weight="700" fill="#7a3fb0" text-anchor="start">N-chain (c3,c4)</text>
<text x="694" y="854" font-size="10.5" font-weight="500" fill="#34434d" text-anchor="start">Split the band chain onto TWO disjoint color pairs so</text>
<text x="694" y="872" font-size="10.5" font-weight="500" fill="#34434d" text-anchor="start">each color&#x27;s rx/tx depends only on band parity (painted</text>
<text x="694" y="890" font-size="10.5" font-weight="500" fill="#34434d" text-anchor="start">ONCE by enter_qkt_reduce). The per-step root then cycles</text>
<text x="694" y="908" font-size="10.5" font-weight="500" fill="#34434d" text-anchor="start">in pure logic with ZERO route repaint.  N-chain borrows q7,q0.</text>
<line x1="40" y1="960" x2="1280" y2="960" stroke="#dce4ea" stroke-width="1.4"/>
<text x="40" y="980" font-size="14.5" font-weight="700" fill="#0d1b26" text-anchor="start">B.  Color + queue reuse map — which functions time-share each queue (every rebind is drained-safe)</text>
<rect x="40" y="1004" width="1240" height="34" rx="6" fill="#eef3f7" fill-opacity="1.0" stroke="#c9d4dd" stroke-width="1.2"/>
<text x="50" y="1026" font-size="11.5" font-weight="700" fill="#0d1b26" text-anchor="start">queue</text>
<text x="140" y="1026" font-size="11.5" font-weight="700" fill="#0d1b26" text-anchor="start">color id(s)</text>
<text x="330" y="1026" font-size="11.5" font-weight="700" fill="#0d1b26" text-anchor="start">owner  (phase 1)</text>
<text x="650" y="1026" font-size="11.5" font-weight="700" fill="#0d1b26" text-anchor="start">time-shared with  (phase 2)</text>
<text x="950" y="1026" font-size="11.5" font-weight="700" fill="#0d1b26" text-anchor="start">rebind / drain</text>
<rect x="40" y="1038" width="1240" height="34" rx="0" fill="#ffffff" fill-opacity="1.0" stroke="#e3e9ee" stroke-width="1.0"/>
<text x="50" y="1059" font-size="10.5" font-weight="700" fill="#0d1b26" text-anchor="start">q7, q0</text>
<text x="140" y="1059" font-size="10.5" font-weight="600" fill="#0d1b26" text-anchor="start">3,4 / 12,13</text>
<text x="330" y="1059" font-size="10.5" font-weight="500" fill="#34434d" text-anchor="start">N/S shuttle + Q@KT north chain (north_south_aux c3,c4)</text>
<text x="650" y="1059" font-size="10.5" font-weight="500" fill="#34434d" text-anchor="start">E/W shuttle (shuttle_east_west c12,c13)</text>
<text x="950" y="1059" font-size="10.5" font-weight="500" fill="#34434d" text-anchor="start">rebind_shuttle_7_0  (empty, no flush)</text>
<rect x="40" y="1072" width="1240" height="34" rx="0" fill="#f5f8fa" fill-opacity="1.0" stroke="#e3e9ee" stroke-width="1.0"/>
<text x="50" y="1093" font-size="10.5" font-weight="700" fill="#0d1b26" text-anchor="start">q5, q6, q1</text>
<text x="140" y="1093" font-size="10.5" font-weight="600" fill="#0d1b26" text-anchor="start">1,2,5 / 18,19,20</text>
<text x="330" y="1093" font-size="10.5" font-weight="500" fill="#34434d" text-anchor="start">reduce_1st + broadcast (c1,c2,c5)</text>
<text x="650" y="1093" font-size="10.5" font-weight="500" fill="#34434d" text-anchor="start">Score x V band shift (band c18,c19,c20)</text>
<text x="950" y="1093" font-size="10.5" font-weight="500" fill="#34434d" text-anchor="start">rebind_band_q_to_band/reduce + @queue_flush</text>
<rect x="40" y="1106" width="1240" height="34" rx="0" fill="#ffffff" fill-opacity="1.0" stroke="#e3e9ee" stroke-width="1.0"/>
<text x="50" y="1127" font-size="10.5" font-weight="700" fill="#0d1b26" text-anchor="start">q2</text>
<text x="140" y="1127" font-size="10.5" font-weight="600" fill="#0d1b26" text-anchor="start">6,7,8</text>
<text x="330" y="1127" font-size="10.5" font-weight="500" fill="#34434d" text-anchor="start">two_hop_comm left matrix (x_inter)</text>
<text x="650" y="1127" font-size="10.5" font-weight="500" fill="#34434d" text-anchor="start">left_matrix_shift skew (same x channel)</text>
<text x="950" y="1127" font-size="10.5" font-weight="500" fill="#34434d" text-anchor="start">skew completes before steps</text>
<rect x="40" y="1140" width="1240" height="34" rx="0" fill="#f5f8fa" fill-opacity="1.0" stroke="#e3e9ee" stroke-width="1.0"/>
<text x="50" y="1161" font-size="10.5" font-weight="700" fill="#0d1b26" text-anchor="start">q3</text>
<text x="140" y="1161" font-size="10.5" font-weight="600" fill="#0d1b26" text-anchor="start">9,10,11</text>
<text x="330" y="1161" font-size="10.5" font-weight="500" fill="#34434d" text-anchor="start">two_hop_comm right matrix (y_inter)</text>
<text x="650" y="1161" font-size="10.5" font-weight="500" fill="#34434d" text-anchor="start">attn_right_hop  K|V tile hop</text>
<text x="950" y="1161" font-size="10.5" font-weight="500" fill="#34434d" text-anchor="start">(none — same channel)</text>
<rect x="40" y="1174" width="1240" height="34" rx="0" fill="#ffffff" fill-opacity="1.0" stroke="#e3e9ee" stroke-width="1.0"/>
<text x="50" y="1195" font-size="10.5" font-weight="700" fill="#0d1b26" text-anchor="start">q4</text>
<text x="140" y="1195" font-size="10.5" font-weight="600" fill="#0d1b26" text-anchor="start">—</text>
<text x="330" y="1195" font-size="10.5" font-weight="500" fill="#34434d" text-anchor="start">free</text>
<text x="650" y="1195" font-size="10.5" font-weight="500" fill="#34434d" text-anchor="start">—</text>
<text x="950" y="1195" font-size="10.5" font-weight="500" fill="#34434d" text-anchor="start">—</text>
<text x="40" y="1234" font-size="10.5" font-weight="500" fill="#5a6b76" text-anchor="start">reconfig()  is the ONE route-switch entry point: RECFG_FULL / RECFG_K paint reduce+bcast (G-3); RECFG_SH_OUT/IN paint the block&#x27;s shuttle hop; block-edge routes clamped by terminate_dir (G-9).</text>
<text x="40" y="1252" font-size="10.5" font-weight="500" fill="#5a6b76" text-anchor="start">Legend:  red = reduce chain   blue = broadcast / softmax   purple = Cannon-left / N-chain   green = Cannon-right   orange = inter-block shuttle.   All fabric DSD extents comptime; runtime variation goes in the count.</text>
</svg>