<svg id="my-svg" width="100%" xmlns="http://www.w3.org/2000/svg" xmlns:xlink="http://www.w3.org/1999/xlink" class="statediagram" style="max-width: 1597.8px; background-color: white;" viewBox="0 0 1597.7952880859375 1506" role="graphics-document document" aria-roledescription="stateDiagram"><style>#my-svg{font-family:"trebuchet ms",verdana,arial,sans-serif;font-size:16px;fill:#333;}@keyframes edge-animation-frame{from{stroke-dashoffset:0;}}@keyframes dash{to{stroke-dashoffset:0;}}#my-svg .edge-animation-slow{stroke-dasharray:9,5!important;stroke-dashoffset:900;animation:dash 50s linear infinite;stroke-linecap:round;}#my-svg .edge-animation-fast{stroke-dasharray:9,5!important;stroke-dashoffset:900;animation:dash 20s linear infinite;stroke-linecap:round;}#my-svg .error-icon{fill:#552222;}#my-svg .error-text{fill:#552222;stroke:#552222;}#my-svg .edge-thickness-normal{stroke-width:1px;}#my-svg .edge-thickness-thick{stroke-width:3.5px;}#my-svg .edge-pattern-solid{stroke-dasharray:0;}#my-svg .edge-thickness-invisible{stroke-width:0;fill:none;}#my-svg .edge-pattern-dashed{stroke-dasharray:3;}#my-svg .edge-pattern-dotted{stroke-dasharray:2;}#my-svg .marker{fill:#333333;stroke:#333333;}#my-svg .marker.cross{stroke:#333333;}#my-svg svg{font-family:"trebuchet ms",verdana,arial,sans-serif;font-size:16px;}#my-svg p{margin:0;}#my-svg defs [id$="-barbEnd"]{fill:#333333;stroke:#333333;}#my-svg g.stateGroup text{fill:#9370DB;stroke:none;font-size:10px;}#my-svg g.stateGroup text{fill:#333;stroke:none;font-size:10px;}#my-svg g.stateGroup .state-title{font-weight:bolder;fill:#131300;}#my-svg g.stateGroup rect{fill:#ECECFF;stroke:#9370DB;}#my-svg g.stateGroup line{stroke:#333333;stroke-width:1;}#my-svg .transition{stroke:#333333;stroke-width:1;fill:none;}#my-svg .stateGroup .composit{fill:white;border-bottom:1px;}#my-svg .stateGroup .alt-composit{fill:#e0e0e0;border-bottom:1px;}#my-svg .state-note{stroke:#aaaa33;fill:#fff5ad;}#my-svg .state-note text{fill:black;stroke:none;font-size:10px;}#my-svg .stateLabel .box{stroke:none;stroke-width:0;fill:#ECECFF;opacity:0.5;}#my-svg .edgeLabel .label rect{fill:#ECECFF;opacity:0.5;}#my-svg .edgeLabel{background-color:rgba(232,232,232, 0.8);text-align:center;}#my-svg .edgeLabel p{background-color:rgba(232,232,232, 0.8);}#my-svg .edgeLabel rect{opacity:0.5;background-color:rgba(232,232,232, 0.8);fill:rgba(232,232,232, 0.8);}#my-svg .edgeLabel .label text{fill:#333;}#my-svg .label div .edgeLabel{color:#333;}#my-svg .stateLabel text{fill:#131300;font-size:10px;font-weight:bold;}#my-svg .node circle.state-start{fill:#333333;stroke:#333333;}#my-svg .node .fork-join{fill:#333333;stroke:#333333;}#my-svg .node circle.state-end{fill:#9370DB;stroke:white;stroke-width:1.5;}#my-svg .end-state-inner{fill:white;stroke-width:1.5;}#my-svg .node rect{fill:#ECECFF;stroke:#9370DB;stroke-width:1px;}#my-svg .node polygon{fill:#ECECFF;stroke:#9370DB;stroke-width:1px;}#my-svg [id$="-barbEnd"]{fill:#333333;}#my-svg .statediagram-cluster rect{fill:#ECECFF;stroke:#9370DB;stroke-width:1px;}#my-svg .cluster-label,#my-svg .nodeLabel{color:#131300;}#my-svg .statediagram-cluster rect.outer{rx:5px;ry:5px;}#my-svg .statediagram-state .divider{stroke:#9370DB;}#my-svg .statediagram-state .title-state{rx:5px;ry:5px;}#my-svg .statediagram-cluster.statediagram-cluster .inner{fill:white;}#my-svg .statediagram-cluster.statediagram-cluster-alt .inner{fill:#f0f0f0;}#my-svg .statediagram-cluster .inner{rx:0;ry:0;}#my-svg .statediagram-state rect.basic{rx:5px;ry:5px;}#my-svg .statediagram-state rect.divider{stroke-dasharray:10,10;fill:#f0f0f0;}#my-svg .note-edge{stroke-dasharray:5;}#my-svg .statediagram-note rect{fill:#fff5ad;stroke:#aaaa33;stroke-width:1px;rx:0;ry:0;}#my-svg .statediagram-note rect{fill:#fff5ad;stroke:#aaaa33;stroke-width:1px;rx:0;ry:0;}#my-svg .statediagram-note text{fill:black;}#my-svg .statediagram-note .nodeLabel{color:black;}#my-svg .statediagram .edgeLabel{color:red;}#my-svg [id$="-dependencyStart"],#my-svg [id$="-dependencyEnd"]{fill:#333333;stroke:#333333;stroke-width:1;}#my-svg .statediagramTitleText{text-anchor:middle;font-size:18px;fill:#333;}#my-svg [data-look="neo"].statediagram-cluster rect{fill:#ECECFF;stroke:#9370DB;stroke-width:1;}#my-svg [data-look="neo"].statediagram-cluster rect.outer{rx:5px;ry:5px;filter:drop-shadow(1px 2px 2px rgba(185, 185, 185, 1));}#my-svg .node .neo-node{stroke:#9370DB;}#my-svg [data-look="neo"].node rect,#my-svg [data-look="neo"].cluster rect,#my-svg [data-look="neo"].node polygon{stroke:#9370DB;filter:drop-shadow(1px 2px 2px rgba(185, 185, 185, 1));}#my-svg [data-look="neo"].swimlane.cluster rect{filter:none;}#my-svg [data-look="neo"].node path{stroke:#9370DB;stroke-width:1px;}#my-svg [data-look="neo"].node .outer-path{filter:drop-shadow(1px 2px 2px rgba(185, 185, 185, 1));}#my-svg [data-look="neo"].node .neo-line path{stroke:#9370DB;filter:none;}#my-svg [data-look="neo"].node circle{stroke:#9370DB;filter:drop-shadow(1px 2px 2px rgba(185, 185, 185, 1));}#my-svg [data-look="neo"].node circle .state-start{fill:#000000;}#my-svg [data-look="neo"].icon-shape .icon{fill:#9370DB;filter:drop-shadow(1px 2px 2px rgba(185, 185, 185, 1));}#my-svg [data-look="neo"].icon-shape .icon-neo path{stroke:#9370DB;filter:drop-shadow(1px 2px 2px rgba(185, 185, 185, 1));}#my-svg :root{--mermaid-font-family:"trebuchet ms",verdana,arial,sans-serif;}</style><g><defs><marker id="my-svg_stateDiagram-barbEnd" refX="19" refY="7" markerWidth="20" markerHeight="14" markerUnits="userSpaceOnUse" orient="auto"><path d="M 19,7 L9,13 L14,7 L9,1 Z"/></marker></defs><g class="root"><g class="clusters"><g class="note-cluster" id="my-svg-state-emit_scatter----parent-12"><rect x="8" y="1000" width="300" height="224" fill="none"/></g><g class="note-cluster" id="my-svg-state-sync_src----parent-13"><rect x="1077.5" y="1322" width="300" height="176" fill="none"/></g><g class="note-cluster" id="my-svg-state-sync_wait----parent-14"><rect x="348" y="678" width="300" height="224" fill="none"/></g></g><g class="edgePaths"><path d="M791,22L791,30.167C791,38.333,791,54.667,791,71C791,87.333,791,103.667,791,111.833L791,120" id="my-svg-edge0" class="edge-thickness-normal edge-pattern-solid transition" style="fill:none;;;fill:none" data-edge="true" data-et="edge" data-id="edge0" data-points="W3sieCI6NzkxLCJ5IjoyMn0seyJ4Ijo3OTEsInkiOjcxfSx7IngiOjc5MSwieSI6MTIwfV0=" data-look="classic" marker-end="url(#my-svg_stateDiagram-barbEnd)"/><path d="M800.877,184L803.397,192.167C805.918,200.333,810.959,216.667,813.479,233C816,249.333,816,265.667,816,273.833L816,282" id="my-svg-edge1" class="edge-thickness-normal edge-pattern-solid transition" style="fill:none;;;fill:none" data-edge="true" data-et="edge" data-id="edge1" data-points="W3sieCI6ODAwLjg3NjU0MzIwOTg3NjYsInkiOjE4NH0seyJ4Ijo4MTYsInkiOjIzM30seyJ4Ijo4MTYsInkiOjI4Mn1d" data-look="classic" marker-end="url(#my-svg_stateDiagram-barbEnd)"/><path d="M816,370L816,380.167C816,390.333,816,410.667,816,431C816,451.333,816,471.667,816,481.833L816,492" id="my-svg-edge2" class="edge-thickness-normal edge-pattern-solid transition" style="fill:none;;;fill:none" data-edge="true" data-et="edge" data-id="edge2" data-points="W3sieCI6ODE2LCJ5IjozNzB9LHsieCI6ODE2LCJ5Ijo0MzF9LHsieCI6ODE2LCJ5Ijo0OTJ9XQ==" data-look="classic" marker-end="url(#my-svg_stateDiagram-barbEnd)"/><path d="M816,580L816,588.167C816,596.333,816,612.667,816,629C816,645.333,816,661.667,816,681.167C816,700.667,816,723.333,816,734.667L816,746" id="my-svg-edge3" class="edge-thickness-normal edge-pattern-solid transition" style="fill:none;;;fill:none" data-edge="true" data-et="edge" data-id="edge3" data-points="W3sieCI6ODE2LCJ5Ijo1ODB9LHsieCI6ODE2LCJ5Ijo2Mjl9LHsieCI6ODE2LCJ5Ijo2Nzh9LHsieCI6ODE2LCJ5Ijo3NDZ9XQ==" data-look="classic" marker-end="url(#my-svg_stateDiagram-barbEnd)"/><path d="M924,810.748L1003.167,825.957C1082.333,841.165,1240.667,871.583,1319.833,894.958C1399,918.333,1399,934.667,1399,951C1399,967.333,1399,983.667,1381.646,1003.167C1364.292,1022.667,1329.583,1045.333,1312.229,1056.667L1294.875,1068" id="my-svg-edge5" class="edge-thickness-normal edge-pattern-solid transition" style="fill:none;;;fill:none" data-edge="true" data-et="edge" data-id="edge5" data-points="W3sieCI6OTI0LCJ5Ijo4MTAuNzQ3ODU1OTE3NjY3M30seyJ4IjoxMzk5LCJ5Ijo5MDJ9LHsieCI6MTM5OSwieSI6OTUxfSx7IngiOjEzOTksInkiOjEwMDB9LHsieCI6MTI5NC44NzUsInkiOjEwNjh9XQ==" data-look="classic" marker-end="url(#my-svg_stateDiagram-barbEnd)"/><path d="M924,823.322L966.5,836.435C1009,849.548,1094,875.774,1136.5,897.054C1179,918.333,1179,934.667,1179,951C1179,967.333,1179,983.667,1183.908,1003.167C1188.815,1022.667,1198.631,1045.333,1203.539,1056.667L1208.446,1068" id="my-svg-edge6" class="edge-thickness-normal edge-pattern-solid transition" style="fill:none;;;fill:none" data-edge="true" data-et="edge" data-id="edge6" data-points="W3sieCI6OTI0LCJ5Ijo4MjMuMzIyMzE0MDQ5NTg2OH0seyJ4IjoxMTc5LCJ5Ijo5MDJ9LHsieCI6MTE3OSwieSI6OTUxfSx7IngiOjExNzksInkiOjEwMDB9LHsieCI6MTIwOC40NDY0Mjg1NzE0Mjg3LCJ5IjoxMDY4fV0=" data-look="classic" marker-end="url(#my-svg_stateDiagram-barbEnd)"/><path d="M849.393,834L857.994,845.333C866.595,856.667,883.798,879.333,892.399,898.833C901,918.333,901,934.667,901,951C901,967.333,901,983.667,881.268,1003.167C861.536,1022.667,822.071,1045.333,802.339,1056.667L782.607,1068" id="my-svg-edge7" class="edge-thickness-normal edge-pattern-solid transition" style="fill:none;;;fill:none" data-edge="true" data-et="edge" data-id="edge7" data-points="W3sieCI6ODQ5LjM5Mjg1NzE0Mjg1NzEsInkiOjgzNH0seyJ4Ijo5MDEsInkiOjkwMn0seyJ4Ijo5MDEsInkiOjk1MX0seyJ4Ijo5MDEsInkiOjEwMDB9LHsieCI6NzgyLjYwNzE0Mjg1NzE0MjksInkiOjEwNjh9XQ==" data-look="classic" marker-end="url(#my-svg_stateDiagram-barbEnd)"/><path d="M762.964,834L749.304,845.333C735.643,856.667,708.321,879.333,694.661,898.833C681,918.333,681,934.667,681,951C681,967.333,681,983.667,683.53,1003.167C686.06,1022.667,691.119,1045.333,693.649,1056.667L696.179,1068" id="my-svg-edge8" class="edge-thickness-normal edge-pattern-solid transition" style="fill:none;;;fill:none" data-edge="true" data-et="edge" data-id="edge8" data-points="W3sieCI6NzYyLjk2NDI4NTcxNDI4NTcsInkiOjgzNH0seyJ4Ijo2ODEsInkiOjkwMn0seyJ4Ijo2ODEsInkiOjk1MX0seyJ4Ijo2ODEsInkiOjEwMDB9LHsieCI6Njk2LjE3ODU3MTQyODU3MTQsInkiOjEwNjh9XQ==" data-look="classic" marker-end="url(#my-svg_stateDiagram-barbEnd)"/><path d="M1161.304,1068L1144.253,1056.667C1127.202,1045.333,1093.101,1022.667,1076.051,1003.167C1059,983.667,1059,967.333,1059,951C1059,934.667,1059,918.333,1059,891.5C1059,864.667,1059,827.333,1059,790C1059,752.667,1059,715.333,1059,688.5C1059,661.667,1059,645.333,1059,621.667C1059,598,1059,567,1059,534C1059,501,1059,466,1059,431C1059,396,1059,361,1059,328C1059,295,1059,264,1031.979,240.333C1004.959,216.667,950.918,200.333,923.897,192.167L896.877,184" id="my-svg-edge9" class="edge-thickness-normal edge-pattern-solid transition" style="fill:none;;;fill:none" data-edge="true" data-et="edge" data-id="edge9" data-points="W3sieCI6MTE2MS4zMDM1NzE0Mjg1NzEzLCJ5IjoxMDY4fSx7IngiOjEwNTksInkiOjEwMDB9LHsieCI6MTA1OSwieSI6OTUxfSx7IngiOjEwNTksInkiOjkwMn0seyJ4IjoxMDU5LCJ5Ijo3OTB9LHsieCI6MTA1OSwieSI6Njc4fSx7IngiOjEwNTksInkiOjYyOX0seyJ4IjoxMDU5LCJ5Ijo1MzZ9LHsieCI6MTA1OSwieSI6NDMxfSx7IngiOjEwNTksInkiOjMyNn0seyJ4IjoxMDU5LCJ5IjoyMzN9LHsieCI6ODk2Ljg3NjU0MzIwOTg3NjYsInkiOjE4NH1d" data-look="classic" marker-end="url(#my-svg_stateDiagram-barbEnd)"/><path d="M706,1156L706,1167.333C706,1178.667,706,1201.333,706,1220.833C706,1240.333,706,1256.667,706,1273C706,1289.333,706,1305.667,685.417,1321.658C664.833,1337.649,623.667,1353.297,603.083,1361.122L582.5,1368.946" id="my-svg-edge10" class="edge-thickness-normal edge-pattern-solid transition" style="fill:none;;;fill:none" data-edge="true" data-et="edge" data-id="edge10" data-points="W3sieCI6NzA2LCJ5IjoxMTU2fSx7IngiOjcwNiwieSI6MTIyNH0seyJ4Ijo3MDYsInkiOjEyNzN9LHsieCI6NzA2LCJ5IjoxMzIyfSx7IngiOjU4Mi41LCJ5IjoxMzY4Ljk0NjAwNDMxOTY1NDN9XQ==" data-look="classic" marker-end="url(#my-svg_stateDiagram-barbEnd)"/><path d="M401.25,1366L389.042,1358.667C376.833,1351.333,352.417,1336.667,340.208,1321.167C328,1305.667,328,1289.333,328,1273C328,1256.667,328,1240.333,328,1213.5C328,1186.667,328,1149.333,328,1112C328,1074.667,328,1037.333,328,1010.5C328,983.667,328,967.333,328,951C328,934.667,328,918.333,328,891.5C328,864.667,328,827.333,328,790C328,752.667,328,715.333,328,688.5C328,661.667,328,645.333,328,621.667C328,598,328,567,328,534C328,501,328,466,328,431C328,396,328,361,328,328C328,295,328,264,387.167,238.149C446.333,212.298,564.667,191.596,623.833,181.245L683,170.894" id="my-svg-edge11" class="edge-thickness-normal edge-pattern-solid transition" style="fill:none;;;fill:none" data-edge="true" data-et="edge" data-id="edge11" data-points="W3sieCI6NDAxLjI1LCJ5IjoxMzY2fSx7IngiOjMyOCwieSI6MTMyMn0seyJ4IjozMjgsInkiOjEyNzN9LHsieCI6MzI4LCJ5IjoxMjI0fSx7IngiOjMyOCwieSI6MTExMn0seyJ4IjozMjgsInkiOjEwMDB9LHsieCI6MzI4LCJ5Ijo5NTF9LHsieCI6MzI4LCJ5Ijo5MDJ9LHsieCI6MzI4LCJ5Ijo3OTB9LHsieCI6MzI4LCJ5Ijo2Nzh9LHsieCI6MzI4LCJ5Ijo2Mjl9LHsieCI6MzI4LCJ5Ijo1MzZ9LHsieCI6MzI4LCJ5Ijo0MzF9LHsieCI6MzI4LCJ5IjozMjZ9LHsieCI6MzI4LCJ5IjoyMzN9LHsieCI6NjgzLCJ5IjoxNzAuODk0MTY4NDY2NTIyNjd9XQ==" data-look="classic" marker-end="url(#my-svg_stateDiagram-barbEnd)"/><path d="M708,808.383L616.333,823.986C524.667,839.589,341.333,870.794,249.667,894.564C158,918.333,158,934.667,158,951C158,967.333,158,983.667,158,996C158,1008.333,158,1016.667,158,1020.833L158,1025" id="my-svg-emit_scatter-emit_scatter----note-12" class="edge-thickness-normal edge-pattern-solid transition note-edge" style="fill:none;;;fill:none" data-edge="true" data-et="edge" data-id="emit_scatter-emit_scatter----note-12" data-points="W3sieCI6NzA4LCJ5Ijo4MDguMzgyOTc4NzIzNDA0Mn0seyJ4IjoxNTgsInkiOjkwMn0seyJ4IjoxNTgsInkiOjk1MX0seyJ4IjoxNTgsInkiOjEwMDB9LHsieCI6MTU4LCJ5IjoxMDI1fV0=" data-look="classic"/><path d="M1227.5,1156L1227.5,1167.333C1227.5,1178.667,1227.5,1201.333,1227.5,1220.833C1227.5,1240.333,1227.5,1256.667,1227.5,1273C1227.5,1289.333,1227.5,1305.667,1227.5,1318C1227.5,1330.333,1227.5,1338.667,1227.5,1342.833L1227.5,1347" id="my-svg-sync_src-sync_src----note-13" class="edge-thickness-normal edge-pattern-solid transition note-edge" style="fill:none;;;fill:none" data-edge="true" data-et="edge" data-id="sync_src-sync_src----note-13" data-points="W3sieCI6MTIyNy41LCJ5IjoxMTU2fSx7IngiOjEyMjcuNSwieSI6MTIyNH0seyJ4IjoxMjI3LjUsInkiOjEyNzN9LHsieCI6MTIyNy41LCJ5IjoxMzIyfSx7IngiOjEyMjcuNSwieSI6MTM0N31d" data-look="classic"/><path d="M498,877L498,881.167C498,885.333,498,893.667,498,906C498,918.333,498,934.667,498,951C498,967.333,498,983.667,519.048,1003.167C540.095,1022.667,582.19,1045.333,603.238,1056.667L624.286,1068" id="my-svg-sync_wait----note-14-sync_wait" class="edge-thickness-normal edge-pattern-solid transition note-edge" style="fill:none;;;fill:none" data-edge="true" data-et="edge" data-id="sync_wait----note-14-sync_wait" data-points="W3sieCI6NDk4LCJ5Ijo4Nzd9LHsieCI6NDk4LCJ5Ijo5MDJ9LHsieCI6NDk4LCJ5Ijo5NTF9LHsieCI6NDk4LCJ5IjoxMDAwfSx7IngiOjYyNC4yODU3MTQyODU3MTQzLCJ5IjoxMDY4fV0=" data-look="classic"/><path d="M924,753.415L930.6,751.179C937.2,748.943,950.4,744.472,957,758.902C963.6,773.333,963.6,806.667,957,821.098C950.4,835.528,937.2,831.057,930.6,828.821L924,826.585" id="my-svg-edge4" class="edge-thickness-normal edge-pattern-solid transition" style="fill:none;;;fill:none" data-edge="true" data-et="edge" data-id="edge4" data-points="W3sieCI6OTI0LCJ5Ijo3NTMuNDE0NjM0MTQ2MzQxNH0seyJ4Ijo5NjMuNiwieSI6NzQwfSx7IngiOjk2My42LCJ5Ijo4NDB9LHsieCI6OTI0LCJ5Ijo4MjYuNTg1MzY1ODUzNjU4Nn1d" data-look="classic" marker-end="url(#my-svg_stateDiagram-barbEnd)"/></g><g class="edgeLabels"><g class="edgeLabel" transform="translate(791, 71)"><g class="label" data-id="edge0" transform="translate(-100, -24)"><foreignObject width="200" height="48"><div xmlns="http://www.w3.org/1999/xhtml" class="labelBkg" style="display: table; white-space: break-spaces; line-height: 1.5; max-width: 200px; text-align: center; width: 200px;"><span class="edgeLabel"><p>async comptime activate(peel) L143</p></span></div></foreignObject></g></g><g class="edgeLabel" transform="translate(816, 233)"><g class="label" data-id="edge1" transform="translate(-100, -24)"><foreignObject width="200" height="48"><div xmlns="http://www.w3.org/1999/xhtml" class="labelBkg" style="display: table; white-space: break-spaces; line-height: 1.5; max-width: 200px; text-align: center; width: 200px;"><span class="edgeLabel"><p>async peel meta0 then activate(scatter_meta) L81</p></span></div></foreignObject></g></g><g class="edgeLabel" transform="translate(816, 431)"><g class="label" data-id="edge2" transform="translate(-100, -36)"><foreignObject width="200" height="72"><div xmlns="http://www.w3.org/1999/xhtml" class="labelBkg" style="display: table; white-space: break-spaces; line-height: 1.5; max-width: 200px; text-align: center; width: 200px;"><span class="edgeLabel"><p>async re-emit meta0 then activate(scatter_metablk) L87</p></span></div></foreignObject></g></g><g class="edgeLabel" transform="translate(816, 629)"><g class="label" data-id="edge3" transform="translate(-100, -24)"><foreignObject width="200" height="48"><div xmlns="http://www.w3.org/1999/xhtml" class="labelBkg" style="display: table; white-space: break-spaces; line-height: 1.5; max-width: 200px; text-align: center; width: 200px;"><span class="edgeLabel"><p>async scatter metablk then activate(emit) L91</p></span></div></foreignObject></g></g><g class="edgeLabel" transform="translate(1018.2953125, 790)"><g class="label" data-id="edge4" transform="translate(-50.6953125, -12)"><foreignObject width="101.390625" height="24"><div xmlns="http://www.w3.org/1999/xhtml" class="labelBkg" style="display: table-cell; white-space: nowrap; line-height: 1.5; max-width: 200px; text-align: center;"><span class="edgeLabel"><p>async seg_idx</p></span></div></foreignObject></g></g><g class="edgeLabel" transform="translate(1399, 951)"><g class="label" data-id="edge5" transform="translate(-100, -24)"><foreignObject width="200" height="48"><div xmlns="http://www.w3.org/1999/xhtml" class="labelBkg" style="display: table; white-space: break-spaces; line-height: 1.5; max-width: 200px; text-align: center; width: 200px;"><span class="edgeLabel"><p>call n_segs_rt==0 and is_col_tail L101</p></span></div></foreignObject></g></g><g class="edgeLabel" transform="translate(1179, 951)"><g class="label" data-id="edge6" transform="translate(-100, -24)"><foreignObject width="200" height="48"><div xmlns="http://www.w3.org/1999/xhtml" class="labelBkg" style="display: table; white-space: break-spaces; line-height: 1.5; max-width: 200px; text-align: center; width: 200px;"><span class="edgeLabel"><p>async last KV seg and is_col_tail L115</p></span></div></foreignObject></g></g><g class="edgeLabel" transform="translate(901, 951)"><g class="label" data-id="edge7" transform="translate(-100, -24)"><foreignObject width="200" height="48"><div xmlns="http://www.w3.org/1999/xhtml" class="labelBkg" style="display: table; white-space: break-spaces; line-height: 1.5; max-width: 200px; text-align: center; width: 200px;"><span class="edgeLabel"><p>call n_segs_rt==0 non-tail L103</p></span></div></foreignObject></g></g><g class="edgeLabel" transform="translate(681, 951)"><g class="label" data-id="edge8" transform="translate(-100, -24)"><foreignObject width="200" height="48"><div xmlns="http://www.w3.org/1999/xhtml" class="labelBkg" style="display: table; white-space: break-spaces; line-height: 1.5; max-width: 200px; text-align: center; width: 200px;"><span class="edgeLabel"><p>async last KV seg non-tail L117</p></span></div></foreignObject></g></g><g class="edgeLabel" transform="translate(1059, 536)"><g class="label" data-id="edge9" transform="translate(-100, -24)"><foreignObject width="200" height="48"><div xmlns="http://www.w3.org/1999/xhtml" class="labelBkg" style="display: table; white-space: break-spaces; line-height: 1.5; max-width: 200px; text-align: center; width: 200px;"><span class="edgeLabel"><p>call re-arm activate(peel) L123</p></span></div></foreignObject></g></g><g class="edgeLabel" transform="translate(706, 1273)"><g class="label" data-id="edge10" transform="translate(-100, -24)"><foreignObject width="200" height="48"><div xmlns="http://www.w3.org/1999/xhtml" class="labelBkg" style="display: table; white-space: break-spaces; line-height: 1.5; max-width: 200px; text-align: center; width: 200px;"><span class="edgeLabel"><p>async park on round_sync activate(sync_do) L127</p></span></div></foreignObject></g></g><g class="edgeLabel" transform="translate(328, 629)"><g class="label" data-id="edge11" transform="translate(-100, -24)"><foreignObject width="200" height="48"><div xmlns="http://www.w3.org/1999/xhtml" class="labelBkg" style="display: table; white-space: break-spaces; line-height: 1.5; max-width: 200px; text-align: center; width: 200px;"><span class="edgeLabel"><p>call reset switch then activate(peel) L132</p></span></div></foreignObject></g></g><g class="edgeLabel"><g class="label" data-id="emit_scatter-emit_scatter----note-12" transform="translate(0, 0)"><foreignObject width="0" height="0"><div xmlns="http://www.w3.org/1999/xhtml" class="labelBkg" style="display: table-cell; white-space: nowrap; line-height: 1.5; max-width: 200px; text-align: center;"><span class="edgeLabel"></span></div></foreignObject></g></g><g class="edgeLabel"><g class="label" data-id="sync_src-sync_src----note-13" transform="translate(0, 0)"><foreignObject width="0" height="0"><div xmlns="http://www.w3.org/1999/xhtml" class="labelBkg" style="display: table-cell; white-space: nowrap; line-height: 1.5; max-width: 200px; text-align: center;"><span class="edgeLabel"></span></div></foreignObject></g></g><g class="edgeLabel"><g class="label" data-id="sync_wait----note-14-sync_wait" transform="translate(0, 0)"><foreignObject width="0" height="0"><div xmlns="http://www.w3.org/1999/xhtml" class="labelBkg" style="display: table-cell; white-space: nowrap; line-height: 1.5; max-width: 200px; text-align: center;"><span class="edgeLabel"></span></div></foreignObject></g></g></g><g class="nodes"><g class="node  statediagram-state" id="my-svg-state-peel_meta0-11" data-look="classic" transform="translate(791, 152)"><rect class="basic label-container" style="" rx="5" ry="5" x="-108" y="-32" width="216" height="64"/><g class="label" style="" transform="translate(-100, -24)"><rect/><foreignObject width="200" height="48"><div xmlns="http://www.w3.org/1999/xhtml" style="display: table; white-space: break-spaces; line-height: 1.5; max-width: 200px; text-align: center; width: 200px;"><span class="nodeLabel markdown-node-label"><p>peel_meta0 — peel meta[0] at pos0 (task 12)</p></span></div></foreignObject></g></g><g class="node  statediagram-state" id="my-svg-state-scatter_meta-2" data-look="classic" transform="translate(816, 326)"><rect class="basic label-container" style="" rx="5" ry="5" x="-108" y="-44" width="216" height="88"/><g class="label" style="" transform="translate(-100, -36)"><rect/><foreignObject width="200" height="72"><div xmlns="http://www.w3.org/1999/xhtml" style="display: table; white-space: break-spaces; line-height: 1.5; max-width: 200px; text-align: center; width: 200px;"><span class="nodeLabel markdown-node-label"><p>scatter_meta — latch n_segs_rt, re-emit meta[0] WEST (task 13)</p></span></div></foreignObject></g></g><g class="node  statediagram-state" id="my-svg-state-scatter_metablk-3" data-look="classic" transform="translate(816, 536)"><rect class="basic label-container" style="" rx="5" ry="5" x="-108" y="-44" width="216" height="88"/><g class="label" style="" transform="translate(-100, -36)"><rect/><foreignObject width="200" height="72"><div xmlns="http://www.w3.org/1999/xhtml" style="display: table; white-space: break-spaces; line-height: 1.5; max-width: 200px; text-align: center; width: 200px;"><span class="nodeLabel markdown-node-label"><p>scatter_metablk — scatter Pw-1 metas WEST (task 14)</p></span></div></foreignObject></g></g><g class="node  statediagram-state" id="my-svg-state-emit_scatter-12" data-look="classic" transform="translate(816, 790)"><rect class="basic label-container" style="" rx="5" ry="5" x="-108" y="-44" width="216" height="88"/><g class="label" style="" transform="translate(-100, -36)"><rect/><foreignObject width="200" height="72"><div xmlns="http://www.w3.org/1999/xhtml" style="display: table; white-space: break-spaces; line-height: 1.5; max-width: 200px; text-align: center; width: 200px;"><span class="nodeLabel markdown-node-label"><p>emit_scatter — take KV segments, scatter WEST (task 8)</p></span></div></foreignObject></g></g><g class="node  statediagram-state" id="my-svg-state-sync_src-13" data-look="classic" transform="translate(1227.5, 1112)"><rect class="basic label-container" style="" rx="5" ry="5" x="-108" y="-44" width="216" height="88"/><g class="label" style="" transform="translate(-100, -36)"><rect/><foreignObject width="200" height="72"><div xmlns="http://www.w3.org/1999/xhtml" style="display: table; white-space: break-spaces; line-height: 1.5; max-width: 200px; text-align: center; width: 200px;"><span class="nodeLabel markdown-node-label"><p>sync_src — TAIL source round_sync NORTH + re-arm (task 9)</p></span></div></foreignObject></g></g><g class="node  statediagram-state" id="my-svg-state-sync_wait-14" data-look="classic" transform="translate(706, 1112)"><rect class="basic label-container" style="" rx="5" ry="5" x="-108" y="-44" width="216" height="88"/><g class="label" style="" transform="translate(-100, -36)"><rect/><foreignObject width="200" height="72"><div xmlns="http://www.w3.org/1999/xhtml" style="display: table; white-space: break-spaces; line-height: 1.5; max-width: 200px; text-align: center; width: 200px;"><span class="nodeLabel markdown-node-label"><p>sync_wait — NON-TAIL park on round_sync (task 10)</p></span></div></foreignObject></g></g><g class="node  statediagram-state" id="my-svg-state-sync_do-11" data-look="classic" transform="translate(474.5, 1410)"><rect class="basic label-container" style="" rx="5" ry="5" x="-108" y="-44" width="216" height="88"/><g class="label" style="" transform="translate(-100, -36)"><rect/><foreignObject width="200" height="72"><div xmlns="http://www.w3.org/1999/xhtml" style="display: table; white-space: break-spaces; line-height: 1.5; max-width: 200px; text-align: center; width: 200px;"><span class="nodeLabel markdown-node-label"><p>sync_do — NON-TAIL reset switch + re-arm (task 11)</p></span></div></foreignObject></g></g><g class="node default" id="my-svg-state-root_start-0" data-look="classic" transform="translate(791, 15)"><circle class="state-start" r="7" width="14" height="14"/></g><g class="node statediagram-note" id="my-svg-state-emit_scatter----note-12" data-look="classic" transform="translate(158, 1112)"><g class="basic label-container outer-path"><path d="M-115 -87 L115 -87 L115 87 L-115 87" stroke="none" stroke-width="0" fill="#fff5ad" style=""/><path d="M-115 -87 C-48.3389164124178 -87, 18.322167175164395 -87, 115 -87 M-115 -87 C-41.46708634985673 -87, 32.06582730028654 -87, 115 -87 M115 -87 C115 -35.060242284452286, 115 16.879515431095427, 115 87 M115 -87 C115 -45.3728680656098, 115 -3.7457361312196014, 115 87 M115 87 C51.86016049630218 87, -11.279679007395643 87, -115 87 M115 87 C35.20218403552745 87, -44.595631928945096 87, -115 87 M-115 87 C-115 27.19692661732755, -115 -32.6061467653449, -115 -87 M-115 87 C-115 46.90988557238047, -115 6.819771144760935, -115 -87" stroke="#aaaa33" stroke-width="1.3" fill="none" stroke-dasharray="0 0" style=""/></g><g class="label noteLabel" style="" transform="translate(-100, -72)"><rect/><foreignObject width="200" height="144"><div xmlns="http://www.w3.org/1999/xhtml" style="display: table; white-space: break-spaces; line-height: 1.5; max-width: 200px; text-align: center; width: 200px;"><span class="nodeLabel markdown-node-label"><p>self-loop = one @mov32 fabin to fabout per KV segment<br />(n_segs_rt = D_kv * plen; row never lands in PE mem)</p></span></div></foreignObject></g></g><g class="node statediagram-note" id="my-svg-state-sync_src----note-13" data-look="classic" transform="translate(1227.5, 1410)"><g class="basic label-container outer-path"><path d="M-115 -63 L115 -63 L115 63 L-115 63" stroke="none" stroke-width="0" fill="#fff5ad" style=""/><path d="M-115 -63 C-41.640068881918964 -63, 31.719862236162072 -63, 115 -63 M-115 -63 C-35.77244032810161 -63, 43.45511934379678 -63, 115 -63 M115 -63 C115 -20.788983961899014, 115 21.422032076201972, 115 63 M115 -63 C115 -14.027028510999635, 115 34.94594297800073, 115 63 M115 63 C46.618492890591725 63, -21.76301421881655 63, -115 63 M115 63 C52.69940638868542 63, -9.601187222629164 63, -115 63 M-115 63 C-115 32.450634747118016, -115 1.9012694942360326, -115 -63 M-115 63 C-115 23.929449141272976, -115 -15.141101717454049, -115 -63" stroke="#aaaa33" stroke-width="1.3" fill="none" stroke-dasharray="0 0" style=""/></g><g class="label noteLabel" style="" transform="translate(-100, -48)"><rect/><foreignObject width="200" height="96"><div xmlns="http://www.w3.org/1999/xhtml" style="display: table; white-space: break-spaces; line-height: 1.5; max-width: 200px; text-align: center; width: 200px;"><span class="nodeLabel markdown-node-label"><p>side-effect L122 fire-and-forget mov32 sources round_sync NORTH (no callback, no edge)</p></span></div></foreignObject></g></g><g class="node statediagram-note" id="my-svg-state-sync_wait----note-14" data-look="classic" transform="translate(498, 790)"><g class="basic label-container outer-path"><path d="M-115 -87 L115 -87 L115 87 L-115 87" stroke="none" stroke-width="0" fill="#fff5ad" style=""/><path d="M-115 -87 C-50.95921487561357 -87, 13.081570248772863 -87, 115 -87 M-115 -87 C-33.00801586063196 -87, 48.983968278736086 -87, 115 -87 M115 -87 C115 -35.27949314944539, 115 16.441013701109213, 115 87 M115 -87 C115 -43.660647008891274, 115 -0.32129401778254874, 115 87 M115 87 C39.10457242081486 87, -36.79085515837028 87, -115 87 M115 87 C54.01022976734086 87, -6.97954046531828 87, -115 87 M-115 87 C-115 23.3694607891728, -115 -40.2610784216544, -115 -87 M-115 87 C-115 38.62355549279, -115 -9.752889014420006, -115 -87" stroke="#aaaa33" stroke-width="1.3" fill="none" stroke-dasharray="0 0" style=""/></g><g class="label noteLabel" style="" transform="translate(-100, -72)"><rect/><foreignObject width="200" height="144"><div xmlns="http://www.w3.org/1999/xhtml" style="display: table; white-space: break-spaces; line-height: 1.5; max-width: 200px; text-align: center; width: 200px;"><span class="nodeLabel markdown-node-label"><p>COLUMN-FENCE gate: park releases only when the TAIL sentinel<br />threads up (RAMP copy); router auto-forwards the NORTH copy</p></span></div></foreignObject></g></g><g class="label edgeLabel" id="emit_scatter---emit_scatter---1" transform="translate(1589.6953125, 1112)"><rect width="0.1" height="0.1"/><g class="label" style="" transform="translate(0, 0)"><rect/><foreignObject width="0" height="0"><div xmlns="http://www.w3.org/1999/xhtml" style="display: table-cell; white-space: nowrap; line-height: 1.5; max-width: 10px; text-align: center;"><span class="nodeLabel"></span></div></foreignObject></g></g><g class="label edgeLabel" id="emit_scatter---emit_scatter---2" transform="translate(1589.6953125, 1410)"><rect width="0.1" height="0.1"/><g class="label" style="" transform="translate(0, 0)"><rect/><foreignObject width="0" height="0"><div xmlns="http://www.w3.org/1999/xhtml" style="display: table-cell; white-space: nowrap; line-height: 1.5; max-width: 10px; text-align: center;"><span class="nodeLabel"></span></div></foreignObject></g></g></g></g></g><defs><filter id="my-svg-drop-shadow" height="130%" width="130%"><feDropShadow dx="4" dy="4" stdDeviation="0" flood-opacity="0.06" flood-color="#000000"/></filter></defs><defs><filter id="my-svg-drop-shadow-small" height="150%" width="150%"><feDropShadow dx="2" dy="2" stdDeviation="0" flood-opacity="0.06" flood-color="#000000"/></filter></defs></svg>