<svg xmlns="http://www.w3.org/2000/svg" width="1180" height="1240" viewBox="0 0 1180 1240" font-family="ui-sans-serif,Segoe UI,Helvetica,Arial">
<defs><marker id="ar" viewBox="0 0 10 10" refX="8" refY="5" markerWidth="7" markerHeight="7" orient="auto-start-reverse"><path d="M0 0 L10 5 L0 10 z" fill="#c0392b"/></marker><marker id="ab" viewBox="0 0 10 10" refX="8" refY="5" markerWidth="7" markerHeight="7" orient="auto-start-reverse"><path d="M0 0 L10 5 L0 10 z" fill="#2c6fb0"/></marker><marker id="ag" viewBox="0 0 10 10" refX="8" refY="5" markerWidth="7" markerHeight="7" orient="auto-start-reverse"><path d="M0 0 L10 5 L0 10 z" fill="#2e8b57"/></marker><marker id="ap" viewBox="0 0 10 10" refX="8" refY="5" markerWidth="7" markerHeight="7" orient="auto-start-reverse"><path d="M0 0 L10 5 L0 10 z" fill="#7a3fb0"/></marker><marker id="ao" viewBox="0 0 10 10" refX="8" refY="5" markerWidth="7" markerHeight="7" orient="auto-start-reverse"><path d="M0 0 L10 5 L0 10 z" fill="#a86a1e"/></marker></defs>
<rect width="1180" height="1240" fill="#f7f9fb"/>
<text x="590.0" y="32" font-size="20" font-weight="700" fill="#0d1b26" text-anchor="middle">comm_pe.csl — the prefill block&#x27;s communication toolbox</text>
<text x="590.0" y="54" font-size="12.5" font-weight="500" fill="#4a5b66" text-anchor="middle">One scarce color+queue pool, time-shared across every phase. Correctness = count-exactness + backpressure/parity ordering; every rebind lands on a drained queue.</text>
<text x="590.0" y="72" font-size="11.5" font-weight="500" fill="#4a5b66" text-anchor="middle">Block = P_BLOCK_SIZE x P_BLOCK_SIZE (8x8 in ref cfg).  Y (rows) = HIDDEN dim shard.   X (cols) = SEQUENCE (tokens).   kv-band = a run of Y-PEs for one KV head.</text>
<text x="40" y="104" font-size="14.5" font-weight="700" fill="#0d1b26" text-anchor="start">A.  Each collective / shuttle / matmul mapped to physical fabric motion</text>
<rect x="40" y="124" width="520" height="310" rx="8" fill="#ffffff" fill-opacity="1.0" stroke="#d7dfe6" stroke-width="1.4"/><rect x="40" y="124" width="520" height="26" rx="8" fill="#eef3f7" fill-opacity="1.0" stroke="#d7dfe6" stroke-width="1.4"/><text x="54" y="142" font-size="13.5" font-weight="700" fill="#c0392b" text-anchor="start">P-1  full-column Y all-reduce  (all_reduce_full)</text><text x="546" y="142" font-size="10.5" font-weight="600" fill="#5a6b76" text-anchor="end">RMSNorm  ·  reduce_1st c1/q5,c2/q6 + bcast c5/q1</text>
<rect x="110" y="194" width="30" height="30" rx="3" fill="#e9eef3" fill-opacity="1.0" stroke="#9db2c2" stroke-width="1.0"/>
<rect x="150" y="194" width="30" height="30" rx="3" fill="#e9eef3" fill-opacity="1.0" stroke="#9db2c2" stroke-width="1.0"/>
<rect x="190" y="194" width="30" height="30" rx="3" fill="#e9eef3" fill-opacity="1.0" stroke="#9db2c2" stroke-width="1.0"/>
<rect x="230" y="194" width="30" height="30" rx="3" fill="#e9eef3" fill-opacity="1.0" stroke="#9db2c2" stroke-width="1.0"/>
<rect x="270" y="194" width="30" height="30" rx="3" fill="#e9eef3" fill-opacity="1.0" stroke="#9db2c2" stroke-width="1.0"/>
<rect x="110" y="234" width="30" height="30" rx="3" fill="#e9eef3" fill-opacity="1.0" stroke="#9db2c2" stroke-width="1.0"/>
<rect x="150" y="234" width="30" height="30" rx="3" fill="#e9eef3" fill-opacity="1.0" stroke="#9db2c2" stroke-width="1.0"/>
<rect x="190" y="234" width="30" height="30" rx="3" fill="#e9eef3" fill-opacity="1.0" stroke="#9db2c2" stroke-width="1.0"/>
<rect x="230" y="234" width="30" height="30" rx="3" fill="#e9eef3" fill-opacity="1.0" stroke="#9db2c2" stroke-width="1.0"/>
<rect x="270" y="234" width="30" height="30" rx="3" fill="#e9eef3" fill-opacity="1.0" stroke="#9db2c2" stroke-width="1.0"/>
<rect x="110" y="274" width="30" height="30" rx="3" fill="#e9eef3" fill-opacity="1.0" stroke="#9db2c2" stroke-width="1.0"/>
<rect x="150" y="274" width="30" height="30" rx="3" fill="#e9eef3" fill-opacity="1.0" stroke="#9db2c2" stroke-width="1.0"/>
<rect x="190" y="274" width="30" height="30" rx="3" fill="#e9eef3" fill-opacity="1.0" stroke="#9db2c2" stroke-width="1.0"/>
<rect x="230" y="274" width="30" height="30" rx="3" fill="#e9eef3" fill-opacity="1.0" stroke="#9db2c2" stroke-width="1.0"/>
<rect x="270" y="274" width="30" height="30" rx="3" fill="#e9eef3" fill-opacity="1.0" stroke="#9db2c2" stroke-width="1.0"/>
<rect x="110" y="314" width="30" height="30" rx="3" fill="#e9eef3" fill-opacity="1.0" stroke="#9db2c2" stroke-width="1.0"/>
<rect x="150" y="314" width="30" height="30" rx="3" fill="#e9eef3" fill-opacity="1.0" stroke="#9db2c2" stroke-width="1.0"/>
<rect x="190" y="314" width="30" height="30" rx="3" fill="#e9eef3" fill-opacity="1.0" stroke="#9db2c2" stroke-width="1.0"/>
<rect x="230" y="314" width="30" height="30" rx="3" fill="#e9eef3" fill-opacity="1.0" stroke="#9db2c2" stroke-width="1.0"/>
<rect x="270" y="314" width="30" height="30" rx="3" fill="#e9eef3" fill-opacity="1.0" stroke="#9db2c2" stroke-width="1.0"/>
<rect x="110" y="354" width="30" height="30" rx="3" fill="#e9eef3" fill-opacity="1.0" stroke="#9db2c2" stroke-width="1.0"/>
<rect x="150" y="354" width="30" height="30" rx="3" fill="#e9eef3" fill-opacity="1.0" stroke="#9db2c2" stroke-width="1.0"/>
<rect x="190" y="354" width="30" height="30" rx="3" fill="#e9eef3" fill-opacity="1.0" stroke="#9db2c2" stroke-width="1.0"/>
<rect x="230" y="354" width="30" height="30" rx="3" fill="#e9eef3" fill-opacity="1.0" stroke="#9db2c2" stroke-width="1.0"/>
<rect x="270" y="354" width="30" height="30" rx="3" fill="#e9eef3" fill-opacity="1.0" stroke="#9db2c2" stroke-width="1.0"/>
<rect x="190" y="194" width="30" height="30" rx="3" fill="#e9eef3" fill-opacity="1.0" stroke="#245f96" stroke-width="1.2"/>
<rect x="190" y="234" width="30" height="30" rx="3" fill="#e9eef3" fill-opacity="1.0" stroke="#245f96" stroke-width="1.2"/>
<rect x="190" y="274" width="30" height="30" rx="3" fill="#cfe0ef" fill-opacity="1.0" stroke="#245f96" stroke-width="1.2"/>
<rect x="190" y="314" width="30" height="30" rx="3" fill="#e9eef3" fill-opacity="1.0" stroke="#245f96" stroke-width="1.2"/>
<rect x="190" y="354" width="30" height="30" rx="3" fill="#e9eef3" fill-opacity="1.0" stroke="#245f96" stroke-width="1.2"/>
<line x1="205.0" y1="224" x2="205.0" y2="234" stroke="#c0392b" stroke-width="2.2" marker-end="url(#ar)"/>
<line x1="205.0" y1="264" x2="205.0" y2="274" stroke="#c0392b" stroke-width="2.2" marker-end="url(#ar)"/>
<line x1="205.0" y1="314" x2="205.0" y2="304" stroke="#c0392b" stroke-width="2.2" marker-end="url(#ar)"/>
<line x1="205.0" y1="354" x2="205.0" y2="344" stroke="#c0392b" stroke-width="2.2" marker-end="url(#ar)"/>
<text x="205.0" y="186" font-size="10" font-weight="700" fill="#245f96" text-anchor="middle">root</text>
<line x1="221.0" y1="289.0" x2="221.0" y2="192" stroke="#2c6fb0" stroke-width="1.6" stroke-dasharray="4 3" marker-end="url(#ar)"/>
<line x1="221.0" y1="289.0" x2="221.0" y2="390" stroke="#2c6fb0" stroke-width="1.6" stroke-dasharray="4 3" marker-end="url(#ar)"/>
<text x="54" y="376" font-size="10.5" font-weight="500" fill="#34434d" text-anchor="start">Bidirectional f32 chain -&gt; root_2nd_phase, then P-2 router</text>
<text x="54" y="392" font-size="10.5" font-weight="500" fill="#34434d" text-anchor="start">multicast broadcast back (blue).  One-phase (not 2-phase);</text>
<text x="54" y="408" font-size="10.5" font-weight="500" fill="#34434d" text-anchor="start">that freed colors 3,4 for the shuttle.</text>
<line x1="76" y1="294.0" x2="76" y2="254.0" stroke="#7a8a95" stroke-width="1.6" marker-end="url(#ar)"/>
<text x="70" y="310.0" font-size="11" font-weight="700" fill="#7a8a95" text-anchor="end">Y</text>
<rect x="620" y="124" width="520" height="310" rx="8" fill="#ffffff" fill-opacity="1.0" stroke="#d7dfe6" stroke-width="1.4"/><rect x="620" y="124" width="520" height="26" rx="8" fill="#eef3f7" fill-opacity="1.0" stroke="#d7dfe6" stroke-width="1.4"/><text x="634" y="142" font-size="13.5" font-weight="700" fill="#7a3fb0" text-anchor="start">P-3  Cannon operand shift  (two_hop_comm)</text><text x="1126" y="142" font-size="10.5" font-weight="600" fill="#5a6b76" text-anchor="end">MeshGEMM  ·  left x_inter c6-8/q2 · right y_inter c9-11/q3</text>
<rect x="710" y="186" width="30" height="30" rx="3" fill="#e9eef3" fill-opacity="1.0" stroke="#9db2c2" stroke-width="1.0"/>
<rect x="750" y="186" width="30" height="30" rx="3" fill="#e9eef3" fill-opacity="1.0" stroke="#9db2c2" stroke-width="1.0"/>
<rect x="790" y="186" width="30" height="30" rx="3" fill="#e9eef3" fill-opacity="1.0" stroke="#9db2c2" stroke-width="1.0"/>
<rect x="830" y="186" width="30" height="30" rx="3" fill="#e9eef3" fill-opacity="1.0" stroke="#9db2c2" stroke-width="1.0"/>
<rect x="870" y="186" width="30" height="30" rx="3" fill="#e9eef3" fill-opacity="1.0" stroke="#9db2c2" stroke-width="1.0"/>
<rect x="710" y="226" width="30" height="30" rx="3" fill="#e9eef3" fill-opacity="1.0" stroke="#9db2c2" stroke-width="1.0"/>
<rect x="750" y="226" width="30" height="30" rx="3" fill="#e9eef3" fill-opacity="1.0" stroke="#9db2c2" stroke-width="1.0"/>
<rect x="790" y="226" width="30" height="30" rx="3" fill="#e9eef3" fill-opacity="1.0" stroke="#9db2c2" stroke-width="1.0"/>
<rect x="830" y="226" width="30" height="30" rx="3" fill="#e9eef3" fill-opacity="1.0" stroke="#9db2c2" stroke-width="1.0"/>
<rect x="870" y="226" width="30" height="30" rx="3" fill="#e9eef3" fill-opacity="1.0" stroke="#9db2c2" stroke-width="1.0"/>
<rect x="710" y="266" width="30" height="30" rx="3" fill="#e9eef3" fill-opacity="1.0" stroke="#9db2c2" stroke-width="1.0"/>
<rect x="750" y="266" width="30" height="30" rx="3" fill="#e9eef3" fill-opacity="1.0" stroke="#9db2c2" stroke-width="1.0"/>
<rect x="790" y="266" width="30" height="30" rx="3" fill="#e9eef3" fill-opacity="1.0" stroke="#9db2c2" stroke-width="1.0"/>
<rect x="830" y="266" width="30" height="30" rx="3" fill="#e9eef3" fill-opacity="1.0" stroke="#9db2c2" stroke-width="1.0"/>
<rect x="870" y="266" width="30" height="30" rx="3" fill="#e9eef3" fill-opacity="1.0" stroke="#9db2c2" stroke-width="1.0"/>
<rect x="710" y="306" width="30" height="30" rx="3" fill="#e9eef3" fill-opacity="1.0" stroke="#9db2c2" stroke-width="1.0"/>
<rect x="750" y="306" width="30" height="30" rx="3" fill="#e9eef3" fill-opacity="1.0" stroke="#9db2c2" stroke-width="1.0"/>
<rect x="790" y="306" width="30" height="30" rx="3" fill="#e9eef3" fill-opacity="1.0" stroke="#9db2c2" stroke-width="1.0"/>
<rect x="830" y="306" width="30" height="30" rx="3" fill="#e9eef3" fill-opacity="1.0" stroke="#9db2c2" stroke-width="1.0"/>
<rect x="870" y="306" width="30" height="30" rx="3" fill="#e9eef3" fill-opacity="1.0" stroke="#9db2c2" stroke-width="1.0"/>
<rect x="710" y="346" width="30" height="30" rx="3" fill="#e9eef3" fill-opacity="1.0" stroke="#9db2c2" stroke-width="1.0"/>
<rect x="750" y="346" width="30" height="30" rx="3" fill="#e9eef3" fill-opacity="1.0" stroke="#9db2c2" stroke-width="1.0"/>
<rect x="790" y="346" width="30" height="30" rx="3" fill="#e9eef3" fill-opacity="1.0" stroke="#9db2c2" stroke-width="1.0"/>
<rect x="830" y="346" width="30" height="30" rx="3" fill="#e9eef3" fill-opacity="1.0" stroke="#9db2c2" stroke-width="1.0"/>
<rect x="870" y="346" width="30" height="30" rx="3" fill="#e9eef3" fill-opacity="1.0" stroke="#9db2c2" stroke-width="1.0"/>
<line x1="725.0" y1="218" x2="725.0" y2="241.0" stroke="#7a3fb0" stroke-width="1.9" marker-end="url(#ap)"/>
<line x1="765.0" y1="218" x2="765.0" y2="241.0" stroke="#7a3fb0" stroke-width="1.9" marker-end="url(#ap)"/>
<line x1="805.0" y1="218" x2="805.0" y2="241.0" stroke="#7a3fb0" stroke-width="1.9" marker-end="url(#ap)"/>
<line x1="845.0" y1="218" x2="845.0" y2="241.0" stroke="#7a3fb0" stroke-width="1.9" marker-end="url(#ap)"/>
<line x1="885.0" y1="218" x2="885.0" y2="241.0" stroke="#7a3fb0" stroke-width="1.9" marker-end="url(#ap)"/>
<line x1="742" y1="201.0" x2="765.0" y2="201.0" stroke="#2e8b57" stroke-width="1.9" marker-end="url(#ag)"/>
<line x1="742" y1="241.0" x2="765.0" y2="241.0" stroke="#2e8b57" stroke-width="1.9" marker-end="url(#ag)"/>
<line x1="742" y1="281.0" x2="765.0" y2="281.0" stroke="#2e8b57" stroke-width="1.9" marker-end="url(#ag)"/>
<line x1="742" y1="321.0" x2="765.0" y2="321.0" stroke="#2e8b57" stroke-width="1.9" marker-end="url(#ag)"/>
<line x1="742" y1="361.0" x2="765.0" y2="361.0" stroke="#2e8b57" stroke-width="1.9" marker-end="url(#ag)"/>
<text x="916" y="201.0" font-size="10" font-weight="700" fill="#2e8b57" text-anchor="start">right</text>
<text x="916" y="215.0" font-size="9" font-weight="600" fill="#2e8b57" text-anchor="start">(weights)</text>
<text x="725.0" y="400" font-size="10" font-weight="700" fill="#7a3fb0" text-anchor="middle">left (activations)</text>
<text x="634" y="360" font-size="10.5" font-weight="500" fill="#34434d" text-anchor="start">Both operands cyclically shift 1 ring-pos/step (no</text>
<text x="634" y="376" font-size="10.5" font-weight="500" fill="#34434d" text-anchor="start">broadcast). Left = X-channel hops along Y; right =</text>
<text x="634" y="392" font-size="10.5" font-weight="500" fill="#34434d" text-anchor="start">Y-channel hops along X.  left_matrix_shift skew reuses</text>
<text x="634" y="408" font-size="10.5" font-weight="500" fill="#34434d" text-anchor="start">the x channel (q2).  Ring embedded on line by trace_perm.</text>
<rect x="40" y="470" width="520" height="310" rx="8" fill="#ffffff" fill-opacity="1.0" stroke="#d7dfe6" stroke-width="1.4"/><rect x="40" y="470" width="520" height="26" rx="8" fill="#eef3f7" fill-opacity="1.0" stroke="#d7dfe6" stroke-width="1.4"/><text x="54" y="488" font-size="13.5" font-weight="700" fill="#a86a1e" text-anchor="start">P-5/P-6  serpentine shuttle  (run_shuttle)</text><text x="546" y="488" font-size="10.5" font-weight="600" fill="#5a6b76" text-anchor="end">cross-block  ·  N/S c3/q7,c4/q0  ·  E/W c12,c13 reuse q7,q0</text>
<rect x="80" y="532" width="26" height="26" rx="3" fill="#f3ece0" fill-opacity="1.0" stroke="#c9a875" stroke-width="1.0"/>
<rect x="114" y="532" width="26" height="26" rx="3" fill="#f3ece0" fill-opacity="1.0" stroke="#c9a875" stroke-width="1.0"/>
<rect x="148" y="532" width="26" height="26" rx="3" fill="#f3ece0" fill-opacity="1.0" stroke="#c9a875" stroke-width="1.0"/>
<rect x="182" y="532" width="26" height="26" rx="3" fill="#f3ece0" fill-opacity="1.0" stroke="#c9a875" stroke-width="1.0"/>
<rect x="216" y="532" width="26" height="26" rx="3" fill="#f3ece0" fill-opacity="1.0" stroke="#c9a875" stroke-width="1.0"/>
<rect x="80" y="566" width="26" height="26" rx="3" fill="#f3ece0" fill-opacity="1.0" stroke="#c9a875" stroke-width="1.0"/>
<rect x="114" y="566" width="26" height="26" rx="3" fill="#f3ece0" fill-opacity="1.0" stroke="#c9a875" stroke-width="1.0"/>
<rect x="148" y="566" width="26" height="26" rx="3" fill="#f3ece0" fill-opacity="1.0" stroke="#c9a875" stroke-width="1.0"/>
<rect x="182" y="566" width="26" height="26" rx="3" fill="#f3ece0" fill-opacity="1.0" stroke="#c9a875" stroke-width="1.0"/>
<rect x="216" y="566" width="26" height="26" rx="3" fill="#f3ece0" fill-opacity="1.0" stroke="#c9a875" stroke-width="1.0"/>
<rect x="80" y="600" width="26" height="26" rx="3" fill="#f3ece0" fill-opacity="1.0" stroke="#c9a875" stroke-width="1.0"/>
<rect x="114" y="600" width="26" height="26" rx="3" fill="#f3ece0" fill-opacity="1.0" stroke="#c9a875" stroke-width="1.0"/>
<rect x="148" y="600" width="26" height="26" rx="3" fill="#f3ece0" fill-opacity="1.0" stroke="#c9a875" stroke-width="1.0"/>
<rect x="182" y="600" width="26" height="26" rx="3" fill="#f3ece0" fill-opacity="1.0" stroke="#c9a875" stroke-width="1.0"/>
<rect x="216" y="600" width="26" height="26" rx="3" fill="#f3ece0" fill-opacity="1.0" stroke="#c9a875" stroke-width="1.0"/>
<rect x="80" y="634" width="26" height="26" rx="3" fill="#f3ece0" fill-opacity="1.0" stroke="#c9a875" stroke-width="1.0"/>
<rect x="114" y="634" width="26" height="26" rx="3" fill="#f3ece0" fill-opacity="1.0" stroke="#c9a875" stroke-width="1.0"/>
<rect x="148" y="634" width="26" height="26" rx="3" fill="#f3ece0" fill-opacity="1.0" stroke="#c9a875" stroke-width="1.0"/>
<rect x="182" y="634" width="26" height="26" rx="3" fill="#f3ece0" fill-opacity="1.0" stroke="#c9a875" stroke-width="1.0"/>
<rect x="216" y="634" width="26" height="26" rx="3" fill="#f3ece0" fill-opacity="1.0" stroke="#c9a875" stroke-width="1.0"/>
<rect x="80" y="668" width="26" height="26" rx="3" fill="#f3ece0" fill-opacity="1.0" stroke="#c9a875" stroke-width="1.0"/>
<rect x="114" y="668" width="26" height="26" rx="3" fill="#f3ece0" fill-opacity="1.0" stroke="#c9a875" stroke-width="1.0"/>
<rect x="148" y="668" width="26" height="26" rx="3" fill="#f3ece0" fill-opacity="1.0" stroke="#c9a875" stroke-width="1.0"/>
<rect x="182" y="668" width="26" height="26" rx="3" fill="#f3ece0" fill-opacity="1.0" stroke="#c9a875" stroke-width="1.0"/>
<rect x="216" y="668" width="26" height="26" rx="3" fill="#f3ece0" fill-opacity="1.0" stroke="#c9a875" stroke-width="1.0"/>
<rect x="306" y="532" width="26" height="26" rx="3" fill="#e6eef3" fill-opacity="1.0" stroke="#9db2c2" stroke-width="1.0"/>
<rect x="340" y="532" width="26" height="26" rx="3" fill="#e6eef3" fill-opacity="1.0" stroke="#9db2c2" stroke-width="1.0"/>
<rect x="374" y="532" width="26" height="26" rx="3" fill="#e6eef3" fill-opacity="1.0" stroke="#9db2c2" stroke-width="1.0"/>
<rect x="408" y="532" width="26" height="26" rx="3" fill="#e6eef3" fill-opacity="1.0" stroke="#9db2c2" stroke-width="1.0"/>
<rect x="442" y="532" width="26" height="26" rx="3" fill="#e6eef3" fill-opacity="1.0" stroke="#9db2c2" stroke-width="1.0"/>
<rect x="306" y="566" width="26" height="26" rx="3" fill="#e6eef3" fill-opacity="1.0" stroke="#9db2c2" stroke-width="1.0"/>
<rect x="340" y="566" width="26" height="26" rx="3" fill="#e6eef3" fill-opacity="1.0" stroke="#9db2c2" stroke-width="1.0"/>
<rect x="374" y="566" width="26" height="26" rx="3" fill="#e6eef3" fill-opacity="1.0" stroke="#9db2c2" stroke-width="1.0"/>
<rect x="408" y="566" width="26" height="26" rx="3" fill="#e6eef3" fill-opacity="1.0" stroke="#9db2c2" stroke-width="1.0"/>
<rect x="442" y="566" width="26" height="26" rx="3" fill="#e6eef3" fill-opacity="1.0" stroke="#9db2c2" stroke-width="1.0"/>
<rect x="306" y="600" width="26" height="26" rx="3" fill="#e6eef3" fill-opacity="1.0" stroke="#9db2c2" stroke-width="1.0"/>
<rect x="340" y="600" width="26" height="26" rx="3" fill="#e6eef3" fill-opacity="1.0" stroke="#9db2c2" stroke-width="1.0"/>
<rect x="374" y="600" width="26" height="26" rx="3" fill="#e6eef3" fill-opacity="1.0" stroke="#9db2c2" stroke-width="1.0"/>
<rect x="408" y="600" width="26" height="26" rx="3" fill="#e6eef3" fill-opacity="1.0" stroke="#9db2c2" stroke-width="1.0"/>
<rect x="442" y="600" width="26" height="26" rx="3" fill="#e6eef3" fill-opacity="1.0" stroke="#9db2c2" stroke-width="1.0"/>
<rect x="306" y="634" width="26" height="26" rx="3" fill="#e6eef3" fill-opacity="1.0" stroke="#9db2c2" stroke-width="1.0"/>
<rect x="340" y="634" width="26" height="26" rx="3" fill="#e6eef3" fill-opacity="1.0" stroke="#9db2c2" stroke-width="1.0"/>
<rect x="374" y="634" width="26" height="26" rx="3" fill="#e6eef3" fill-opacity="1.0" stroke="#9db2c2" stroke-width="1.0"/>
<rect x="408" y="634" width="26" height="26" rx="3" fill="#e6eef3" fill-opacity="1.0" stroke="#9db2c2" stroke-width="1.0"/>
<rect x="442" y="634" width="26" height="26" rx="3" fill="#e6eef3" fill-opacity="1.0" stroke="#9db2c2" stroke-width="1.0"/>
<rect x="306" y="668" width="26" height="26" rx="3" fill="#e6eef3" fill-opacity="1.0" stroke="#9db2c2" stroke-width="1.0"/>
<rect x="340" y="668" width="26" height="26" rx="3" fill="#e6eef3" fill-opacity="1.0" stroke="#9db2c2" stroke-width="1.0"/>
<rect x="374" y="668" width="26" height="26" rx="3" fill="#e6eef3" fill-opacity="1.0" stroke="#9db2c2" stroke-width="1.0"/>
<rect x="408" y="668" width="26" height="26" rx="3" fill="#e6eef3" fill-opacity="1.0" stroke="#9db2c2" stroke-width="1.0"/>
<rect x="442" y="668" width="26" height="26" rx="3" fill="#e6eef3" fill-opacity="1.0" stroke="#9db2c2" stroke-width="1.0"/>
<text x="161.0" y="524" font-size="10.5" font-weight="700" fill="#a86a1e" text-anchor="middle">block k (source)</text>
<text x="387.0" y="524" font-size="10.5" font-weight="700" fill="#245f96" text-anchor="middle">block k+1 (dest)</text>
<line x1="248" y1="545.0" x2="293.0" y2="545.0" stroke="#a86a1e" stroke-width="1.8" marker-end="url(#ao)"/>
<line x1="248" y1="579.0" x2="293.0" y2="579.0" stroke="#a86a1e" stroke-width="1.8" stroke-dasharray="5 3" marker-end="url(#ao)"/>
<line x1="248" y1="613.0" x2="293.0" y2="613.0" stroke="#a86a1e" stroke-width="1.8" marker-end="url(#ao)"/>
<line x1="248" y1="647.0" x2="293.0" y2="647.0" stroke="#a86a1e" stroke-width="1.8" stroke-dasharray="5 3" marker-end="url(#ao)"/>
<line x1="248" y1="681.0" x2="293.0" y2="681.0" stroke="#a86a1e" stroke-width="1.8" marker-end="url(#ao)"/>
<rect x="248.0" y="710" width="60" height="20" rx="5" fill="#f7efe2" fill-opacity="1.0" stroke="#c9a875" stroke-width="1.1"/>
<text x="278.0" y="724" font-size="10" font-weight="700" fill="#a86a1e" text-anchor="middle">P steps</text>
<text x="54" y="706" font-size="10.5" font-weight="500" fill="#34434d" text-anchor="start">P-step BLOCKING shift register moves each PE&#x27;s hidden</text>
<text x="54" y="722" font-size="10.5" font-weight="500" fill="#34434d" text-anchor="start">tile to same-coord PE one block over. Parity ordering</text>
<text x="54" y="738" font-size="10.5" font-weight="500" fill="#34434d" text-anchor="start">(even: send-&gt;recv; odd solid vs dashed: recv-&gt;send) =</text>
<text x="54" y="754" font-size="10.5" font-weight="500" fill="#34434d" text-anchor="start">deadlock-free.  Turn blocks @queue_flush-drain q7/q0 first.</text>
<rect x="620" y="470" width="520" height="310" rx="8" fill="#ffffff" fill-opacity="1.0" stroke="#d7dfe6" stroke-width="1.4"/><rect x="620" y="470" width="520" height="26" rx="8" fill="#eef3f7" fill-opacity="1.0" stroke="#d7dfe6" stroke-width="1.4"/><text x="634" y="488" font-size="13.5" font-weight="700" fill="#2c6fb0" text-anchor="start">P-7  kv-band reduce  (attn_score_reduce)</text><text x="1126" y="488" font-size="10.5" font-weight="600" fill="#5a6b76" text-anchor="end">Q@KT / softmax  ·  S-chain c1,c2/q5,q6 + N-chain c3,c4/q7,q0</text>
<rect x="770" y="522" width="30" height="30" rx="3" fill="#e6dcf3" fill-opacity="1.0" stroke="#245f96" stroke-width="1.2"/>
<text x="760" y="541.0" font-size="9.5" font-weight="600" fill="#5a6b76" text-anchor="end">pe 0</text>
<rect x="770" y="562" width="30" height="30" rx="3" fill="#e6dcf3" fill-opacity="1.0" stroke="#245f96" stroke-width="1.2"/>
<text x="760" y="581.0" font-size="9.5" font-weight="600" fill="#5a6b76" text-anchor="end">pe 1</text>
<rect x="770" y="602" width="30" height="30" rx="3" fill="#cfe0ef" fill-opacity="1.0" stroke="#245f96" stroke-width="1.2"/>
<text x="760" y="621.0" font-size="9.5" font-weight="600" fill="#5a6b76" text-anchor="end">pe 2</text>
<rect x="770" y="642" width="30" height="30" rx="3" fill="#e6dcf3" fill-opacity="1.0" stroke="#245f96" stroke-width="1.2"/>
<text x="760" y="661.0" font-size="9.5" font-weight="600" fill="#5a6b76" text-anchor="end">pe 3</text>
<line x1="780.5" y1="552" x2="780.5" y2="562" stroke="#c0392b" stroke-width="2.0" marker-end="url(#ar)"/>
<line x1="780.5" y1="592" x2="780.5" y2="602" stroke="#c0392b" stroke-width="2.0" marker-end="url(#ar)"/>
<line x1="789.5" y1="642" x2="789.5" y2="632" stroke="#7a3fb0" stroke-width="2.0" marker-end="url(#ap)"/>
<text x="785.0" y="514" font-size="9.5" font-weight="700" fill="#245f96" text-anchor="middle">cycling root</text>
<text x="816" y="534.0" font-size="9.5" font-weight="700" fill="#c0392b" text-anchor="start">S-chain (c1,c2)</text>
<text x="816" y="660.0" font-size="9.5" font-weight="700" fill="#7a3fb0" text-anchor="start">N-chain (c3,c4)</text>
<text x="634" y="706" font-size="10.5" font-weight="500" fill="#34434d" text-anchor="start">Split the band chain onto TWO disjoint color pairs so</text>
<text x="634" y="722" font-size="10.5" font-weight="500" fill="#34434d" text-anchor="start">each color&#x27;s rx/tx depends only on band parity (painted</text>
<text x="634" y="738" font-size="10.5" font-weight="500" fill="#34434d" text-anchor="start">ONCE by enter_qkt_reduce). The per-step root then cycles</text>
<text x="634" y="754" font-size="10.5" font-weight="500" fill="#34434d" text-anchor="start">in pure logic with ZERO route repaint.  N-chain borrows q7,q0.</text>
<line x1="40" y1="818" x2="1140" y2="818" stroke="#dce4ea" stroke-width="1.4"/>
<text x="40" y="838" font-size="14.5" font-weight="700" fill="#0d1b26" text-anchor="start">B.  Color + queue reuse map — which functions time-share each queue (every rebind is drained-safe)</text>
<rect x="40" y="862" width="1100" height="34" rx="6" fill="#eef3f7" fill-opacity="1.0" stroke="#c9d4dd" stroke-width="1.2"/>
<text x="50" y="884" font-size="11.5" font-weight="700" fill="#0d1b26" text-anchor="start">queue</text>
<text x="130" y="884" font-size="11.5" font-weight="700" fill="#0d1b26" text-anchor="start">color id(s)</text>
<text x="310" y="884" font-size="11.5" font-weight="700" fill="#0d1b26" text-anchor="start">owner  (phase 1)</text>
<text x="570" y="884" font-size="11.5" font-weight="700" fill="#0d1b26" text-anchor="start">time-shared with  (phase 2)</text>
<text x="830" y="884" font-size="11.5" font-weight="700" fill="#0d1b26" text-anchor="start">rebind / drain</text>
<rect x="40" y="896" width="1100" height="34" rx="0" fill="#ffffff" fill-opacity="1.0" stroke="#e3e9ee" stroke-width="1.0"/>
<text x="50" y="917" font-size="10.5" font-weight="700" fill="#0d1b26" text-anchor="start">q7, q0</text>
<text x="130" y="917" font-size="10.5" font-weight="600" fill="#0d1b26" text-anchor="start">3,4 / 12,13</text>
<text x="310" y="917" font-size="10.5" font-weight="500" fill="#34434d" text-anchor="start">N/S shuttle + Q@KT north chain (north_south_aux c3,c4)</text>
<text x="570" y="917" font-size="10.5" font-weight="500" fill="#34434d" text-anchor="start">E/W shuttle (shuttle_east_west c12,c13)</text>
<text x="830" y="917" font-size="10.5" font-weight="500" fill="#34434d" text-anchor="start">rebind_shuttle_7_0  (empty, no flush)</text>
<rect x="40" y="930" width="1100" height="34" rx="0" fill="#f5f8fa" fill-opacity="1.0" stroke="#e3e9ee" stroke-width="1.0"/>
<text x="50" y="951" font-size="10.5" font-weight="700" fill="#0d1b26" text-anchor="start">q5, q6, q1</text>
<text x="130" y="951" font-size="10.5" font-weight="600" fill="#0d1b26" text-anchor="start">1,2,5 / 18,19,20</text>
<text x="310" y="951" font-size="10.5" font-weight="500" fill="#34434d" text-anchor="start">reduce_1st + broadcast (c1,c2,c5)</text>
<text x="570" y="951" font-size="10.5" font-weight="500" fill="#34434d" text-anchor="start">Score x V band shift (band c18,c19,c20)</text>
<text x="830" y="951" font-size="10.5" font-weight="500" fill="#34434d" text-anchor="start">rebind_band_q_to_band/reduce + @queue_flush</text>
<rect x="40" y="964" width="1100" height="34" rx="0" fill="#ffffff" fill-opacity="1.0" stroke="#e3e9ee" stroke-width="1.0"/>
<text x="50" y="985" font-size="10.5" font-weight="700" fill="#0d1b26" text-anchor="start">q2</text>
<text x="130" y="985" font-size="10.5" font-weight="600" fill="#0d1b26" text-anchor="start">6,7,8</text>
<text x="310" y="985" font-size="10.5" font-weight="500" fill="#34434d" text-anchor="start">two_hop_comm left matrix (x_inter)</text>
<text x="570" y="985" font-size="10.5" font-weight="500" fill="#34434d" text-anchor="start">left_matrix_shift skew (same x channel)</text>
<text x="830" y="985" font-size="10.5" font-weight="500" fill="#34434d" text-anchor="start">skew completes before steps</text>
<rect x="40" y="998" width="1100" height="34" rx="0" fill="#f5f8fa" fill-opacity="1.0" stroke="#e3e9ee" stroke-width="1.0"/>
<text x="50" y="1019" font-size="10.5" font-weight="700" fill="#0d1b26" text-anchor="start">q3</text>
<text x="130" y="1019" font-size="10.5" font-weight="600" fill="#0d1b26" text-anchor="start">9,10,11</text>
<text x="310" y="1019" font-size="10.5" font-weight="500" fill="#34434d" text-anchor="start">two_hop_comm right matrix (y_inter)</text>
<text x="570" y="1019" font-size="10.5" font-weight="500" fill="#34434d" text-anchor="start">attn_right_hop  K|V tile hop</text>
<text x="830" y="1019" font-size="10.5" font-weight="500" fill="#34434d" text-anchor="start">(none — same channel)</text>
<rect x="40" y="1032" width="1100" height="34" rx="0" fill="#ffffff" fill-opacity="1.0" stroke="#e3e9ee" stroke-width="1.0"/>
<text x="50" y="1053" font-size="10.5" font-weight="700" fill="#0d1b26" text-anchor="start">q4</text>
<text x="130" y="1053" font-size="10.5" font-weight="600" fill="#0d1b26" text-anchor="start">—</text>
<text x="310" y="1053" font-size="10.5" font-weight="500" fill="#34434d" text-anchor="start">free</text>
<text x="570" y="1053" font-size="10.5" font-weight="500" fill="#34434d" text-anchor="start">—</text>
<text x="830" y="1053" font-size="10.5" font-weight="500" fill="#34434d" text-anchor="start">—</text>
<text x="40" y="1092" font-size="10.5" font-weight="500" fill="#5a6b76" text-anchor="start">reconfig()  is the ONE route-switch entry point: RECFG_FULL / RECFG_K paint reduce+bcast (G-3); RECFG_SH_OUT/IN paint the block&#x27;s shuttle hop; block-edge routes clamped by terminate_dir (G-9).</text>
<text x="40" y="1110" font-size="10.5" font-weight="500" fill="#5a6b76" text-anchor="start">Legend:  red = reduce chain   blue = broadcast / softmax   purple = Cannon-left / N-chain   green = Cannon-right   orange = inter-block shuttle.   All fabric DSD extents comptime; runtime variation goes in the count.</text>
</svg>