<svg id="my-svg" width="100%" xmlns="http://www.w3.org/2000/svg" xmlns:xlink="http://www.w3.org/1999/xlink" class="statediagram" style="max-width: 1005.5px; background-color: white;" viewBox="0 0 1005.5 1501" role="graphics-document document" aria-roledescription="stateDiagram"><style>#my-svg{font-family:"trebuchet ms",verdana,arial,sans-serif;font-size:16px;fill:#333;}@keyframes edge-animation-frame{from{stroke-dashoffset:0;}}@keyframes dash{to{stroke-dashoffset:0;}}#my-svg .edge-animation-slow{stroke-dasharray:9,5!important;stroke-dashoffset:900;animation:dash 50s linear infinite;stroke-linecap:round;}#my-svg .edge-animation-fast{stroke-dasharray:9,5!important;stroke-dashoffset:900;animation:dash 20s linear infinite;stroke-linecap:round;}#my-svg .error-icon{fill:#552222;}#my-svg .error-text{fill:#552222;stroke:#552222;}#my-svg .edge-thickness-normal{stroke-width:1px;}#my-svg .edge-thickness-thick{stroke-width:3.5px;}#my-svg .edge-pattern-solid{stroke-dasharray:0;}#my-svg .edge-thickness-invisible{stroke-width:0;fill:none;}#my-svg .edge-pattern-dashed{stroke-dasharray:3;}#my-svg .edge-pattern-dotted{stroke-dasharray:2;}#my-svg .marker{fill:#333333;stroke:#333333;}#my-svg .marker.cross{stroke:#333333;}#my-svg svg{font-family:"trebuchet ms",verdana,arial,sans-serif;font-size:16px;}#my-svg p{margin:0;}#my-svg defs [id$="-barbEnd"]{fill:#333333;stroke:#333333;}#my-svg g.stateGroup text{fill:#9370DB;stroke:none;font-size:10px;}#my-svg g.stateGroup text{fill:#333;stroke:none;font-size:10px;}#my-svg g.stateGroup .state-title{font-weight:bolder;fill:#131300;}#my-svg g.stateGroup rect{fill:#ECECFF;stroke:#9370DB;}#my-svg g.stateGroup line{stroke:#333333;stroke-width:1;}#my-svg .transition{stroke:#333333;stroke-width:1;fill:none;}#my-svg .stateGroup .composit{fill:white;border-bottom:1px;}#my-svg .stateGroup .alt-composit{fill:#e0e0e0;border-bottom:1px;}#my-svg .state-note{stroke:#aaaa33;fill:#fff5ad;}#my-svg .state-note text{fill:black;stroke:none;font-size:10px;}#my-svg .stateLabel .box{stroke:none;stroke-width:0;fill:#ECECFF;opacity:0.5;}#my-svg .edgeLabel .label rect{fill:#ECECFF;opacity:0.5;}#my-svg .edgeLabel{background-color:rgba(232,232,232, 0.8);text-align:center;}#my-svg .edgeLabel p{background-color:rgba(232,232,232, 0.8);}#my-svg .edgeLabel rect{opacity:0.5;background-color:rgba(232,232,232, 0.8);fill:rgba(232,232,232, 0.8);}#my-svg .edgeLabel .label text{fill:#333;}#my-svg .label div .edgeLabel{color:#333;}#my-svg .stateLabel text{fill:#131300;font-size:10px;font-weight:bold;}#my-svg .node circle.state-start{fill:#333333;stroke:#333333;}#my-svg .node .fork-join{fill:#333333;stroke:#333333;}#my-svg .node circle.state-end{fill:#9370DB;stroke:white;stroke-width:1.5;}#my-svg .end-state-inner{fill:white;stroke-width:1.5;}#my-svg .node rect{fill:#ECECFF;stroke:#9370DB;stroke-width:1px;}#my-svg .node polygon{fill:#ECECFF;stroke:#9370DB;stroke-width:1px;}#my-svg [id$="-barbEnd"]{fill:#333333;}#my-svg .statediagram-cluster rect{fill:#ECECFF;stroke:#9370DB;stroke-width:1px;}#my-svg .cluster-label,#my-svg .nodeLabel{color:#131300;}#my-svg .statediagram-cluster rect.outer{rx:5px;ry:5px;}#my-svg .statediagram-state .divider{stroke:#9370DB;}#my-svg .statediagram-state .title-state{rx:5px;ry:5px;}#my-svg .statediagram-cluster.statediagram-cluster .inner{fill:white;}#my-svg .statediagram-cluster.statediagram-cluster-alt .inner{fill:#f0f0f0;}#my-svg .statediagram-cluster .inner{rx:0;ry:0;}#my-svg .statediagram-state rect.basic{rx:5px;ry:5px;}#my-svg .statediagram-state rect.divider{stroke-dasharray:10,10;fill:#f0f0f0;}#my-svg .note-edge{stroke-dasharray:5;}#my-svg .statediagram-note rect{fill:#fff5ad;stroke:#aaaa33;stroke-width:1px;rx:0;ry:0;}#my-svg .statediagram-note rect{fill:#fff5ad;stroke:#aaaa33;stroke-width:1px;rx:0;ry:0;}#my-svg .statediagram-note text{fill:black;}#my-svg .statediagram-note .nodeLabel{color:black;}#my-svg .statediagram .edgeLabel{color:red;}#my-svg [id$="-dependencyStart"],#my-svg [id$="-dependencyEnd"]{fill:#333333;stroke:#333333;stroke-width:1;}#my-svg .statediagramTitleText{text-anchor:middle;font-size:18px;fill:#333;}#my-svg [data-look="neo"].statediagram-cluster rect{fill:#ECECFF;stroke:#9370DB;stroke-width:1;}#my-svg [data-look="neo"].statediagram-cluster rect.outer{rx:5px;ry:5px;filter:drop-shadow(1px 2px 2px rgba(185, 185, 185, 1));}#my-svg .node .neo-node{stroke:#9370DB;}#my-svg [data-look="neo"].node rect,#my-svg [data-look="neo"].cluster rect,#my-svg [data-look="neo"].node polygon{stroke:#9370DB;filter:drop-shadow(1px 2px 2px rgba(185, 185, 185, 1));}#my-svg [data-look="neo"].swimlane.cluster rect{filter:none;}#my-svg [data-look="neo"].node path{stroke:#9370DB;stroke-width:1px;}#my-svg [data-look="neo"].node .outer-path{filter:drop-shadow(1px 2px 2px rgba(185, 185, 185, 1));}#my-svg [data-look="neo"].node .neo-line path{stroke:#9370DB;filter:none;}#my-svg [data-look="neo"].node circle{stroke:#9370DB;filter:drop-shadow(1px 2px 2px rgba(185, 185, 185, 1));}#my-svg [data-look="neo"].node circle .state-start{fill:#000000;}#my-svg [data-look="neo"].icon-shape .icon{fill:#9370DB;filter:drop-shadow(1px 2px 2px rgba(185, 185, 185, 1));}#my-svg [data-look="neo"].icon-shape .icon-neo path{stroke:#9370DB;filter:drop-shadow(1px 2px 2px rgba(185, 185, 185, 1));}#my-svg :root{--mermaid-font-family:"trebuchet ms",verdana,arial,sans-serif;}</style><g><defs><marker id="my-svg_stateDiagram-barbEnd" refX="19" refY="7" markerWidth="20" markerHeight="14" markerUnits="userSpaceOnUse" orient="auto"><path d="M 19,7 L9,13 L14,7 L9,1 Z"/></marker></defs><g class="root"><g class="clusters"><g class="statediagram-state statediagram-cluster" id="my-svg-state-per_step_loop-2" data-id="per_step_loop" data-look="classic"><g><rect class="outer" x="40" y="234" width="517.5" height="597" data-look="classic"/></g><g class="cluster-label" transform="translate(248.0390625, 235)"><foreignObject width="101.421875" height="24"><div xmlns="http://www.w3.org/1999/xhtml" style="display: table-cell; white-space: nowrap; line-height: 1.5;"><span class="nodeLabel"><p>per_step_loop</p></span></div></foreignObject></g><rect class="inner" x="40" y="260" width="517.5" height="567"/></g><g class="note-cluster" id="my-svg-state-init----parent-9"><rect x="577.5" y="234" width="300" height="224" fill="none"/></g><g class="note-cluster" id="my-svg-state-next----parent-10"><rect x="8" y="953" width="300" height="128" fill="none"/></g><g class="note-cluster" id="my-svg-state-tsc_send----parent-11"><rect x="638.5033233165741" y="1341" width="300" height="152" fill="none"/></g></g><g class="edgePaths"><path d="M727.5,22L727.5,28.167C727.5,34.333,727.5,46.667,727.5,59C727.5,71.333,727.5,83.667,727.5,89.833L727.5,96" id="my-svg-edge0" class="edge-thickness-normal edge-pattern-solid transition" style="fill:none;;;fill:none" data-edge="true" data-et="edge" data-id="edge0" data-points="W3sieCI6NzI3LjUsInkiOjIyfSx7IngiOjcyNy41LCJ5Ijo1OX0seyJ4Ijo3MjcuNSwieSI6OTZ9XQ==" data-look="classic" marker-end="url(#my-svg_stateDiagram-barbEnd)"/><path d="M619.5,145.617L567,154.181C514.5,162.745,409.5,179.872,357,194.603C304.5,209.333,304.5,221.667,304.5,241.167C304.5,260.667,304.5,287.333,304.5,300.667L304.5,314" id="my-svg-edge1" class="edge-thickness-normal edge-pattern-solid transition" style="fill:none;;;fill:none" data-edge="true" data-et="edge" data-id="edge1" data-points="W3sieCI6NjE5LjUsInkiOjE0NS42MTcwMjEyNzY1OTU3NX0seyJ4IjozMDQuNSwieSI6MTk3fSx7IngiOjMwNC41LCJ5IjoyMzR9LHsieCI6MzA0LjUsInkiOjMxNH1d" data-look="classic" marker-end="url(#my-svg_stateDiagram-barbEnd)"/><path d="M269.786,378L255.321,391.333C240.857,404.667,211.929,431.333,197.464,452.833C183,474.333,183,490.667,183,507C183,523.333,183,539.667,183,547.833L183,556" id="my-svg-edge2" class="edge-thickness-normal edge-pattern-solid transition" style="fill:none;;;fill:none" data-edge="true" data-et="edge" data-id="edge2" data-points="W3sieCI6MjY5Ljc4NTcxNDI4NTcxNDMsInkiOjM3OH0seyJ4IjoxODMsInkiOjQ1OH0seyJ4IjoxODMsInkiOjUwN30seyJ4IjoxODMsInkiOjU1Nn1d" data-look="classic" marker-end="url(#my-svg_stateDiagram-barbEnd)"/><path d="M183,620L183,630.167C183,640.333,183,660.667,196.282,681C209.565,701.333,236.129,721.667,249.411,731.833L262.694,742" id="my-svg-edge3" class="edge-thickness-normal edge-pattern-solid transition" style="fill:none;;;fill:none" data-edge="true" data-et="edge" data-id="edge3" data-points="W3sieCI6MTgzLCJ5Ijo2MjB9LHsieCI6MTgzLCJ5Ijo2ODF9LHsieCI6MjYyLjY5MzU0ODM4NzA5Njc3LCJ5Ijo3NDJ9XQ==" data-look="classic" marker-end="url(#my-svg_stateDiagram-barbEnd)"/><path d="M346.306,742L359.589,731.833C372.871,721.667,399.435,701.333,412.718,675.667C426,650,426,619,426,590C426,561,426,534,426,512.333C426,490.667,426,474.333,411.536,452.833C397.071,431.333,368.143,404.667,353.679,391.333L339.214,378" id="my-svg-edge4" class="edge-thickness-normal edge-pattern-solid transition" style="fill:none;;;fill:none" data-edge="true" data-et="edge" data-id="edge4" data-points="W3sieCI6MzQ2LjMwNjQ1MTYxMjkwMzIzLCJ5Ijo3NDJ9LHsieCI6NDI2LCJ5Ijo2ODF9LHsieCI6NDI2LCJ5Ijo1ODh9LHsieCI6NDI2LCJ5Ijo1MDd9LHsieCI6NDI2LCJ5Ijo0NTh9LHsieCI6MzM5LjIxNDI4NTcxNDI4NTcsInkiOjM3OH1d" data-look="classic" marker-end="url(#my-svg_stateDiagram-barbEnd)"/><path d="M386.746,806L397.455,810.167C408.164,814.333,429.582,822.667,440.291,837C451,851.333,451,871.667,451,892C451,912.333,451,932.667,451,948.167C451,963.667,451,974.333,451,979.667L451,985" id="my-svg-edge5" class="edge-thickness-normal edge-pattern-solid transition" style="fill:none;;;fill:none" data-edge="true" data-et="edge" data-id="edge5" data-points="W3sieCI6Mzg2Ljc0NTYxNDAzNTA4NzcsInkiOjgwNn0seyJ4Ijo0NTEsInkiOjgzMX0seyJ4Ijo0NTEsInkiOjg5Mn0seyJ4Ijo0NTEsInkiOjk1M30seyJ4Ijo0NTEsInkiOjk4NX1d" data-look="classic" marker-end="url(#my-svg_stateDiagram-barbEnd)"/><path d="M451,1049L451,1054.333C451,1059.667,451,1070.333,451,1083.833C451,1097.333,451,1113.667,475.349,1130C499.698,1146.333,548.395,1162.667,572.744,1170.833L597.093,1179" id="my-svg-edge6" class="edge-thickness-normal edge-pattern-solid transition" style="fill:none;;;fill:none" data-edge="true" data-et="edge" data-id="edge6" data-points="W3sieCI6NDUxLCJ5IjoxMDQ5fSx7IngiOjQ1MSwieSI6MTA4MX0seyJ4Ijo0NTEsInkiOjExMzB9LHsieCI6NTk3LjA5MjU5MjU5MjU5MjYsInkiOjExNzl9XQ==" data-look="classic" marker-end="url(#my-svg_stateDiagram-barbEnd)"/><path d="M773.488,1179L794.156,1170.833C814.825,1162.667,856.163,1146.333,876.831,1130C897.5,1113.667,897.5,1097.333,897.5,1078.5C897.5,1059.667,897.5,1038.333,897.5,1017C897.5,995.667,897.5,974.333,897.5,953.5C897.5,932.667,897.5,912.333,897.5,892C897.5,871.667,897.5,851.333,897.5,831.667C897.5,812,897.5,793,897.5,768C897.5,743,897.5,712,897.5,681C897.5,650,897.5,619,897.5,590C897.5,561,897.5,534,897.5,512.333C897.5,490.667,897.5,474.333,897.5,447.5C897.5,420.667,897.5,383.333,897.5,346C897.5,308.667,897.5,271.333,897.5,246.5C897.5,221.667,897.5,209.333,882.307,197C867.114,184.667,836.727,172.333,821.534,166.167L806.341,160" id="my-svg-edge7" class="edge-thickness-normal edge-pattern-solid transition" style="fill:none;;;fill:none" data-edge="true" data-et="edge" data-id="edge7" data-points="W3sieCI6NzczLjQ4NzY1NDMyMDk4NzYsInkiOjExNzl9LHsieCI6ODk3LjUsInkiOjExMzB9LHsieCI6ODk3LjUsInkiOjEwODF9LHsieCI6ODk3LjUsInkiOjEwMTd9LHsieCI6ODk3LjUsInkiOjk1M30seyJ4Ijo4OTcuNSwieSI6ODkyfSx7IngiOjg5Ny41LCJ5Ijo4MzF9LHsieCI6ODk3LjUsInkiOjc3NH0seyJ4Ijo4OTcuNSwieSI6NjgxfSx7IngiOjg5Ny41LCJ5Ijo1ODh9LHsieCI6ODk3LjUsInkiOjUwN30seyJ4Ijo4OTcuNSwieSI6NDU4fSx7IngiOjg5Ny41LCJ5IjozNDZ9LHsieCI6ODk3LjUsInkiOjIzNH0seyJ4Ijo4OTcuNSwieSI6MTk3fSx7IngiOjgwNi4zNDA1Nzk3MTAxNDQ5LCJ5IjoxNjB9XQ==" data-look="classic" marker-end="url(#my-svg_stateDiagram-barbEnd)"/><path d="M654.573,1243L644.893,1251.167C635.214,1259.333,615.855,1275.667,606.176,1292C596.497,1308.333,596.497,1324.667,596.497,1344.332C596.497,1363.998,596.497,1386.996,596.497,1398.494L596.497,1409.993" id="my-svg-edge8" class="edge-thickness-normal edge-pattern-solid transition" style="fill:none;;;fill:none" data-edge="true" data-et="edge" data-id="edge8" data-points="W3sieCI6NjU0LjU3Mjc2MTE1ODg4NDMsInkiOjEyNDN9LHsieCI6NTk2LjQ5NjY3NjY4MzQyNTksInkiOjEyOTJ9LHsieCI6NTk2LjQ5NjY3NjY4MzQyNTksInkiOjEzNDF9LHsieCI6NTk2LjQ5NjY3NjY4MzQyNTksInkiOjE0MDkuOTkzMzUzMzY2ODUxOH1d" data-look="classic" marker-end="url(#my-svg_stateDiagram-barbEnd)"/><path d="M727.5,160L727.5,166.167C727.5,172.333,727.5,184.667,727.5,197C727.5,209.333,727.5,221.667,727.5,232C727.5,242.333,727.5,250.667,727.5,254.833L727.5,259" id="my-svg-init-init----note-9" class="edge-thickness-normal edge-pattern-solid transition note-edge" style="fill:none;;;fill:none" data-edge="true" data-et="edge" data-id="init-init----note-9" data-points="W3sieCI6NzI3LjUsInkiOjE2MH0seyJ4Ijo3MjcuNSwieSI6MTk3fSx7IngiOjcyNy41LCJ5IjoyMzR9LHsieCI6NzI3LjUsInkiOjI1OX1d" data-look="classic"/><path d="M222.254,806L211.545,810.167C200.836,814.333,179.418,822.667,168.709,837C158,851.333,158,871.667,158,892C158,912.333,158,932.667,158,947C158,961.333,158,969.667,158,973.833L158,978" id="my-svg-next-next----note-10" class="edge-thickness-normal edge-pattern-solid transition note-edge" style="fill:none;;;fill:none" data-edge="true" data-et="edge" data-id="next-next----note-10" data-points="W3sieCI6MjIyLjI1NDM4NTk2NDkxMjI3LCJ5Ijo4MDZ9LHsieCI6MTU4LCJ5Ijo4MzF9LHsieCI6MTU4LCJ5Ijo4OTJ9LHsieCI6MTU4LCJ5Ijo5NTN9LHsieCI6MTU4LCJ5Ijo5Nzh9XQ==" data-look="classic"/><path d="M730.427,1243L740.107,1251.167C749.786,1259.333,769.145,1275.667,778.824,1292C788.503,1308.333,788.503,1324.667,788.503,1337C788.503,1349.333,788.503,1357.667,788.503,1361.833L788.503,1366" id="my-svg-tsc_send-tsc_send----note-11" class="edge-thickness-normal edge-pattern-solid transition note-edge" style="fill:none;;;fill:none" data-edge="true" data-et="edge" data-id="tsc_send-tsc_send----note-11" data-points="W3sieCI6NzMwLjQyNzIzODg0MTExNTcsInkiOjEyNDN9LHsieCI6Nzg4LjUwMzMyMzMxNjU3NDEsInkiOjEyOTJ9LHsieCI6Nzg4LjUwMzMyMzMxNjU3NDEsInkiOjEzNDF9LHsieCI6Nzg4LjUwMzMyMzMxNjU3NDEsInkiOjEzNjZ9XQ==" data-look="classic"/></g><g class="edgeLabels"><g class="edgeLabel" transform="translate(727.5, 59)"><g class="label" data-id="edge0" transform="translate(-90.703125, -12)"><foreignObject width="181.40625" height="24"><div xmlns="http://www.w3.org/1999/xhtml" class="labelBkg" style="display: table-cell; white-space: nowrap; line-height: 1.5; max-width: 200px; text-align: center;"><span class="edgeLabel"><p>comptime activate(init_id)</p></span></div></foreignObject></g></g><g class="edgeLabel" transform="translate(304.5, 197)"><g class="label" data-id="edge1" transform="translate(-86.2578125, -12)"><foreignObject width="172.515625" height="24"><div xmlns="http://www.w3.org/1999/xhtml" class="labelBkg" style="display: table-cell; white-space: nowrap; line-height: 1.5; max-width: 200px; text-align: center;"><span class="edgeLabel"><p>async: activate(main_id)</p></span></div></foreignObject></g></g><g class="edgeLabel" transform="translate(183, 507)"><g class="label" data-id="edge2" transform="translate(-100, -24)"><foreignObject width="200" height="48"><div xmlns="http://www.w3.org/1999/xhtml" class="labelBkg" style="display: table; white-space: break-spaces; line-height: 1.5; max-width: 200px; text-align: center; width: 200px;"><span class="edgeLabel"><p>async: mov32 done, activate(send_id)</p></span></div></foreignObject></g></g><g class="edgeLabel" transform="translate(183, 681)"><g class="label" data-id="edge3" transform="translate(-100, -24)"><foreignObject width="200" height="48"><div xmlns="http://www.w3.org/1999/xhtml" class="labelBkg" style="display: table; white-space: break-spaces; line-height: 1.5; max-width: 200px; text-align: center; width: 200px;"><span class="edgeLabel"><p>async: mov32 done, activate(next_id)</p></span></div></foreignObject></g></g><g class="edgeLabel" transform="translate(426, 588)"><g class="label" data-id="edge4" transform="translate(-100, -24)"><foreignObject width="200" height="48"><div xmlns="http://www.w3.org/1999/xhtml" class="labelBkg" style="display: table; white-space: break-spaces; line-height: 1.5; max-width: 200px; text-align: center; width: 200px;"><span class="edgeLabel"><p>async: activate(main_id), step lt N and not STOP</p></span></div></foreignObject></g></g><g class="edgeLabel" transform="translate(451, 892)"><g class="label" data-id="edge5" transform="translate(-100, -36)"><foreignObject width="200" height="72"><div xmlns="http://www.w3.org/1999/xhtml" class="labelBkg" style="display: table; white-space: break-spaces; line-height: 1.5; max-width: 200px; text-align: center; width: 200px;"><span class="edgeLabel"><p>async: activate(tsc_recv_id), STOP_TOK or step ge N</p></span></div></foreignObject></g></g><g class="edgeLabel" transform="translate(451, 1130)"><g class="label" data-id="edge6" transform="translate(-100, -24)"><foreignObject width="200" height="48"><div xmlns="http://www.w3.org/1999/xhtml" class="labelBkg" style="display: table; white-space: break-spaces; line-height: 1.5; max-width: 200px; text-align: center; width: 200px;"><span class="edgeLabel"><p>async: mov32 done, activate(tsc_send_id)</p></span></div></foreignObject></g></g><g class="edgeLabel" transform="translate(897.5, 681)"><g class="label" data-id="edge7" transform="translate(-100, -36)"><foreignObject width="200" height="72"><div xmlns="http://www.w3.org/1999/xhtml" class="labelBkg" style="display: table; white-space: break-spaces; line-height: 1.5; max-width: 200px; text-align: center; width: 200px;"><span class="edgeLabel"><p>async: mov32 done, activate(init_id), KV=1 re-arm</p></span></div></foreignObject></g></g><g class="edgeLabel" transform="translate(596.4966766834259, 1292)"><g class="label" data-id="edge8" transform="translate(-100, -24)"><foreignObject width="200" height="48"><div xmlns="http://www.w3.org/1999/xhtml" class="labelBkg" style="display: table; white-space: break-spaces; line-height: 1.5; max-width: 200px; text-align: center; width: 200px;"><span class="edgeLabel"><p>mov32 done, no callback, KV=0 done</p></span></div></foreignObject></g></g><g class="edgeLabel"><g class="label" data-id="init-init----note-9" transform="translate(0, 0)"><foreignObject width="0" height="0"><div xmlns="http://www.w3.org/1999/xhtml" class="labelBkg" style="display: table-cell; white-space: nowrap; line-height: 1.5; max-width: 200px; text-align: center;"><span class="edgeLabel"></span></div></foreignObject></g></g><g class="edgeLabel"><g class="label" data-id="next-next----note-10" transform="translate(0, 0)"><foreignObject width="0" height="0"><div xmlns="http://www.w3.org/1999/xhtml" class="labelBkg" style="display: table-cell; white-space: nowrap; line-height: 1.5; max-width: 200px; text-align: center;"><span class="edgeLabel"></span></div></foreignObject></g></g><g class="edgeLabel"><g class="label" data-id="tsc_send-tsc_send----note-11" transform="translate(0, 0)"><foreignObject width="0" height="0"><div xmlns="http://www.w3.org/1999/xhtml" class="labelBkg" style="display: table-cell; white-space: nowrap; line-height: 1.5; max-width: 200px; text-align: center;"><span class="edgeLabel"></span></div></foreignObject></g></g></g><g class="nodes"><g class="node default" id="my-svg-state-root_start-0" data-look="classic" transform="translate(727.5, 15)"><circle class="state-start" r="7" width="14" height="14"/></g><g class="node  statediagram-state" id="my-svg-state-init-9" data-look="classic" transform="translate(727.5, 128)"><rect class="basic label-container" style="" rx="5" ry="5" x="-108" y="-32" width="216" height="64"/><g class="label" style="" transform="translate(-100, -24)"><rect/><foreignObject width="200" height="48"><div xmlns="http://www.w3.org/1999/xhtml" style="display: table; white-space: break-spaces; line-height: 1.5; max-width: 200px; text-align: center; width: 200px;"><span class="nodeLabel markdown-node-label"><p>init() - read budget header N, reset step</p></span></div></foreignObject></g></g><g class="node  statediagram-state" id="my-svg-state-main-4" data-look="classic" transform="translate(304.5, 346)"><rect class="basic label-container" style="" rx="5" ry="5" x="-108" y="-32" width="216" height="64"/><g class="label" style="" transform="translate(-100, -24)"><rect/><foreignObject width="200" height="48"><div xmlns="http://www.w3.org/1999/xhtml" style="display: table; white-space: break-spaces; line-height: 1.5; max-width: 200px; text-align: center; width: 200px;"><span class="nodeLabel markdown-node-label"><p>main() - drain step blob from north</p></span></div></foreignObject></g></g><g class="node  statediagram-state" id="my-svg-state-send-3" data-look="classic" transform="translate(183, 588)"><rect class="basic label-container" style="" rx="5" ry="5" x="-108" y="-32" width="216" height="64"/><g class="label" style="" transform="translate(-100, -24)"><rect/><foreignObject width="200" height="48"><div xmlns="http://www.w3.org/1999/xhtml" style="display: table; white-space: break-spaces; line-height: 1.5; max-width: 200px; text-align: center; width: 200px;"><span class="nodeLabel markdown-node-label"><p>send() - forward blob east to host</p></span></div></foreignObject></g></g><g class="node  statediagram-state" id="my-svg-state-next-10" data-look="classic" transform="translate(304.5, 774)"><rect class="basic label-container" style="" rx="5" ry="5" x="-108" y="-32" width="216" height="64"/><g class="label" style="" transform="translate(-100, -24)"><rect/><foreignObject width="200" height="48"><div xmlns="http://www.w3.org/1999/xhtml" style="display: table; white-space: break-spaces; line-height: 1.5; max-width: 200px; text-align: center; width: 200px;"><span class="nodeLabel markdown-node-label"><p>next() - step++, early-stop or loop decision</p></span></div></foreignObject></g></g><g class="node  statediagram-state" id="my-svg-state-tsc_recv-6" data-look="classic" transform="translate(451, 1017)"><rect class="basic label-container" style="" rx="5" ry="5" x="-108" y="-32" width="216" height="64"/><g class="label" style="" transform="translate(-100, -24)"><rect/><foreignObject width="200" height="48"><div xmlns="http://www.w3.org/1999/xhtml" style="display: table; white-space: break-spaces; line-height: 1.5; max-width: 200px; text-align: center; width: 200px;"><span class="nodeLabel markdown-node-label"><p>tsc_recv() - drain 8-u32 TSC burst</p></span></div></foreignObject></g></g><g class="node  statediagram-state" id="my-svg-state-tsc_send-11" data-look="classic" transform="translate(692.5, 1211)"><rect class="basic label-container" style="" rx="5" ry="5" x="-108" y="-32" width="216" height="64"/><g class="label" style="" transform="translate(-100, -24)"><rect/><foreignObject width="200" height="48"><div xmlns="http://www.w3.org/1999/xhtml" style="display: table; white-space: break-spaces; line-height: 1.5; max-width: 200px; text-align: center; width: 200px;"><span class="nodeLabel markdown-node-label"><p>tsc_send() - forward TSC east, re-arm or done</p></span></div></foreignObject></g></g><g class="node default" id="my-svg-state-root_end-8" data-look="classic" transform="translate(596.4966766834259, 1417)"><g class="outer-path"><path d="M7 0 C7 0.40517908122283747, 6.964012880168563 0.816513743121899, 6.893654271085456 1.2155372436685123 C6.823295662002349 1.6145607442151257, 6.716427752933756 2.013397210557766, 6.5778483455013586 2.394141003279681 C6.439268938068961 2.7748847960015954, 6.26476736710249 3.149104622578984, 6.062177826491071 3.4999999999999996 C5.859588285879653 3.8508953774210153, 5.622755194947063 4.189128084166967, 5.362311101832846 4.499513267805774 C5.10186700871863 4.809898451444582, 4.809898451444583 5.10186700871863, 4.499513267805775 5.362311101832846 C4.189128084166968 5.622755194947063, 3.8508953774210166 5.859588285879652, 3.500000000000001 6.06217782649107 C3.149104622578985 6.264767367102489, 2.7748847960015963 6.439268938068961, 2.3941410032796817 6.5778483455013586 C2.013397210557767 6.716427752933756, 1.6145607442151264 6.823295662002349, 1.2155372436685128 6.893654271085456 C0.8165137431218992 6.964012880168563, 0.4051790812228379 7, 4.286263797015736e-16 7 C-0.405179081222837 7, -0.8165137431218985 6.964012880168563, -1.2155372436685121 6.893654271085456 C-1.6145607442151257 6.823295662002349, -2.0133972105577667 6.716427752933756, -2.394141003279681 6.5778483455013586 C-2.774884796001595 6.439268938068961, -3.149104622578983 6.26476736710249, -3.4999999999999982 6.062177826491071 C-3.8508953774210135 5.859588285879653, -4.189128084166966 5.6227551949470636, -4.499513267805773 5.362311101832848 C-4.809898451444581 5.101867008718632, -5.101867008718628 4.809898451444586, -5.3623111018328435 4.499513267805779 C-5.622755194947059 4.189128084166971, -5.859588285879649 3.8508953774210206, -6.062177826491068 3.5000000000000053 C-6.264767367102486 3.14910462257899, -6.439268938068958 2.774884796001602, -6.577848345501356 2.394141003279688 C-6.716427752933754 2.0133972105577738, -6.823295662002347 1.614560744215134, -6.893654271085454 1.215537243668521 C-6.9640128801685615 0.816513743121908, -6.999999999999999 0.4051790812228472, -7 1.0183126166254463e-14 C-7.000000000000001 -0.40517908122282686, -6.964012880168565 -0.8165137431218878, -6.893654271085459 -1.215537243668501 C-6.823295662002352 -1.6145607442151142, -6.716427752933759 -2.0133972105577542, -6.577848345501363 -2.394141003279669 C-6.439268938068967 -2.7748847960015834, -6.264767367102496 -3.149104622578972, -6.062177826491078 -3.4999999999999876 C-5.859588285879661 -3.8508953774210033, -5.6227551949470715 -4.1891280841669545, -5.362311101832856 -4.499513267805763 C-5.10186700871864 -4.809898451444571, -4.809898451444594 -5.10186700871862, -4.499513267805787 -5.362311101832836 C-4.189128084166979 -5.622755194947053, -3.850895377421028 -5.859588285879643, -3.5000000000000133 -6.062177826491062 C-3.1491046225789985 -6.264767367102482, -2.774884796001611 -6.439268938068954, -2.3941410032796973 -6.577848345501353 C-2.0133972105577835 -6.716427752933752, -1.6145607442151435 -6.823295662002345, -1.2155372436685306 -6.893654271085453 C-0.8165137431219176 -6.9640128801685615, -0.40517908122285695 -6.999999999999999, -1.9937625952807352e-14 -7 C0.4051790812228171 -7.000000000000001, 0.8165137431218781 -6.964012880168565, 1.2155372436684913 -6.89365427108546 C1.6145607442151044 -6.823295662002354, 2.013397210557745 -6.716427752933763, 2.3941410032796595 -6.5778483455013665 C2.774884796001574 -6.43926893806897, 3.149104622578963 -6.2647673671025, 3.499999999999979 -6.062177826491083 C3.8508953774209953 -5.859588285879665, 4.189128084166947 -5.622755194947077, 4.499513267805756 -5.362311101832862 C4.809898451444564 -5.1018670087186475, 5.101867008718613 -4.809898451444602, 5.362311101832829 -4.499513267805796 C5.622755194947046 -4.189128084166989, 5.859588285879637 -3.8508953774210393, 6.062177826491056 -3.500000000000025 C6.2647673671024755 -3.1491046225790105, 6.439268938068949 -2.774884796001623, 6.577848345501348 -2.3941410032797092 C6.716427752933747 -2.0133972105577955, 6.823295662002342 -1.6145607442151562, 6.893654271085451 -1.2155372436685434 C6.96401288016856 -0.8165137431219307, 6.982275711847575 -0.2025895406114567, 7 -3.2800750208310675e-14 C7.017724288152425 0.2025895406113911, 7.017724288152424 -0.2025895406114242, 7 0" stroke="none" stroke-width="0" fill="#ECECFF" style=""/><path d="M7 0 C7 0.40517908122283747, 6.964012880168563 0.816513743121899, 6.893654271085456 1.2155372436685123 C6.823295662002349 1.6145607442151257, 6.716427752933756 2.013397210557766, 6.5778483455013586 2.394141003279681 C6.439268938068961 2.7748847960015954, 6.26476736710249 3.149104622578984, 6.062177826491071 3.4999999999999996 C5.859588285879653 3.8508953774210153, 5.622755194947063 4.189128084166967, 5.362311101832846 4.499513267805774 C5.10186700871863 4.809898451444582, 4.809898451444583 5.10186700871863, 4.499513267805775 5.362311101832846 C4.189128084166968 5.622755194947063, 3.8508953774210166 5.859588285879652, 3.500000000000001 6.06217782649107 C3.149104622578985 6.264767367102489, 2.7748847960015963 6.439268938068961, 2.3941410032796817 6.5778483455013586 C2.013397210557767 6.716427752933756, 1.6145607442151264 6.823295662002349, 1.2155372436685128 6.893654271085456 C0.8165137431218992 6.964012880168563, 0.4051790812228379 7, 4.286263797015736e-16 7 C-0.405179081222837 7, -0.8165137431218985 6.964012880168563, -1.2155372436685121 6.893654271085456 C-1.6145607442151257 6.823295662002349, -2.0133972105577667 6.716427752933756, -2.394141003279681 6.5778483455013586 C-2.774884796001595 6.439268938068961, -3.149104622578983 6.26476736710249, -3.4999999999999982 6.062177826491071 C-3.8508953774210135 5.859588285879653, -4.189128084166966 5.6227551949470636, -4.499513267805773 5.362311101832848 C-4.809898451444581 5.101867008718632, -5.101867008718628 4.809898451444586, -5.3623111018328435 4.499513267805779 C-5.622755194947059 4.189128084166971, -5.859588285879649 3.8508953774210206, -6.062177826491068 3.5000000000000053 C-6.264767367102486 3.14910462257899, -6.439268938068958 2.774884796001602, -6.577848345501356 2.394141003279688 C-6.716427752933754 2.0133972105577738, -6.823295662002347 1.614560744215134, -6.893654271085454 1.215537243668521 C-6.9640128801685615 0.816513743121908, -6.999999999999999 0.4051790812228472, -7 1.0183126166254463e-14 C-7.000000000000001 -0.40517908122282686, -6.964012880168565 -0.8165137431218878, -6.893654271085459 -1.215537243668501 C-6.823295662002352 -1.6145607442151142, -6.716427752933759 -2.0133972105577542, -6.577848345501363 -2.394141003279669 C-6.439268938068967 -2.7748847960015834, -6.264767367102496 -3.149104622578972, -6.062177826491078 -3.4999999999999876 C-5.859588285879661 -3.8508953774210033, -5.6227551949470715 -4.1891280841669545, -5.362311101832856 -4.499513267805763 C-5.10186700871864 -4.809898451444571, -4.809898451444594 -5.10186700871862, -4.499513267805787 -5.362311101832836 C-4.189128084166979 -5.622755194947053, -3.850895377421028 -5.859588285879643, -3.5000000000000133 -6.062177826491062 C-3.1491046225789985 -6.264767367102482, -2.774884796001611 -6.439268938068954, -2.3941410032796973 -6.577848345501353 C-2.0133972105577835 -6.716427752933752, -1.6145607442151435 -6.823295662002345, -1.2155372436685306 -6.893654271085453 C-0.8165137431219176 -6.9640128801685615, -0.40517908122285695 -6.999999999999999, -1.9937625952807352e-14 -7 C0.4051790812228171 -7.000000000000001, 0.8165137431218781 -6.964012880168565, 1.2155372436684913 -6.89365427108546 C1.6145607442151044 -6.823295662002354, 2.013397210557745 -6.716427752933763, 2.3941410032796595 -6.5778483455013665 C2.774884796001574 -6.43926893806897, 3.149104622578963 -6.2647673671025, 3.499999999999979 -6.062177826491083 C3.8508953774209953 -5.859588285879665, 4.189128084166947 -5.622755194947077, 4.499513267805756 -5.362311101832862 C4.809898451444564 -5.1018670087186475, 5.101867008718613 -4.809898451444602, 5.362311101832829 -4.499513267805796 C5.622755194947046 -4.189128084166989, 5.859588285879637 -3.8508953774210393, 6.062177826491056 -3.500000000000025 C6.2647673671024755 -3.1491046225790105, 6.439268938068949 -2.774884796001623, 6.577848345501348 -2.3941410032797092 C6.716427752933747 -2.0133972105577955, 6.823295662002342 -1.6145607442151562, 6.893654271085451 -1.2155372436685434 C6.96401288016856 -0.8165137431219307, 6.982275711847575 -0.2025895406114567, 7 -3.2800750208310675e-14 C7.017724288152425 0.2025895406113911, 7.017724288152424 -0.2025895406114242, 7 0" stroke="#333333" stroke-width="2" fill="none" stroke-dasharray="0 0" style=""/><g><path d="M2.5 0 C2.5 0.14470681472244193, 2.487147457203058 0.29161205111496386, 2.46201938253052 0.4341204441673258 C2.436891307857982 0.5766288372196877, 2.3987241974763416 0.7190704323420595, 2.3492315519647713 0.8550503583141718 C2.299738906453201 0.991030284286284, 2.2374169168223177 1.124680222349637, 2.165063509461097 1.2499999999999998 C2.092710102099876 1.3753197776503625, 2.0081268553382365 1.496117172916774, 1.915111107797445 1.6069690242163481 C1.8220953602566536 1.7178208755159223, 1.7178208755159226 1.8220953602566536, 1.6069690242163484 1.915111107797445 C1.4961171729167742 2.0081268553382365, 1.375319777650363 2.0927101020998755, 1.2500000000000002 2.1650635094610964 C1.1246802223496375 2.2374169168223172, 0.9910302842862845 2.2997389064532, 0.8550503583141721 2.349231551964771 C0.7190704323420597 2.3987241974763416, 0.576628837219688 2.436891307857982, 0.43412044416732604 2.46201938253052 C0.291612051114964 2.487147457203058, 0.14470681472244212 2.5, 1.5308084989341916e-16 2.5 C-0.1447068147224418 2.5, -0.2916120511149638 2.487147457203058, -0.43412044416732576 2.46201938253052 C-0.5766288372196877 2.436891307857982, -0.7190704323420595 2.3987241974763416, -0.8550503583141718 2.3492315519647713 C-0.991030284286284 2.299738906453201, -1.124680222349637 2.2374169168223177, -1.2499999999999996 2.165063509461097 C-1.375319777650362 2.092710102099876, -1.4961171729167733 2.008126855338237, -1.6069690242163475 1.9151111077974459 C-1.7178208755159217 1.8220953602566548, -1.822095360256653 1.7178208755159234, -1.9151111077974443 1.6069690242163495 C-2.0081268553382357 1.4961171729167755, -2.0927101020998746 1.3753197776503645, -2.1650635094610955 1.250000000000002 C-2.2374169168223164 1.1246802223496395, -2.2997389064531992 0.9910302842862865, -2.34923155196477 0.8550503583141743 C-2.3987241974763407 0.7190704323420621, -2.436891307857981 0.5766288372196907, -2.4620193825305194 0.434120444167329 C-2.487147457203058 0.29161205111496724, -2.5 0.14470681472244545, -2.5 3.636830773662308e-15 C-2.5 -0.14470681472243818, -2.4871474572030587 -0.2916120511149599, -2.4620193825305208 -0.4341204441673218 C-2.436891307857983 -0.5766288372196837, -2.398724197476343 -0.7190704323420553, -2.3492315519647726 -0.8550503583141675 C-2.2997389064532023 -0.9910302842862798, -2.23741691682232 -1.1246802223496328, -2.165063509461099 -1.2499999999999956 C-2.092710102099878 -1.3753197776503583, -2.00812685533824 -1.4961171729167695, -1.9151111077974488 -1.606969024216344 C-1.8220953602566576 -1.7178208755159183, -1.7178208755159263 -1.82209536025665, -1.6069690242163523 -1.9151111077974416 C-1.4961171729167784 -2.0081268553382334, -1.3753197776503672 -2.0927101020998724, -1.2500000000000047 -2.1650635094610937 C-1.1246802223496422 -2.237416916822315, -0.9910302842862897 -2.299738906453198, -0.8550503583141776 -2.3492315519647686 C-0.7190704323420656 -2.3987241974763394, -0.5766288372196942 -2.4368913078579806, -0.43412044416733236 -2.462019382530519 C-0.29161205111497057 -2.4871474572030574, -0.1447068147224489 -2.4999999999999996, -7.120580697431198e-15 -2.5 C0.14470681472243463 -2.5000000000000004, 0.29161205111495647 -2.487147457203059, 0.4341204441673183 -2.4620193825305217 C0.5766288372196802 -2.436891307857984, 0.7190704323420518 -2.3987241974763442, 0.8550503583141642 -2.349231551964774 C0.9910302842862766 -2.2997389064532037, 1.1246802223496295 -2.2374169168223212, 1.2499999999999925 -2.165063509461101 C1.3753197776503554 -2.0927101020998804, 1.4961171729167668 -2.008126855338242, 1.6069690242163412 -1.915111107797451 C1.7178208755159157 -1.82209536025666, 1.8220953602566472 -1.7178208755159294, 1.915111107797439 -1.6069690242163557 C2.0081268553382308 -1.496117172916782, 2.09271010209987 -1.3753197776503712, 2.1650635094610915 -1.2500000000000089 C2.237416916822313 -1.1246802223496466, 2.299738906453196 -0.9910302842862939, 2.3492315519647673 -0.855050358314182 C2.3987241974763385 -0.71907043234207, 2.4368913078579792 -0.5766288372196986, 2.462019382530518 -0.4341204441673369 C2.487147457203057 -0.29161205111497523, 2.4936698970884197 -0.07235340736123454, 2.5 -1.1714553645825241e-14 C2.5063301029115803 0.07235340736121111, 2.50633010291158 -0.07235340736122292, 2.5 0" stroke="none" stroke-width="0" fill="#9370DB" style=""/><path d="M2.5 0 C2.5 0.14470681472244193, 2.487147457203058 0.29161205111496386, 2.46201938253052 0.4341204441673258 C2.436891307857982 0.5766288372196877, 2.3987241974763416 0.7190704323420595, 2.3492315519647713 0.8550503583141718 C2.299738906453201 0.991030284286284, 2.2374169168223177 1.124680222349637, 2.165063509461097 1.2499999999999998 C2.092710102099876 1.3753197776503625, 2.0081268553382365 1.496117172916774, 1.915111107797445 1.6069690242163481 C1.8220953602566536 1.7178208755159223, 1.7178208755159226 1.8220953602566536, 1.6069690242163484 1.915111107797445 C1.4961171729167742 2.0081268553382365, 1.375319777650363 2.0927101020998755, 1.2500000000000002 2.1650635094610964 C1.1246802223496375 2.2374169168223172, 0.9910302842862845 2.2997389064532, 0.8550503583141721 2.349231551964771 C0.7190704323420597 2.3987241974763416, 0.576628837219688 2.436891307857982, 0.43412044416732604 2.46201938253052 C0.291612051114964 2.487147457203058, 0.14470681472244212 2.5, 1.5308084989341916e-16 2.5 C-0.1447068147224418 2.5, -0.2916120511149638 2.487147457203058, -0.43412044416732576 2.46201938253052 C-0.5766288372196877 2.436891307857982, -0.7190704323420595 2.3987241974763416, -0.8550503583141718 2.3492315519647713 C-0.991030284286284 2.299738906453201, -1.124680222349637 2.2374169168223177, -1.2499999999999996 2.165063509461097 C-1.375319777650362 2.092710102099876, -1.4961171729167733 2.008126855338237, -1.6069690242163475 1.9151111077974459 C-1.7178208755159217 1.8220953602566548, -1.822095360256653 1.7178208755159234, -1.9151111077974443 1.6069690242163495 C-2.0081268553382357 1.4961171729167755, -2.0927101020998746 1.3753197776503645, -2.1650635094610955 1.250000000000002 C-2.2374169168223164 1.1246802223496395, -2.2997389064531992 0.9910302842862865, -2.34923155196477 0.8550503583141743 C-2.3987241974763407 0.7190704323420621, -2.436891307857981 0.5766288372196907, -2.4620193825305194 0.434120444167329 C-2.487147457203058 0.29161205111496724, -2.5 0.14470681472244545, -2.5 3.636830773662308e-15 C-2.5 -0.14470681472243818, -2.4871474572030587 -0.2916120511149599, -2.4620193825305208 -0.4341204441673218 C-2.436891307857983 -0.5766288372196837, -2.398724197476343 -0.7190704323420553, -2.3492315519647726 -0.8550503583141675 C-2.2997389064532023 -0.9910302842862798, -2.23741691682232 -1.1246802223496328, -2.165063509461099 -1.2499999999999956 C-2.092710102099878 -1.3753197776503583, -2.00812685533824 -1.4961171729167695, -1.9151111077974488 -1.606969024216344 C-1.8220953602566576 -1.7178208755159183, -1.7178208755159263 -1.82209536025665, -1.6069690242163523 -1.9151111077974416 C-1.4961171729167784 -2.0081268553382334, -1.3753197776503672 -2.0927101020998724, -1.2500000000000047 -2.1650635094610937 C-1.1246802223496422 -2.237416916822315, -0.9910302842862897 -2.299738906453198, -0.8550503583141776 -2.3492315519647686 C-0.7190704323420656 -2.3987241974763394, -0.5766288372196942 -2.4368913078579806, -0.43412044416733236 -2.462019382530519 C-0.29161205111497057 -2.4871474572030574, -0.1447068147224489 -2.4999999999999996, -7.120580697431198e-15 -2.5 C0.14470681472243463 -2.5000000000000004, 0.29161205111495647 -2.487147457203059, 0.4341204441673183 -2.4620193825305217 C0.5766288372196802 -2.436891307857984, 0.7190704323420518 -2.3987241974763442, 0.8550503583141642 -2.349231551964774 C0.9910302842862766 -2.2997389064532037, 1.1246802223496295 -2.2374169168223212, 1.2499999999999925 -2.165063509461101 C1.3753197776503554 -2.0927101020998804, 1.4961171729167668 -2.008126855338242, 1.6069690242163412 -1.915111107797451 C1.7178208755159157 -1.82209536025666, 1.8220953602566472 -1.7178208755159294, 1.915111107797439 -1.6069690242163557 C2.0081268553382308 -1.496117172916782, 2.09271010209987 -1.3753197776503712, 2.1650635094610915 -1.2500000000000089 C2.237416916822313 -1.1246802223496466, 2.299738906453196 -0.9910302842862939, 2.3492315519647673 -0.855050358314182 C2.3987241974763385 -0.71907043234207, 2.4368913078579792 -0.5766288372196986, 2.462019382530518 -0.4341204441673369 C2.487147457203057 -0.29161205111497523, 2.4936698970884197 -0.07235340736123454, 2.5 -1.1714553645825241e-14 C2.5063301029115803 0.07235340736121111, 2.50633010291158 -0.07235340736122292, 2.5 0" stroke="#9370DB" stroke-width="2" fill="none" stroke-dasharray="0 0" style=""/></g></g></g><g class="node statediagram-note" id="my-svg-state-init----note-9" data-look="classic" transform="translate(727.5, 346)"><g class="basic label-container outer-path"><path d="M-115 -87 L115 -87 L115 87 L-115 87" stroke="none" stroke-width="0" fill="#fff5ad" style=""/><path d="M-115 -87 C-46.08512703123283 -87, 22.82974593753434 -87, 115 -87 M-115 -87 C-42.90959436407363 -87, 29.180811271852747 -87, 115 -87 M115 -87 C115 -30.896728788603404, 115 25.20654242279319, 115 87 M115 -87 C115 -43.652177230349956, 115 -0.304354460699912, 115 87 M115 87 C24.00267418883398 87, -66.99465162233204 87, -115 87 M115 87 C60.13279844048918 87, 5.265596880978364 87, -115 87 M-115 87 C-115 40.13792886351669, -115 -6.724142272966617, -115 -87 M-115 87 C-115 37.28793987642363, -115 -12.424120247152743, -115 -87" stroke="#aaaa33" stroke-width="1.3" fill="none" stroke-dasharray="0 0" style=""/></g><g class="label noteLabel" style="" transform="translate(-100, -72)"><rect/><foreignObject width="200" height="144"><div xmlns="http://www.w3.org/1999/xhtml" style="display: table; white-space: break-spaces; line-height: 1.5; max-width: 200px; text-align: center; width: 200px;"><span class="nodeLabel markdown-node-label"><p>only east-most PE (is_last_pe==1) armed, others inert. init parks on the 1-wavelet header recv when kv_stream_ingress is nonzero</p></span></div></foreignObject></g></g><g class="node statediagram-note" id="my-svg-state-next----note-10" data-look="classic" transform="translate(158, 1017)"><g class="basic label-container outer-path"><path d="M-115 -39 L115 -39 L115 39 L-115 39" stroke="none" stroke-width="0" fill="#fff5ad" style=""/><path d="M-115 -39 C-45.24474173438895 -39, 24.510516531222095 -39, 115 -39 M-115 -39 C-38.06167386042215 -39, 38.87665227915571 -39, 115 -39 M115 -39 C115 -13.558161244169437, 115 11.883677511661126, 115 39 M115 -39 C115 -19.537307731705912, 115 -0.07461546341182412, 115 39 M115 39 C49.23823706946152 39, -16.523525861076962 39, -115 39 M115 39 C55.500703704088416 39, -3.9985925918231686 39, -115 39 M-115 39 C-115 12.024154682774032, -115 -14.951690634451936, -115 -39 M-115 39 C-115 16.16611892821702, -115 -6.667762143565959, -115 -39" stroke="#aaaa33" stroke-width="1.3" fill="none" stroke-dasharray="0 0" style=""/></g><g class="label noteLabel" style="" transform="translate(-100, -24)"><rect/><foreignObject width="200" height="48"><div xmlns="http://www.w3.org/1999/xhtml" style="display: table; white-space: break-spaces; line-height: 1.5; max-width: 200px; text-align: center; width: 200px;"><span class="nodeLabel markdown-node-label"><p>per-step back-edge to main runs steps 0 to N-1</p></span></div></foreignObject></g></g><g class="node statediagram-note" id="my-svg-state-tsc_send----note-11" data-look="classic" transform="translate(788.5033233165741, 1417)"><g class="basic label-container outer-path"><path d="M-115 -51 L115 -51 L115 51 L-115 51" stroke="none" stroke-width="0" fill="#fff5ad" style=""/><path d="M-115 -51 C-67.15480509404078 -51, -19.309610188081564 -51, 115 -51 M-115 -51 C-41.27898720557421 -51, 32.44202558885158 -51, 115 -51 M115 -51 C115 -29.858254862195512, 115 -8.716509724391024, 115 51 M115 -51 C115 -26.87440799984171, 115 -2.7488159996834227, 115 51 M115 51 C37.92030460271468 51, -39.15939079457064 51, -115 51 M115 51 C58.57161799208308 51, 2.1432359841661537 51, -115 51 M-115 51 C-115 11.01517293144466, -115 -28.96965413711068, -115 -51 M-115 51 C-115 21.64033029912819, -115 -7.719339401743618, -115 -51" stroke="#aaaa33" stroke-width="1.3" fill="none" stroke-dasharray="0 0" style=""/></g><g class="label noteLabel" style="" transform="translate(-100, -36)"><rect/><foreignObject width="200" height="72"><div xmlns="http://www.w3.org/1999/xhtml" style="display: table; white-space: break-spaces; line-height: 1.5; max-width: 200px; text-align: center; width: 200px;"><span class="nodeLabel markdown-node-label"><p>KV=1 re-arms init for the next round (per-request loop)</p></span></div></foreignObject></g></g></g></g></g><defs><filter id="my-svg-drop-shadow" height="130%" width="130%"><feDropShadow dx="4" dy="4" stdDeviation="0" flood-opacity="0.06" flood-color="#000000"/></filter></defs><defs><filter id="my-svg-drop-shadow-small" height="150%" width="150%"><feDropShadow dx="2" dy="2" stdDeviation="0" flood-opacity="0.06" flood-color="#000000"/></filter></defs></svg>