<svg xmlns="http://www.w3.org/2000/svg" width="1040" height="1030" viewBox="0 0 1040 1030" font-family="ui-sans-serif,Segoe UI,Helvetica,Arial">
<defs><marker id="ar" viewBox="0 0 10 10" refX="8" refY="5" markerWidth="7" markerHeight="7" orient="auto-start-reverse"><path d="M0 0 L10 5 L0 10 z" fill="#c0392b"/></marker><marker id="ab" viewBox="0 0 10 10" refX="8" refY="5" markerWidth="7" markerHeight="7" orient="auto-start-reverse"><path d="M0 0 L10 5 L0 10 z" fill="#2c6fb0"/></marker><marker id="ag" viewBox="0 0 10 10" refX="8" refY="5" markerWidth="7" markerHeight="7" orient="auto-start-reverse"><path d="M0 0 L10 5 L0 10 z" fill="#2e8b57"/></marker><marker id="ap" viewBox="0 0 10 10" refX="8" refY="5" markerWidth="6" markerHeight="6" orient="auto-start-reverse"><path d="M0 0 L10 5 L0 10 z" fill="#7a3fb0"/></marker><marker id="ao" viewBox="0 0 10 10" refX="8" refY="5" markerWidth="7" markerHeight="7" orient="auto-start-reverse"><path d="M0 0 L10 5 L0 10 z" fill="#a86a1e"/></marker></defs>
<rect width="1040" height="1030" fill="#f7f9fb"/>
<text x="520.0" y="30" font-size="19" font-weight="700" fill="#0d1b26" text-anchor="middle">ht_tail.csl — lm_head mesh-GEMV + top-K sampling (output head)</text>
<text x="520.0" y="50" font-size="12" font-weight="500" fill="#4a5b66" text-anchor="middle">vocab sharded on X, hidden dim on Y. Two orthogonal 2-phase reductions (Y contract, X top-K merge) reuse the SAME reduce colors — repainted + fenced.</text>
<text x="60" y="86" font-size="14" font-weight="700" fill="#0d1b26" text-anchor="start">(1) Spatial layout: tail band 4 x 8 (ref) + the 5 acts</text>
<rect x="686" y="182" width="92" height="184" rx="6" fill="#e6d5f2" fill-opacity="1.0" stroke="#7a3fb0" stroke-width="1.4"/>
<text x="732" y="204" font-size="11" font-weight="700" fill="#4a2a63" text-anchor="middle">last</text>
<text x="732" y="220" font-size="11" font-weight="700" fill="#4a2a63" text-anchor="middle">block</text>
<text x="732" y="238" font-size="9.5" font-weight="500" fill="#4a2a63" text-anchor="middle">ships Z</text>
<text x="209.0" y="120" font-size="10" font-weight="700" fill="#245f96" text-anchor="middle">x_local=0</text>
<text x="209.0" y="134" font-size="9.5" font-weight="600" fill="#245f96" text-anchor="middle">vocab [0,16)</text>
<rect x="150" y="182" width="118" height="40" rx="5" fill="#8fbfe0" fill-opacity="0.9" stroke="#245f96" stroke-width="1.3"/>
<text x="209.0" y="198" font-size="9" font-weight="600" fill="#12222f" text-anchor="middle">lm_head_tile</text>
<text x="209.0" y="210" font-size="8.5" font-weight="500" fill="#2a4a63" text-anchor="middle">[dim_pe,V_pe]</text>
<rect x="150" y="230" width="118" height="40" rx="5" fill="#8fbfe0" fill-opacity="0.5" stroke="#245f96" stroke-width="1.3"/>
<text x="209.0" y="255" font-size="9" font-weight="500" fill="#2a4a63" text-anchor="middle">dim shard (Y)</text>
<rect x="150" y="278" width="118" height="40" rx="5" fill="#8fbfe0" fill-opacity="0.5" stroke="#245f96" stroke-width="1.3"/>
<text x="209.0" y="303" font-size="9" font-weight="500" fill="#2a4a63" text-anchor="middle">partials fp32</text>
<rect x="150" y="326" width="118" height="40" rx="5" fill="#f2d59a" fill-opacity="0.95" stroke="#245f96" stroke-width="1.3"/>
<text x="209.0" y="351" font-size="9" font-weight="700" fill="#5a3a10" text-anchor="middle">ROOT: topK</text>
<text x="337.0" y="120" font-size="10" font-weight="700" fill="#245f96" text-anchor="middle">x_local=1</text>
<text x="337.0" y="134" font-size="9.5" font-weight="600" fill="#245f96" text-anchor="middle">vocab [16,32)</text>
<rect x="278" y="182" width="118" height="40" rx="5" fill="#8fbfe0" fill-opacity="0.9" stroke="#245f96" stroke-width="1.3"/>
<text x="337.0" y="198" font-size="9" font-weight="600" fill="#12222f" text-anchor="middle">lm_head_tile</text>
<text x="337.0" y="210" font-size="8.5" font-weight="500" fill="#2a4a63" text-anchor="middle">[dim_pe,V_pe]</text>
<rect x="278" y="230" width="118" height="40" rx="5" fill="#8fbfe0" fill-opacity="0.5" stroke="#245f96" stroke-width="1.3"/>
<text x="337.0" y="255" font-size="9" font-weight="500" fill="#2a4a63" text-anchor="middle">dim shard (Y)</text>
<rect x="278" y="278" width="118" height="40" rx="5" fill="#8fbfe0" fill-opacity="0.5" stroke="#245f96" stroke-width="1.3"/>
<text x="337.0" y="303" font-size="9" font-weight="500" fill="#2a4a63" text-anchor="middle">partials fp32</text>
<rect x="278" y="326" width="118" height="40" rx="5" fill="#f2d59a" fill-opacity="0.95" stroke="#245f96" stroke-width="1.3"/>
<text x="337.0" y="351" font-size="9" font-weight="700" fill="#5a3a10" text-anchor="middle">ROOT: topK</text>
<text x="465.0" y="120" font-size="10" font-weight="700" fill="#245f96" text-anchor="middle">x_local=2</text>
<text x="465.0" y="134" font-size="9.5" font-weight="600" fill="#245f96" text-anchor="middle">vocab [32,48)</text>
<rect x="406" y="182" width="118" height="40" rx="5" fill="#8fbfe0" fill-opacity="0.9" stroke="#245f96" stroke-width="1.3"/>
<text x="465.0" y="198" font-size="9" font-weight="600" fill="#12222f" text-anchor="middle">lm_head_tile</text>
<text x="465.0" y="210" font-size="8.5" font-weight="500" fill="#2a4a63" text-anchor="middle">[dim_pe,V_pe]</text>
<rect x="406" y="230" width="118" height="40" rx="5" fill="#8fbfe0" fill-opacity="0.5" stroke="#245f96" stroke-width="1.3"/>
<text x="465.0" y="255" font-size="9" font-weight="500" fill="#2a4a63" text-anchor="middle">dim shard (Y)</text>
<rect x="406" y="278" width="118" height="40" rx="5" fill="#8fbfe0" fill-opacity="0.5" stroke="#245f96" stroke-width="1.3"/>
<text x="465.0" y="303" font-size="9" font-weight="500" fill="#2a4a63" text-anchor="middle">partials fp32</text>
<rect x="406" y="326" width="118" height="40" rx="5" fill="#f2d59a" fill-opacity="0.95" stroke="#245f96" stroke-width="1.3"/>
<text x="465.0" y="351" font-size="9" font-weight="700" fill="#5a3a10" text-anchor="middle">ROOT: topK</text>
<text x="593.0" y="120" font-size="10" font-weight="700" fill="#245f96" text-anchor="middle">x_local=3</text>
<text x="593.0" y="134" font-size="9.5" font-weight="600" fill="#245f96" text-anchor="middle">vocab [48,64)</text>
<rect x="534" y="182" width="118" height="40" rx="5" fill="#8fbfe0" fill-opacity="0.9" stroke="#245f96" stroke-width="1.3"/>
<text x="593.0" y="198" font-size="9" font-weight="600" fill="#12222f" text-anchor="middle">lm_head_tile</text>
<text x="593.0" y="210" font-size="8.5" font-weight="500" fill="#2a4a63" text-anchor="middle">[dim_pe,V_pe]</text>
<rect x="534" y="230" width="118" height="40" rx="5" fill="#8fbfe0" fill-opacity="0.5" stroke="#245f96" stroke-width="1.3"/>
<text x="593.0" y="255" font-size="9" font-weight="500" fill="#2a4a63" text-anchor="middle">dim shard (Y)</text>
<rect x="534" y="278" width="118" height="40" rx="5" fill="#8fbfe0" fill-opacity="0.5" stroke="#245f96" stroke-width="1.3"/>
<text x="593.0" y="303" font-size="9" font-weight="500" fill="#2a4a63" text-anchor="middle">partials fp32</text>
<rect x="534" y="326" width="118" height="40" rx="5" fill="#f2d59a" fill-opacity="0.95" stroke="#245f96" stroke-width="1.3"/>
<text x="593.0" y="351" font-size="8.5" font-weight="700" fill="#5a3a10" text-anchor="middle">ROOT+sample+emit</text>
<line x1="134" y1="182" x2="134" y2="366" stroke="#2c6fb0" stroke-width="2" marker-end="url(#ab)"/>
<text x="110" y="274.0" font-size="9.5" font-weight="600" fill="#2c6fb0" text-anchor="middle">dim (Y)</text>
<text x="110" y="287.0" font-size="8.5" font-weight="500" fill="#2c6fb0" text-anchor="middle">contract</text>
<line x1="150" y1="106" x2="652" y2="106" stroke="#245f96" stroke-width="2" marker-end="url(#ab)"/>
<text x="406.0" y="102" font-size="9.5" font-weight="700" fill="#245f96" text-anchor="middle">vocab (X)</text>
<line x1="686" y1="182" x2="686" y2="166" stroke="#a86a1e" stroke-width="2"/>
<line x1="684" y1="166" x2="654" y2="166" stroke="#a86a1e" stroke-width="2.6" marker-end="url(#ao)"/>
<line x1="275.0" y1="166" x2="271.0" y2="166" stroke="#a86a1e" stroke-width="2.0" marker-end="url(#ao)"/>
<line x1="403.0" y1="166" x2="399.0" y2="166" stroke="#a86a1e" stroke-width="2.0" marker-end="url(#ao)"/>
<line x1="531.0" y1="166" x2="527.0" y2="166" stroke="#a86a1e" stroke-width="2.0" marker-end="url(#ao)"/>
<text x="406.0" y="152" font-size="10" font-weight="700" fill="#a86a1e" text-anchor="middle">(1) Z drain  E-&gt;W multicast (z_drain_color, IQ0)</text>
<line x1="209.0" y1="320" x2="209.0" y2="330" stroke="#2c6fb0" stroke-width="1.8" stroke-dasharray="5 3" marker-end="url(#ab)"/>
<line x1="337.0" y1="320" x2="337.0" y2="330" stroke="#2c6fb0" stroke-width="1.8" stroke-dasharray="5 3" marker-end="url(#ab)"/>
<line x1="465.0" y1="320" x2="465.0" y2="330" stroke="#2c6fb0" stroke-width="1.8" stroke-dasharray="5 3" marker-end="url(#ab)"/>
<line x1="593.0" y1="320" x2="593.0" y2="330" stroke="#2c6fb0" stroke-width="1.8" stroke-dasharray="5 3" marker-end="url(#ab)"/>
<text x="150" y="382" font-size="10" font-weight="700" fill="#2c6fb0" text-anchor="start">(2)/(3) Y 2-phase reduce: RMSNorm sumsq (+bcast) &amp;</text>
<text x="150" y="396" font-size="10" font-weight="700" fill="#2c6fb0" text-anchor="start">lm_head dim-contract (no bcast) -&gt; logits on root row</text>
<line x1="269" y1="346.0" x2="277" y2="346.0" stroke="#c0392b" stroke-width="2.4" marker-end="url(#ar)"/>
<line x1="277" y1="355.0" x2="269" y2="355.0" stroke="#c0392b" stroke-width="1.6" marker-end="url(#ar)"/>
<line x1="397" y1="346.0" x2="405" y2="346.0" stroke="#c0392b" stroke-width="2.4" marker-end="url(#ar)"/>
<line x1="405" y1="355.0" x2="397" y2="355.0" stroke="#c0392b" stroke-width="1.6" marker-end="url(#ar)"/>
<line x1="525" y1="346.0" x2="533" y2="346.0" stroke="#c0392b" stroke-width="2.4" marker-end="url(#ar)"/>
<line x1="533" y1="355.0" x2="525" y2="355.0" stroke="#c0392b" stroke-width="1.6" marker-end="url(#ar)"/>
<text x="150" y="416" font-size="10" font-weight="700" fill="#c0392b" text-anchor="start">(4) X 2-phase MERGE-reduce (top-K lists, not a sum) — SAME reduce</text>
<text x="150" y="430" font-size="10" font-weight="700" fill="#c0392b" text-anchor="start">colors, repainted Y-&gt;X, fenced by tail_xready barrier</text>
<line x1="593.0" y1="368" x2="593.0" y2="412" stroke="#2e8b57" stroke-width="2.6" marker-end="url(#ag)"/>
<rect x="541.0" y="414" width="104" height="26" rx="5" fill="#bfe0c4" fill-opacity="1.0" stroke="#2e8b57" stroke-width="1.4"/>
<text x="593.0" y="431" font-size="10.5" font-weight="700" fill="#12222f" text-anchor="middle">mux -&gt; host</text>
<text x="651.0" y="431" font-size="9.5" font-weight="700" fill="#2e8b57" text-anchor="start">(5) topK val+arg+sampled token (OQ0)</text>
<line x1="60" y1="462" x2="86" y2="462" stroke="#a86a1e" stroke-width="2.2" marker-end="url(#ao)"/>
<text x="94" y="466" font-size="10.5" font-weight="500" fill="#26333c" text-anchor="start">P-2 router multicast: last block ships Z; multicasts E-&gt;W, each Y-PE taps its dim shard (tail_init route / z_recv).</text>
<line x1="60" y1="482" x2="86" y2="482" stroke="#2c6fb0" stroke-width="2.2" marker-end="url(#ab)"/>
<text x="94" y="486" font-size="10.5" font-weight="500" fill="#26333c" text-anchor="start">P-1 two-phase all-reduce on Y: RMSNorm sumsq (with bcast) + lm_head dim-contract (no bcast) (tail_reduce_2phase).</text>
<line x1="60" y1="502" x2="86" y2="502" stroke="#c0392b" stroke-width="2.2" marker-end="url(#ar)"/>
<text x="94" y="506" font-size="10.5" font-weight="500" fill="#26333c" text-anchor="start">P-1 two-phase reduce on X with a MERGE combiner: per-column top-K merged to global (tail_topk_mergereduce_x); G-3 repaint + G-8 fence.</text>
<line x1="60" y1="522" x2="86" y2="522" stroke="#2e8b57" stroke-width="2.2" marker-end="url(#ag)"/>
<text x="94" y="526" font-size="10.5" font-weight="500" fill="#26333c" text-anchor="start">P-6 p2p south emit: east-most root PE -&gt; mux -&gt; host (logits_south_color, OQ0). One token per request.</text>
<line x1="40" y1="554" x2="1000" y2="554" stroke="#dce4ea" stroke-width="1.4"/>
<text x="60" y="574" font-size="14" font-weight="700" fill="#0d1b26" text-anchor="start">(2) Task state machine — one-shot per request (prefill = ONE token)</text>
<rect x="60" y="590" width="205" height="58" rx="6" fill="#f7e3c8" fill-opacity="1.0" stroke="#a86a1e" stroke-width="1.6"/><text x="162.5" y="609" font-size="12" font-weight="700" fill="#0d1b26" text-anchor="middle">tail_init</text><text x="162.5" y="625.0" font-size="9" font-weight="500" fill="#34434d" text-anchor="middle">derive coords + chain ids</text><text x="162.5" y="637.5" font-size="9" font-weight="500" fill="#34434d" text-anchor="middle">paint Y/Z/south/barrier routes</text><text x="162.5" y="650.0" font-size="9" font-weight="500" fill="#34434d" text-anchor="middle">seed PRNG; @activate(tail_main)</text>
<rect x="305" y="590" width="205" height="58" rx="6" fill="#dbeafe" fill-opacity="1.0" stroke="#245f96" stroke-width="1.6"/><text x="407.5" y="609" font-size="12" font-weight="700" fill="#0d1b26" text-anchor="middle">tail_main: drain Z</text><text x="407.5" y="625.0" font-size="9" font-weight="500" fill="#34434d" text-anchor="middle">park on z_recv (event-driven)</text><text x="407.5" y="637.5" font-size="9" font-weight="500" fill="#34434d" text-anchor="middle">Z multicasts E-&gt;W; tap dim shard</text>
<rect x="550" y="590" width="205" height="58" rx="6" fill="#dbeafe" fill-opacity="1.0" stroke="#245f96" stroke-width="1.6"/><text x="652.5" y="609" font-size="12" font-weight="700" fill="#0d1b26" text-anchor="middle">tail_final_rmsnorm</text><text x="652.5" y="625.0" font-size="9" font-weight="500" fill="#34434d" text-anchor="middle">fp32 sumsq -&gt; Y 2-phase</text><text x="652.5" y="637.5" font-size="9" font-weight="500" fill="#34434d" text-anchor="middle">all-reduce (+bcast); norm in place</text>
<rect x="795" y="590" width="205" height="58" rx="6" fill="#dbeafe" fill-opacity="1.0" stroke="#245f96" stroke-width="1.6"/><text x="897.5" y="609" font-size="12" font-weight="700" fill="#0d1b26" text-anchor="middle">tail_lm_head_matvec</text><text x="897.5" y="625.0" font-size="9" font-weight="500" fill="#34434d" text-anchor="middle">local @fmachs GEMV -&gt;</text><text x="897.5" y="637.5" font-size="9" font-weight="500" fill="#34434d" text-anchor="middle">partials[V_pe, bsz] (fp32)</text>
<line x1="265" y1="619.0" x2="303" y2="619.0" stroke="#5a6b76" stroke-width="1.8" marker-end="url(#ar)"/>
<line x1="510" y1="619.0" x2="548" y2="619.0" stroke="#5a6b76" stroke-width="1.8" marker-end="url(#ar)"/>
<line x1="755" y1="619.0" x2="793" y2="619.0" stroke="#5a6b76" stroke-width="1.8" marker-end="url(#ar)"/>
<rect x="60" y="690" width="205" height="58" rx="6" fill="#dbeafe" fill-opacity="1.0" stroke="#245f96" stroke-width="1.6"/><text x="162.5" y="709" font-size="12" font-weight="700" fill="#0d1b26" text-anchor="middle">tail_logits_reduce</text><text x="162.5" y="725.0" font-size="9" font-weight="500" fill="#34434d" text-anchor="middle">Y 2-phase reduce (no bcast)</text><text x="162.5" y="737.5" font-size="9" font-weight="500" fill="#34434d" text-anchor="middle">widen DSD to bsz*V_pe -&gt; root row</text>
<rect x="305" y="690" width="205" height="58" rx="6" fill="#faddd8" fill-opacity="1.0" stroke="#c0392b" stroke-width="1.6"/><text x="407.5" y="709" font-size="12" font-weight="700" fill="#0d1b26" text-anchor="middle">write_X_routes + barrier</text><text x="407.5" y="725.0" font-size="9" font-weight="500" fill="#34434d" text-anchor="middle">repaint reduce colors Y-&gt;X</text><text x="407.5" y="737.5" font-size="9" font-weight="500" fill="#34434d" text-anchor="middle">tail_xready &#x27;go&#x27; fence (G-8)</text>
<rect x="550" y="690" width="205" height="58" rx="6" fill="#faddd8" fill-opacity="1.0" stroke="#c0392b" stroke-width="1.6"/><text x="652.5" y="709" font-size="12" font-weight="700" fill="#0d1b26" text-anchor="middle">tail_local_topk</text><text x="652.5" y="725.0" font-size="9" font-weight="500" fill="#34434d" text-anchor="middle">K masked-argmax over V_pe</text><text x="652.5" y="737.5" font-size="9" font-weight="500" fill="#34434d" text-anchor="middle">slice; mask padded vocab</text>
<rect x="795" y="690" width="205" height="58" rx="6" fill="#faddd8" fill-opacity="1.0" stroke="#c0392b" stroke-width="1.6"/><text x="897.5" y="709" font-size="12" font-weight="700" fill="#0d1b26" text-anchor="middle">tail_topk_mergereduce_x</text><text x="897.5" y="725.0" font-size="9" font-weight="500" fill="#34434d" text-anchor="middle">X 2-phase reduce; per-hop</text><text x="897.5" y="737.5" font-size="9" font-weight="500" fill="#34434d" text-anchor="middle">K-list MERGE; bcast global topK</text>
<path d="M 897.5 648 L 897.5 666 L 162.5 666 L 162.5 688" fill="none" stroke="#5a6b76" stroke-width="1.8" marker-end="url(#ar)"/>
<text x="430" y="662" font-size="9.5" font-weight="600" fill="#c0392b" text-anchor="start">root row only (y==root_2nd_phase)</text>
<line x1="265" y1="719.0" x2="303" y2="719.0" stroke="#5a6b76" stroke-width="1.8" marker-end="url(#ar)"/>
<line x1="510" y1="719.0" x2="548" y2="719.0" stroke="#5a6b76" stroke-width="1.8" marker-end="url(#ar)"/>
<line x1="755" y1="719.0" x2="793" y2="719.0" stroke="#5a6b76" stroke-width="1.8" marker-end="url(#ar)"/>
<rect x="60" y="790" width="205" height="58" rx="6" fill="#faddd8" fill-opacity="1.0" stroke="#c0392b" stroke-width="1.6"/><text x="162.5" y="809" font-size="12" font-weight="700" fill="#0d1b26" text-anchor="middle">write_Y_routes (restore)</text><text x="162.5" y="825.0" font-size="9" font-weight="500" fill="#34434d" text-anchor="middle">repaint reduce colors X-&gt;Y</text><text x="162.5" y="837.5" font-size="9" font-weight="500" fill="#34434d" text-anchor="middle">for the next request</text>
<rect x="305" y="790" width="205" height="58" rx="6" fill="#d7efdb" fill-opacity="1.0" stroke="#2e8b57" stroke-width="1.6"/><text x="407.5" y="809" font-size="12" font-weight="700" fill="#0d1b26" text-anchor="middle">tail_sample_token</text><text x="407.5" y="825.0" font-size="9" font-weight="500" fill="#34434d" text-anchor="middle">temp-&gt;softmax-&gt;top-p-&gt;</text><text x="407.5" y="837.5" font-size="9" font-weight="500" fill="#34434d" text-anchor="middle">categorical PRNG (1 PE)</text>
<rect x="550" y="790" width="205" height="58" rx="6" fill="#d7efdb" fill-opacity="1.0" stroke="#2e8b57" stroke-width="1.6"/><text x="652.5" y="809" font-size="12" font-weight="700" fill="#0d1b26" text-anchor="middle">predtok X-broadcast</text><text x="652.5" y="825.0" font-size="9" font-weight="500" fill="#34434d" text-anchor="middle">sampled id -&gt; every root col</text><text x="652.5" y="837.5" font-size="9" font-weight="500" fill="#34434d" text-anchor="middle">(east-most needs it)</text>
<rect x="795" y="790" width="205" height="58" rx="6" fill="#d7efdb" fill-opacity="1.0" stroke="#2e8b57" stroke-width="1.6"/><text x="897.5" y="809" font-size="12" font-weight="700" fill="#0d1b26" text-anchor="middle">south emit -&gt; mux -&gt; host</text><text x="897.5" y="825.0" font-size="9" font-weight="500" fill="#34434d" text-anchor="middle">east-most root PE: topK val+arg</text><text x="897.5" y="837.5" font-size="9" font-weight="500" fill="#34434d" text-anchor="middle">+ token (OQ0); TSC burst</text>
<path d="M 897.5 748 L 897.5 766 L 162.5 766 L 162.5 788" fill="none" stroke="#5a6b76" stroke-width="1.8" marker-end="url(#ar)"/>
<line x1="265" y1="819.0" x2="303" y2="819.0" stroke="#5a6b76" stroke-width="1.8" marker-end="url(#ar)"/>
<line x1="510" y1="819.0" x2="548" y2="819.0" stroke="#5a6b76" stroke-width="1.8" marker-end="url(#ar)"/>
<line x1="755" y1="819.0" x2="793" y2="819.0" stroke="#5a6b76" stroke-width="1.8" marker-end="url(#ar)"/>
<path d="M 897.5 848 L 897.5 870 L 285 870 L 285 656 L 340 656 L 340 648" fill="none" stroke="#a86a1e" stroke-width="1.8" stroke-dasharray="6 4" marker-end="url(#ar)"/>
<text x="652.5" y="886" font-size="9.5" font-weight="600" fill="#a86a1e" text-anchor="middle">@activate(tail_main): re-park on z_recv for the next request</text>
<text x="60" y="1000" font-size="10" font-weight="400" fill="#6a7883" text-anchor="start">colors/queues: z_drain=IQ0 (16) - reduce 1st/2nd + bcast = IQ/OQ 2-6 (shared Y &amp; repainted X) - tail_xready = IQ/OQ 1 - logits_south = OQ0 - kickoff = IQ7 (TSC PE).</text>
<text x="60" y="1016" font-size="10" font-weight="400" fill="#6a7883" text-anchor="start">Count-exactness = correctness (mismatch =&gt; silent hang).</text>
</svg>