<svg id="my-svg" width="100%" xmlns="http://www.w3.org/2000/svg" xmlns:xlink="http://www.w3.org/1999/xlink" class="statediagram" style="max-width: 2058.57px; background-color: white;" viewBox="0 0 2058.56640625 2001" role="graphics-document document" aria-roledescription="stateDiagram"><style>#my-svg{font-family:"trebuchet ms",verdana,arial,sans-serif;font-size:16px;fill:#333;}@keyframes edge-animation-frame{from{stroke-dashoffset:0;}}@keyframes dash{to{stroke-dashoffset:0;}}#my-svg .edge-animation-slow{stroke-dasharray:9,5!important;stroke-dashoffset:900;animation:dash 50s linear infinite;stroke-linecap:round;}#my-svg .edge-animation-fast{stroke-dasharray:9,5!important;stroke-dashoffset:900;animation:dash 20s linear infinite;stroke-linecap:round;}#my-svg .error-icon{fill:#552222;}#my-svg .error-text{fill:#552222;stroke:#552222;}#my-svg .edge-thickness-normal{stroke-width:1px;}#my-svg .edge-thickness-thick{stroke-width:3.5px;}#my-svg .edge-pattern-solid{stroke-dasharray:0;}#my-svg .edge-thickness-invisible{stroke-width:0;fill:none;}#my-svg .edge-pattern-dashed{stroke-dasharray:3;}#my-svg .edge-pattern-dotted{stroke-dasharray:2;}#my-svg .marker{fill:#333333;stroke:#333333;}#my-svg .marker.cross{stroke:#333333;}#my-svg svg{font-family:"trebuchet ms",verdana,arial,sans-serif;font-size:16px;}#my-svg p{margin:0;}#my-svg defs [id$="-barbEnd"]{fill:#333333;stroke:#333333;}#my-svg g.stateGroup text{fill:#9370DB;stroke:none;font-size:10px;}#my-svg g.stateGroup text{fill:#333;stroke:none;font-size:10px;}#my-svg g.stateGroup .state-title{font-weight:bolder;fill:#131300;}#my-svg g.stateGroup rect{fill:#ECECFF;stroke:#9370DB;}#my-svg g.stateGroup line{stroke:#333333;stroke-width:1;}#my-svg .transition{stroke:#333333;stroke-width:1;fill:none;}#my-svg .stateGroup .composit{fill:white;border-bottom:1px;}#my-svg .stateGroup .alt-composit{fill:#e0e0e0;border-bottom:1px;}#my-svg .state-note{stroke:#aaaa33;fill:#fff5ad;}#my-svg .state-note text{fill:black;stroke:none;font-size:10px;}#my-svg .stateLabel .box{stroke:none;stroke-width:0;fill:#ECECFF;opacity:0.5;}#my-svg .edgeLabel .label rect{fill:#ECECFF;opacity:0.5;}#my-svg .edgeLabel{background-color:rgba(232,232,232, 0.8);text-align:center;}#my-svg .edgeLabel p{background-color:rgba(232,232,232, 0.8);}#my-svg .edgeLabel rect{opacity:0.5;background-color:rgba(232,232,232, 0.8);fill:rgba(232,232,232, 0.8);}#my-svg .edgeLabel .label text{fill:#333;}#my-svg .label div .edgeLabel{color:#333;}#my-svg .stateLabel text{fill:#131300;font-size:10px;font-weight:bold;}#my-svg .node circle.state-start{fill:#333333;stroke:#333333;}#my-svg .node .fork-join{fill:#333333;stroke:#333333;}#my-svg .node circle.state-end{fill:#9370DB;stroke:white;stroke-width:1.5;}#my-svg .end-state-inner{fill:white;stroke-width:1.5;}#my-svg .node rect{fill:#ECECFF;stroke:#9370DB;stroke-width:1px;}#my-svg .node polygon{fill:#ECECFF;stroke:#9370DB;stroke-width:1px;}#my-svg [id$="-barbEnd"]{fill:#333333;}#my-svg .statediagram-cluster rect{fill:#ECECFF;stroke:#9370DB;stroke-width:1px;}#my-svg .cluster-label,#my-svg .nodeLabel{color:#131300;}#my-svg .statediagram-cluster rect.outer{rx:5px;ry:5px;}#my-svg .statediagram-state .divider{stroke:#9370DB;}#my-svg .statediagram-state .title-state{rx:5px;ry:5px;}#my-svg .statediagram-cluster.statediagram-cluster .inner{fill:white;}#my-svg .statediagram-cluster.statediagram-cluster-alt .inner{fill:#f0f0f0;}#my-svg .statediagram-cluster .inner{rx:0;ry:0;}#my-svg .statediagram-state rect.basic{rx:5px;ry:5px;}#my-svg .statediagram-state rect.divider{stroke-dasharray:10,10;fill:#f0f0f0;}#my-svg .note-edge{stroke-dasharray:5;}#my-svg .statediagram-note rect{fill:#fff5ad;stroke:#aaaa33;stroke-width:1px;rx:0;ry:0;}#my-svg .statediagram-note rect{fill:#fff5ad;stroke:#aaaa33;stroke-width:1px;rx:0;ry:0;}#my-svg .statediagram-note text{fill:black;}#my-svg .statediagram-note .nodeLabel{color:black;}#my-svg .statediagram .edgeLabel{color:red;}#my-svg [id$="-dependencyStart"],#my-svg [id$="-dependencyEnd"]{fill:#333333;stroke:#333333;stroke-width:1;}#my-svg .statediagramTitleText{text-anchor:middle;font-size:18px;fill:#333;}#my-svg [data-look="neo"].statediagram-cluster rect{fill:#ECECFF;stroke:#9370DB;stroke-width:1;}#my-svg [data-look="neo"].statediagram-cluster rect.outer{rx:5px;ry:5px;filter:drop-shadow(1px 2px 2px rgba(185, 185, 185, 1));}#my-svg .node .neo-node{stroke:#9370DB;}#my-svg [data-look="neo"].node rect,#my-svg [data-look="neo"].cluster rect,#my-svg [data-look="neo"].node polygon{stroke:#9370DB;filter:drop-shadow(1px 2px 2px rgba(185, 185, 185, 1));}#my-svg [data-look="neo"].swimlane.cluster rect{filter:none;}#my-svg [data-look="neo"].node path{stroke:#9370DB;stroke-width:1px;}#my-svg [data-look="neo"].node .outer-path{filter:drop-shadow(1px 2px 2px rgba(185, 185, 185, 1));}#my-svg [data-look="neo"].node .neo-line path{stroke:#9370DB;filter:none;}#my-svg [data-look="neo"].node circle{stroke:#9370DB;filter:drop-shadow(1px 2px 2px rgba(185, 185, 185, 1));}#my-svg [data-look="neo"].node circle .state-start{fill:#000000;}#my-svg [data-look="neo"].icon-shape .icon{fill:#9370DB;filter:drop-shadow(1px 2px 2px rgba(185, 185, 185, 1));}#my-svg [data-look="neo"].icon-shape .icon-neo path{stroke:#9370DB;filter:drop-shadow(1px 2px 2px rgba(185, 185, 185, 1));}#my-svg :root{--mermaid-font-family:"trebuchet ms",verdana,arial,sans-serif;}</style><g><defs><marker id="my-svg_stateDiagram-barbEnd" refX="19" refY="7" markerWidth="20" markerHeight="14" markerUnits="userSpaceOnUse" orient="auto"><path d="M 19,7 L9,13 L14,7 L9,1 Z"/></marker></defs><g class="root"><g class="clusters"><g class="statediagram-state statediagram-cluster" id="my-svg-state-PerRequest-3" data-id="PerRequest" data-look="classic"><g><rect class="outer" x="8" y="771" width="1722.56640625" height="1222" data-look="classic"/></g><g class="cluster-label" transform="translate(827.033203125, 772)"><foreignObject width="84.5" height="24"><div xmlns="http://www.w3.org/1999/xhtml" style="display: table-cell; white-space: nowrap; line-height: 1.5;"><span class="nodeLabel"><p>PerRequest</p></span></div></foreignObject></g><rect class="inner" x="8" y="797" width="1722.56640625" height="1192"/></g><g class="note-cluster" id="my-svg-state-shift_done----parent-17"><rect x="1750.56640625" y="1257" width="300" height="274" fill="none"/></g><g class="note-cluster" id="my-svg-state-compare_record----parent-18"><rect x="1750.56640625" y="983" width="300" height="176" fill="none"/></g><g class="note-cluster" id="my-svg-state-forward----parent-19"><rect x="1750.56640625" y="1653" width="300" height="128" fill="none"/></g><g class="note-cluster" id="my-svg-state-launch_shift----parent-20"><rect x="424.25" y="545" width="300" height="128" fill="none"/></g><g class="statediagram-state statediagram-cluster statediagram-cluster-alt" id="my-svg-state-Rotation-3" data-id="Rotation" data-look="classic"><g><rect class="outer" x="792.8203125" y="796" width="917.74609375" height="710" data-look="classic"/></g><g class="cluster-label" transform="translate(1221.896484375, 797)"><foreignObject width="59.59375" height="24"><div xmlns="http://www.w3.org/1999/xhtml" style="display: table-cell; white-space: nowrap; line-height: 1.5;"><span class="nodeLabel"><p>Rotation</p></span></div></foreignObject></g><rect class="inner" x="792.8203125" y="822" width="917.74609375" height="680"/></g><g class="statediagram-state statediagram-cluster statediagram-cluster-alt" id="my-svg-state-PerChunk-7" data-id="PerChunk" data-look="classic"><g><rect class="outer" x="108.98046875" y="1282" width="663.83984375" height="686" data-look="classic"/></g><g class="cluster-label" transform="translate(405.322265625, 1283)"><foreignObject width="71.15625" height="24"><div xmlns="http://www.w3.org/1999/xhtml" style="display: table-cell; white-space: nowrap; line-height: 1.5;"><span class="nodeLabel"><p>PerChunk</p></span></div></foreignObject></g><rect class="inner" x="108.98046875" y="1308" width="663.83984375" height="656"/></g></g><g class="edgePaths"><path d="M1194.227,84.5L1194.227,105.083C1194.227,125.667,1194.227,166.833,1194.227,197.583C1194.227,228.333,1194.227,248.667,1194.227,258.833L1194.227,269" id="my-svg-edge0" class="edge-thickness-normal edge-pattern-solid transition" style="fill:none;;;fill:none" data-edge="true" data-et="edge" data-id="edge0" data-points="W3sieCI6MTE5NC4yMjY1NjI1LCJ5Ijo4NC41fSx7IngiOjExOTQuMjI2NTYyNSwieSI6MjA4fSx7IngiOjExOTQuMjI2NTYyNSwieSI6MjY5fV0=" data-look="classic" marker-end="url(#my-svg_stateDiagram-barbEnd)"/><path d="M1215.966,309L1224.843,317.167C1233.719,325.333,1251.473,341.667,1260.35,358C1269.227,374.333,1269.227,390.667,1269.227,398.833L1269.227,407" id="my-svg-edge1" class="edge-thickness-normal edge-pattern-solid transition" style="fill:none;;;fill:none" data-edge="true" data-et="edge" data-id="edge1" data-points="W3sieCI6MTIxNS45NjU2OTI5MzQ3ODI1LCJ5IjozMDl9LHsieCI6MTI2OS4yMjY1NjI1LCJ5IjozNTh9LHsieCI6MTI2OS4yMjY1NjI1LCJ5Ijo0MDd9XQ==" data-look="classic" marker-end="url(#my-svg_stateDiagram-barbEnd)"/><path d="M1269.227,447L1269.227,455.167C1269.227,463.333,1269.227,479.667,1269.227,496C1269.227,512.333,1269.227,528.667,1269.227,544.167C1269.227,559.667,1269.227,574.333,1269.227,581.667L1269.227,589" id="my-svg-edge2" class="edge-thickness-normal edge-pattern-solid transition" style="fill:none;;;fill:none" data-edge="true" data-et="edge" data-id="edge2" data-points="W3sieCI6MTI2OS4yMjY1NjI1LCJ5Ijo0NDd9LHsieCI6MTI2OS4yMjY1NjI1LCJ5Ijo0OTZ9LHsieCI6MTI2OS4yMjY1NjI1LCJ5Ijo1NDV9LHsieCI6MTI2OS4yMjY1NjI1LCJ5Ijo1ODl9XQ==" data-look="classic" marker-end="url(#my-svg_stateDiagram-barbEnd)"/><path d="M1210.573,861L1235.948,871.167C1261.322,881.333,1312.071,901.667,1337.446,922C1362.82,942.333,1362.82,962.667,1343.33,984.167C1323.839,1005.667,1284.857,1028.333,1265.367,1039.667L1245.876,1051" id="my-svg-edge3" class="edge-thickness-normal edge-pattern-solid transition" style="fill:none;;;fill:none" data-edge="true" data-et="edge" data-id="edge3" data-points="W3sieCI6MTIxMC41NzMzMDI0NjkxMzU4LCJ5Ijo4NjF9LHsieCI6MTM2Mi44MjAzMTI1LCJ5Ijo5MjJ9LHsieCI6MTM2Mi44MjAzMTI1LCJ5Ijo5ODN9LHsieCI6MTI0NS44NzU4ODc3ODQwOTEsInkiOjEwNTF9XQ==" data-look="classic" marker-end="url(#my-svg_stateDiagram-barbEnd)"/><path d="M1156.252,861L1154.014,871.167C1151.775,881.333,1147.298,901.667,1145.059,922C1142.82,942.333,1142.82,962.667,1151.663,984.167C1160.506,1005.667,1178.191,1028.333,1187.033,1039.667L1195.876,1051" id="my-svg-edge4" class="edge-thickness-normal edge-pattern-solid transition" style="fill:none;;;fill:none" data-edge="true" data-et="edge" data-id="edge4" data-points="W3sieCI6MTE1Ni4yNTIzMTQ4MTQ4MTQ4LCJ5Ijo4NjF9LHsieCI6MTE0Mi44MjAzMTI1LCJ5Ijo5MjJ9LHsieCI6MTE0Mi44MjAzMTI1LCJ5Ijo5ODN9LHsieCI6MTE5NS44NzU4ODc3ODQwOTEsInkiOjEwNTF9XQ==" data-look="classic" marker-end="url(#my-svg_stateDiagram-barbEnd)"/><path d="M1274.605,1091L1310.375,1102.333C1346.145,1113.667,1417.686,1136.333,1453.456,1155.833C1489.227,1175.333,1489.227,1191.667,1489.227,1208C1489.227,1224.333,1489.227,1240.667,1489.227,1253C1489.227,1265.333,1489.227,1273.667,1500.98,1293.167C1512.732,1312.667,1536.238,1343.333,1547.991,1358.667L1559.744,1374" id="my-svg-edge5" class="edge-thickness-normal edge-pattern-solid transition" style="fill:none;;;fill:none" data-edge="true" data-et="edge" data-id="edge5" data-points="W3sieCI6MTI3NC42MDQ1ODA5NjU5MDksInkiOjEwOTF9LHsieCI6MTQ4OS4yMjY1NjI1LCJ5IjoxMTU5fSx7IngiOjE0ODkuMjI2NTYyNSwieSI6MTIwOH0seyJ4IjoxNDg5LjIyNjU2MjUsInkiOjEyNTd9LHsieCI6MTQ4OS4yMjY1NjI1LCJ5IjoxMjgyfSx7IngiOjE1NTkuNzQ0MjgwMTMzOTI4NywieSI6MTM3NH1d" data-look="classic" marker-end="url(#my-svg_stateDiagram-barbEnd)"/><path d="M1145.876,1051L1108.7,1039.667C1071.524,1028.333,997.172,1005.667,959.996,984.167C922.82,962.667,922.82,942.333,952.672,922C982.524,901.667,1042.228,881.333,1072.079,871.167L1101.931,861" id="my-svg-edge6" class="edge-thickness-normal edge-pattern-solid transition" style="fill:none;;;fill:none" data-edge="true" data-et="edge" data-id="edge6" data-points="W3sieCI6MTE0NS44NzU4ODc3ODQwOTEsInkiOjEwNTF9LHsieCI6OTIyLjgyMDMxMjUsInkiOjk4M30seyJ4Ijo5MjIuODIwMzEyNSwieSI6OTIyfSx7IngiOjExMDEuOTMxMzI3MTYwNDkzOCwieSI6ODYxfV0=" data-look="classic" marker-end="url(#my-svg_stateDiagram-barbEnd)"/><path d="M470.328,1414L500.744,1429.333C531.159,1444.667,591.99,1475.333,622.405,1494.833C652.82,1514.333,652.82,1522.667,652.82,1537C652.82,1551.333,652.82,1571.667,652.82,1592C652.82,1612.333,652.82,1632.667,649.229,1650.167C645.638,1667.667,638.456,1682.333,634.865,1689.667L631.274,1697" id="my-svg-edge7" class="edge-thickness-normal edge-pattern-solid transition" style="fill:none;;;fill:none" data-edge="true" data-et="edge" data-id="edge7" data-points="W3sieCI6NDcwLjMyODQwNDAxNzg1NzE3LCJ5IjoxNDE0fSx7IngiOjY1Mi44MjAzMTI1LCJ5IjoxNTA2fSx7IngiOjY1Mi44MjAzMTI1LCJ5IjoxNTMxfSx7IngiOjY1Mi44MjAzMTI1LCJ5IjoxNTkyfSx7IngiOjY1Mi44MjAzMTI1LCJ5IjoxNjUzfSx7IngiOjYzMS4yNzQxNjk5MjE4NzUsInkiOjE2OTd9XQ==" data-look="classic" marker-end="url(#my-svg_stateDiagram-barbEnd)"/><path d="M431.043,1414L431.339,1429.333C431.635,1444.667,432.228,1475.333,432.524,1494.833C432.82,1514.333,432.82,1522.667,432.82,1537C432.82,1551.333,432.82,1571.667,432.82,1592C432.82,1612.333,432.82,1632.667,454.438,1650.167C476.055,1667.667,519.29,1682.333,540.907,1689.667L562.524,1697" id="my-svg-edge8" class="edge-thickness-normal edge-pattern-solid transition" style="fill:none;;;fill:none" data-edge="true" data-et="edge" data-id="edge8" data-points="W3sieCI6NDMxLjA0MjY4OTczMjE0MjgzLCJ5IjoxNDE0fSx7IngiOjQzMi44MjAzMTI1LCJ5IjoxNTA2fSx7IngiOjQzMi44MjAzMTI1LCJ5IjoxNTMxfSx7IngiOjQzMi44MjAzMTI1LCJ5IjoxNTkyfSx7IngiOjQzMi44MjAzMTI1LCJ5IjoxNjUzfSx7IngiOjU2Mi41MjQxNjk5MjE4NzUsInkiOjE2OTd9XQ==" data-look="classic" marker-end="url(#my-svg_stateDiagram-barbEnd)"/><path d="M631.274,1737L634.865,1744.333C638.456,1751.667,645.638,1766.333,649.229,1783.833C652.82,1801.333,652.82,1821.667,627.897,1842C602.973,1862.333,553.127,1882.667,528.203,1892.833L503.28,1903" id="my-svg-edge9" class="edge-thickness-normal edge-pattern-solid transition" style="fill:none;;;fill:none" data-edge="true" data-et="edge" data-id="edge9" data-points="W3sieCI6NjMxLjI3NDE2OTkyMTg3NSwieSI6MTczN30seyJ4Ijo2NTIuODIwMzEyNSwieSI6MTc4MX0seyJ4Ijo2NTIuODIwMzEyNSwieSI6MTg0Mn0seyJ4Ijo1MDMuMjc5NzA2NzkwMTIzNDQsInkiOjE5MDN9XQ==" data-look="classic" marker-end="url(#my-svg_stateDiagram-barbEnd)"/><path d="M559.399,1737L536.636,1744.333C513.873,1751.667,468.347,1766.333,445.583,1783.833C422.82,1801.333,422.82,1821.667,426.765,1842C430.71,1862.333,438.6,1882.667,442.545,1892.833L446.49,1903" id="my-svg-edge10" class="edge-thickness-normal edge-pattern-solid transition" style="fill:none;;;fill:none" data-edge="true" data-et="edge" data-id="edge10" data-points="W3sieCI6NTU5LjM5OTE2OTkyMTg3NSwieSI6MTczN30seyJ4Ijo0MjIuODIwMzEyNSwieSI6MTc4MX0seyJ4Ijo0MjIuODIwMzEyNSwieSI6MTg0Mn0seyJ4Ijo0NDYuNDg5NTgzMzMzMzMzMywieSI6MTkwM31d" data-look="classic" marker-end="url(#my-svg_stateDiagram-barbEnd)"/><path d="M407.314,1903L383.455,1892.833C359.596,1882.667,311.878,1862.333,288.019,1842C264.16,1821.667,264.16,1801.333,264.16,1780.5C264.16,1759.667,264.16,1738.333,264.16,1717C264.16,1695.667,264.16,1674.333,264.16,1653.5C264.16,1632.667,264.16,1612.333,264.16,1592C264.16,1571.667,264.16,1551.333,264.16,1537C264.16,1522.667,264.16,1514.333,286.954,1494.833C309.748,1475.333,355.337,1444.667,378.131,1429.333L400.925,1414" id="my-svg-edge11" class="edge-thickness-normal edge-pattern-solid transition" style="fill:none;;;fill:none" data-edge="true" data-et="edge" data-id="edge11" data-points="W3sieCI6NDA3LjMxNDIzNjExMTExMTEsInkiOjE5MDN9LHsieCI6MjY0LjE2MDE1NjI1LCJ5IjoxODQyfSx7IngiOjI2NC4xNjAxNTYyNSwieSI6MTc4MX0seyJ4IjoyNjQuMTYwMTU2MjUsInkiOjE3MTd9LHsieCI6MjY0LjE2MDE1NjI1LCJ5IjoxNjUzfSx7IngiOjI2NC4xNjAxNTYyNSwieSI6MTU5Mn0seyJ4IjoyNjQuMTYwMTU2MjUsInkiOjE1MzF9LHsieCI6MjY0LjE2MDE1NjI1LCJ5IjoxNTA2fSx7IngiOjQwMC45MjQ4MDQ2ODc1LCJ5IjoxNDE0fV0=" data-look="classic" marker-end="url(#my-svg_stateDiagram-barbEnd)"/><path d="M1312.805,617.894L1357.807,627.078C1402.81,636.262,1492.815,654.631,1537.818,671.982C1582.82,689.333,1582.82,705.667,1582.82,722C1582.82,738.333,1582.82,754.667,1582.82,767C1582.82,779.333,1582.82,787.667,1582.82,799.333C1582.82,811,1582.82,826,1582.82,847C1582.82,868,1582.82,895,1582.82,918.667C1582.82,942.333,1582.82,962.667,1582.82,987.5C1582.82,1012.333,1582.82,1041.667,1582.82,1071C1582.82,1100.333,1582.82,1129.667,1582.82,1152.5C1582.82,1175.333,1582.82,1191.667,1582.82,1208C1582.82,1224.333,1582.82,1240.667,1582.82,1253C1582.82,1265.333,1582.82,1273.667,1581.76,1293.167C1580.699,1312.667,1578.578,1343.333,1577.518,1358.667L1576.457,1374" id="my-svg-edge12" class="edge-thickness-normal edge-pattern-solid transition" style="fill:none;;;fill:none" data-edge="true" data-et="edge" data-id="edge12" data-points="W3sieCI6MTMxMi44MDQ2ODc1LCJ5Ijo2MTcuODkzNjcyMTQ3NDgzOH0seyJ4IjoxNTgyLjgyMDMxMjUsInkiOjY3M30seyJ4IjoxNTgyLjgyMDMxMjUsInkiOjcyMn0seyJ4IjoxNTgyLjgyMDMxMjUsInkiOjc3MX0seyJ4IjoxNTgyLjgyMDMxMjUsInkiOjc5Nn0seyJ4IjoxNTgyLjgyMDMxMjUsInkiOjg0MX0seyJ4IjoxNTgyLjgyMDMxMjUsInkiOjkyMn0seyJ4IjoxNTgyLjgyMDMxMjUsInkiOjk4M30seyJ4IjoxNTgyLjgyMDMxMjUsInkiOjEwNzF9LHsieCI6MTU4Mi44MjAzMTI1LCJ5IjoxMTU5fSx7IngiOjE1ODIuODIwMzEyNSwieSI6MTIwOH0seyJ4IjoxNTgyLjgyMDMxMjUsInkiOjEyNTd9LHsieCI6MTU4Mi44MjAzMTI1LCJ5IjoxMjgyfSx7IngiOjE1NzYuNDU3NDQ5Nzc2Nzg1OCwieSI6MTM3NH1d" data-look="classic" marker-end="url(#my-svg_stateDiagram-barbEnd)"/><path d="M1312.805,628.423L1329.474,635.852C1346.143,643.282,1379.482,658.141,1396.151,673.737C1412.82,689.333,1412.82,705.667,1412.82,722C1412.82,738.333,1412.82,754.667,1412.82,767C1412.82,779.333,1412.82,787.667,1384.949,796.807C1357.078,805.947,1301.336,815.895,1273.465,820.869L1245.594,825.842" id="my-svg-edge13" class="edge-thickness-normal edge-pattern-solid transition" style="fill:none;;;fill:none" data-edge="true" data-et="edge" data-id="edge13" data-points="W3sieCI6MTMxMi44MDQ2ODc1LCJ5Ijo2MjguNDIyODUwOTI0OTE4NH0seyJ4IjoxNDEyLjgyMDMxMjUsInkiOjY3M30seyJ4IjoxNDEyLjgyMDMxMjUsInkiOjcyMn0seyJ4IjoxNDEyLjgyMDMxMjUsInkiOjc3MX0seyJ4IjoxNDEyLjgyMDMxMjUsInkiOjc5Nn0seyJ4IjoxMjQ1LjU5Mzc1LCJ5Ijo4MjUuODQyNDU3NDc3NDYwN31d" data-look="classic" marker-end="url(#my-svg_stateDiagram-barbEnd)"/><path d="M1225.648,615.887L1165.415,625.406C1105.182,634.925,984.716,653.962,924.483,671.648C864.25,689.333,864.25,705.667,864.25,722C864.25,738.333,864.25,754.667,791.984,767C719.719,779.333,575.188,787.667,502.922,799.333C430.656,811,430.656,826,430.656,847C430.656,868,430.656,895,430.656,918.667C430.656,942.333,430.656,962.667,430.656,987.5C430.656,1012.333,430.656,1041.667,430.656,1071C430.656,1100.333,430.656,1129.667,430.656,1152.5C430.656,1175.333,430.656,1191.667,430.656,1208C430.656,1224.333,430.656,1240.667,430.656,1253C430.656,1265.333,430.656,1273.667,430.656,1293.167C430.656,1312.667,430.656,1343.333,430.656,1358.667L430.656,1374" id="my-svg-edge14" class="edge-thickness-normal edge-pattern-solid transition" style="fill:none;;;fill:none" data-edge="true" data-et="edge" data-id="edge14" data-points="W3sieCI6MTIyNS42NDg0Mzc1LCJ5Ijo2MTUuODg2ODE4Mjk1ODExOH0seyJ4Ijo4NjQuMjUsInkiOjY3M30seyJ4Ijo4NjQuMjUsInkiOjcyMn0seyJ4Ijo4NjQuMjUsInkiOjc3MX0seyJ4Ijo0MzAuNjU2MjUsInkiOjc5Nn0seyJ4Ijo0MzAuNjU2MjUsInkiOjg0MX0seyJ4Ijo0MzAuNjU2MjUsInkiOjkyMn0seyJ4Ijo0MzAuNjU2MjUsInkiOjk4M30seyJ4Ijo0MzAuNjU2MjUsInkiOjEwNzF9LHsieCI6NDMwLjY1NjI1LCJ5IjoxMTU5fSx7IngiOjQzMC42NTYyNSwieSI6MTIwOH0seyJ4Ijo0MzAuNjU2MjUsInkiOjEyNTd9LHsieCI6NDMwLjY1NjI1LCJ5IjoxMjgyfSx7IngiOjQzMC42NTYyNSwieSI6MTM3NH1d" data-look="classic" marker-end="url(#my-svg_stateDiagram-barbEnd)"/><path d="M1188.753,1091L1175.874,1102.333C1162.996,1113.667,1137.238,1136.333,1124.359,1155.833C1111.48,1175.333,1111.48,1191.667,1111.48,1208C1111.48,1224.333,1111.48,1240.667,1111.48,1253C1111.48,1265.333,1111.48,1273.667,1008.014,1294.854C904.547,1316.042,697.613,1350.084,594.146,1367.105L490.68,1384.126" id="my-svg-edge15" class="edge-thickness-normal edge-pattern-solid transition" style="fill:none;;;fill:none" data-edge="true" data-et="edge" data-id="edge15" data-points="W3sieCI6MTE4OC43NTMxOTYwMjI3MjczLCJ5IjoxMDkxfSx7IngiOjExMTEuNDgwNDY4NzUsInkiOjExNTl9LHsieCI6MTExMS40ODA0Njg3NSwieSI6MTIwOH0seyJ4IjoxMTExLjQ4MDQ2ODc1LCJ5IjoxMjU3fSx7IngiOjExMTEuNDgwNDY4NzUsInkiOjEyODJ9LHsieCI6NDkwLjY3OTY4NzUsInkiOjEzODQuMTI1NzU1MjAyNTA2fV0=" data-look="classic" marker-end="url(#my-svg_stateDiagram-barbEnd)"/><path d="M378.875,1903L340.559,1892.833C302.243,1882.667,225.612,1862.333,187.296,1842C148.98,1821.667,148.98,1801.333,148.98,1780.5C148.98,1759.667,148.98,1738.333,148.98,1717C148.98,1695.667,148.98,1674.333,148.98,1653.5C148.98,1632.667,148.98,1612.333,148.98,1592C148.98,1571.667,148.98,1551.333,148.98,1537C148.98,1522.667,148.98,1514.333,148.98,1491.5C148.98,1468.667,148.98,1431.333,148.98,1394C148.98,1356.667,148.98,1319.333,148.98,1296.5C148.98,1273.667,148.98,1265.333,148.98,1253C148.98,1240.667,148.98,1224.333,148.98,1208C148.98,1191.667,148.98,1175.333,148.98,1152.5C148.98,1129.667,148.98,1100.333,148.98,1071C148.98,1041.667,148.98,1012.333,148.98,987.5C148.98,962.667,148.98,942.333,148.98,918.667C148.98,895,148.98,868,148.98,847C148.98,826,148.98,811,248.192,799.333C347.404,787.667,545.827,779.333,645.038,767C744.25,754.667,744.25,738.333,744.25,722C744.25,705.667,744.25,689.333,744.25,670.5C744.25,651.667,744.25,630.333,744.25,609C744.25,587.667,744.25,566.333,744.25,547.5C744.25,528.667,744.25,512.333,744.25,492.667C744.25,473,744.25,450,744.25,427C744.25,404,744.25,381,809.389,359.511C874.529,338.023,1004.807,318.046,1069.947,308.057L1135.086,298.069" id="my-svg-edge16" class="edge-thickness-normal edge-pattern-solid transition" style="fill:none;;;fill:none" data-edge="true" data-et="edge" data-id="edge16" data-points="W3sieCI6Mzc4Ljg3NDgwNzA5ODc2NTQsInkiOjE5MDN9LHsieCI6MTQ4Ljk4MDQ2ODc1LCJ5IjoxODQyfSx7IngiOjE0OC45ODA0Njg3NSwieSI6MTc4MX0seyJ4IjoxNDguOTgwNDY4NzUsInkiOjE3MTd9LHsieCI6MTQ4Ljk4MDQ2ODc1LCJ5IjoxNjUzfSx7IngiOjE0OC45ODA0Njg3NSwieSI6MTU5Mn0seyJ4IjoxNDguOTgwNDY4NzUsInkiOjE1MzF9LHsieCI6MTQ4Ljk4MDQ2ODc1LCJ5IjoxNTA2fSx7IngiOjE0OC45ODA0Njg3NSwieSI6MTM5NH0seyJ4IjoxNDguOTgwNDY4NzUsInkiOjEyODJ9LHsieCI6MTQ4Ljk4MDQ2ODc1LCJ5IjoxMjU3fSx7IngiOjE0OC45ODA0Njg3NSwieSI6MTIwOH0seyJ4IjoxNDguOTgwNDY4NzUsInkiOjExNTl9LHsieCI6MTQ4Ljk4MDQ2ODc1LCJ5IjoxMDcxfSx7IngiOjE0OC45ODA0Njg3NSwieSI6OTgzfSx7IngiOjE0OC45ODA0Njg3NSwieSI6OTIyfSx7IngiOjE0OC45ODA0Njg3NSwieSI6ODQxfSx7IngiOjE0OC45ODA0Njg3NSwieSI6Nzk2fSx7IngiOjc0NC4yNSwieSI6NzcxfSx7IngiOjc0NC4yNSwieSI6NzIyfSx7IngiOjc0NC4yNSwieSI6NjczfSx7IngiOjc0NC4yNSwieSI6NjA5fSx7IngiOjc0NC4yNSwieSI6NTQ1fSx7IngiOjc0NC4yNSwieSI6NDk2fSx7IngiOjc0NC4yNSwieSI6NDI3fSx7IngiOjc0NC4yNSwieSI6MzU4fSx7IngiOjExMzUuMDg1OTM3NSwieSI6Mjk4LjA2ODcwMTQ5NDg2OTV9XQ==" data-look="classic" marker-end="url(#my-svg_stateDiagram-barbEnd)"/><path d="M1141.215,1086.51L1086.482,1098.592C1031.75,1110.674,922.285,1134.837,867.553,1155.085C812.82,1175.333,812.82,1191.667,812.82,1208C812.82,1224.333,812.82,1240.667,812.82,1253C812.82,1265.333,812.82,1273.667,974.945,1294.527C1137.069,1315.386,1461.318,1348.773,1623.442,1365.466L1785.566,1382.159" id="my-svg-shift_done-shift_done----note-17" class="edge-thickness-normal edge-pattern-solid transition note-edge" style="fill:none;;;fill:none" data-edge="true" data-et="edge" data-id="shift_done-shift_done----note-17" data-points="W3sieCI6MTE0MS4yMTQ4NDM3NSwieSI6MTA4Ni41MTAzOTEyNTE5NDczfSx7IngiOjgxMi44MjAzMTI1LCJ5IjoxMTU5fSx7IngiOjgxMi44MjAzMTI1LCJ5IjoxMjA4fSx7IngiOjgxMi44MjAzMTI1LCJ5IjoxMjU3fSx7IngiOjgxMi44MjAzMTI1LCJ5IjoxMjgyfSx7IngiOjE3ODUuNTY2NDA2MjUsInkiOjEzODIuMTU5MDAxMzc1NDA3MX1d" data-look="classic"/><path d="M1900.566,1134L1900.566,1138.167C1900.566,1142.333,1900.566,1150.667,1857.609,1163C1814.651,1175.333,1728.736,1191.667,1685.778,1208C1642.82,1224.333,1642.82,1240.667,1642.82,1253C1642.82,1265.333,1642.82,1273.667,1633.546,1293.167C1624.271,1312.667,1605.721,1343.333,1596.446,1358.667L1587.172,1374" id="my-svg-compare_record----note-18-compare_record" class="edge-thickness-normal edge-pattern-solid transition note-edge" style="fill:none;;;fill:none" data-edge="true" data-et="edge" data-id="compare_record----note-18-compare_record" data-points="W3sieCI6MTkwMC41NjY0MDYyNSwieSI6MTEzNH0seyJ4IjoxOTAwLjU2NjQwNjI1LCJ5IjoxMTU5fSx7IngiOjE2NDIuODIwMzEyNSwieSI6MTIwOH0seyJ4IjoxNjQyLjgyMDMxMjUsInkiOjEyNTd9LHsieCI6MTY0Mi44MjAzMTI1LCJ5IjoxMjgyfSx7IngiOjE1ODcuMTcxNzM1NDkxMDcxMywieSI6MTM3NH1d" data-look="classic"/><path d="M409.614,1414L393.482,1429.333C377.35,1444.667,345.085,1475.333,328.953,1494.833C312.82,1514.333,312.82,1522.667,312.82,1537C312.82,1551.333,312.82,1571.667,312.82,1592C312.82,1612.333,312.82,1632.667,558.278,1652.727C803.736,1672.788,1294.651,1692.576,1540.109,1702.47L1785.566,1712.364" id="my-svg-forward-forward----note-19" class="edge-thickness-normal edge-pattern-solid transition note-edge" style="fill:none;;;fill:none" data-edge="true" data-et="edge" data-id="forward-forward----note-19" data-points="W3sieCI6NDA5LjYxNDExODMwMzU3MTQ0LCJ5IjoxNDE0fSx7IngiOjMxMi44MjAzMTI1LCJ5IjoxNTA2fSx7IngiOjMxMi44MjAzMTI1LCJ5IjoxNTMxfSx7IngiOjMxMi44MjAzMTI1LCJ5IjoxNTkyfSx7IngiOjMxMi44MjAzMTI1LCJ5IjoxNjUzfSx7IngiOjE3ODUuNTY2NDA2MjUsInkiOjE3MTIuMzY0NDk4MTIxNjAwM31d" data-look="classic"/><path d="M574.25,648L574.25,652.167C574.25,656.333,574.25,664.667,574.25,677C574.25,689.333,574.25,705.667,574.25,722C574.25,738.333,574.25,754.667,661.512,767C748.773,779.333,923.297,787.667,1016.377,796C1109.457,804.333,1121.093,812.667,1126.911,816.833L1132.729,821" id="my-svg-launch_shift----note-20-launch_shift" class="edge-thickness-normal edge-pattern-solid transition note-edge" style="fill:none;;;fill:none" data-edge="true" data-et="edge" data-id="launch_shift----note-20-launch_shift" data-points="W3sieCI6NTc0LjI1LCJ5Ijo2NDh9LHsieCI6NTc0LjI1LCJ5Ijo2NzN9LHsieCI6NTc0LjI1LCJ5Ijo3MjJ9LHsieCI6NTc0LjI1LCJ5Ijo3NzF9LHsieCI6MTA5Ny44MjAzMTI1LCJ5Ijo3OTZ9LHsieCI6MTEzMi43MjkxNjY2NjY2NjY3LCJ5Ijo4MjF9XQ==" data-look="classic"/></g><g class="edgeLabels"><g class="edgeLabel" transform="translate(1194.2265625, 208)"><g class="label" data-id="edge0" transform="translate(-100, -36)"><foreignObject width="200" height="72"><div xmlns="http://www.w3.org/1999/xhtml" class="labelBkg" style="display: table; white-space: break-spaces; line-height: 1.5; max-width: 200px; text-align: center; width: 200px;"><span class="edgeLabel"><p>async: comptime activate(ingress) [entry L331]</p></span></div></foreignObject></g></g><g class="edgeLabel" transform="translate(1269.2265625, 358)"><g class="label" data-id="edge1" transform="translate(-100, -24)"><foreignObject width="200" height="48"><div xmlns="http://www.w3.org/1999/xhtml" class="labelBkg" style="display: table; white-space: break-spaces; line-height: 1.5; max-width: 200px; text-align: center; width: 200px;"><span class="edgeLabel"><p>async: metainfo recv done, activate(ingress_ids) L166</p></span></div></foreignObject></g></g><g class="edgeLabel" transform="translate(1269.2265625, 496)"><g class="label" data-id="edge2" transform="translate(-100, -24)"><foreignObject width="200" height="48"><div xmlns="http://www.w3.org/1999/xhtml" class="labelBkg" style="display: table; white-space: break-spaces; line-height: 1.5; max-width: 200px; text-align: center; width: 200px;"><span class="edgeLabel"><p>async: token-id drain done, activate(init) L181</p></span></div></foreignObject></g></g><g class="edgeLabel" transform="translate(1362.8203125, 922)"><g class="label" data-id="edge3" transform="translate(-100, -24)"><foreignObject width="200" height="48"><div xmlns="http://www.w3.org/1999/xhtml" class="labelBkg" style="display: table; white-space: break-spaces; line-height: 1.5; max-width: 200px; text-align: center; width: 200px;"><span class="edgeLabel"><p>async: send-ut unblock(shift_done) L211</p></span></div></foreignObject></g></g><g class="edgeLabel" transform="translate(1142.8203125, 922)"><g class="label" data-id="edge4" transform="translate(-100, -24)"><foreignObject width="200" height="48"><div xmlns="http://www.w3.org/1999/xhtml" class="labelBkg" style="display: table; white-space: break-spaces; line-height: 1.5; max-width: 200px; text-align: center; width: 200px;"><span class="edgeLabel"><p>async: recv-ut activate(shift_done) L213</p></span></div></foreignObject></g></g><g class="edgeLabel" transform="translate(1489.2265625, 1208)"><g class="label" data-id="edge5" transform="translate(-63.59375, -12)"><foreignObject width="127.1875" height="24"><div xmlns="http://www.w3.org/1999/xhtml" class="labelBkg" style="display: table-cell; white-space: nowrap; line-height: 1.5; max-width: 200px; text-align: center;"><span class="edgeLabel"><p>call: if shifts_done</p></span></div></foreignObject></g></g><g class="edgeLabel" transform="translate(922.8203125, 922)"><g class="label" data-id="edge6" transform="translate(-100, -24)"><foreignObject width="200" height="48"><div xmlns="http://www.w3.org/1999/xhtml" class="labelBkg" style="display: table; white-space: break-spaces; line-height: 1.5; max-width: 200px; text-align: center; width: 200px;"><span class="edgeLabel"><p>call: back-edge if shifts_done</p></span></div></foreignObject></g></g><g class="edgeLabel" transform="translate(652.8203125, 1592)"><g class="label" data-id="edge7" transform="translate(-100, -36)"><foreignObject width="200" height="72"><div xmlns="http://www.w3.org/1999/xhtml" class="labelBkg" style="display: table; white-space: break-spaces; line-height: 1.5; max-width: 200px; text-align: center; width: 200px;"><span class="edgeLabel"><p>async: if local_px&gt;0 FIFO fwd done, activate(own) L246</p></span></div></foreignObject></g></g><g class="edgeLabel" transform="translate(432.8203125, 1592)"><g class="label" data-id="edge8" transform="translate(-100, -24)"><foreignObject width="200" height="48"><div xmlns="http://www.w3.org/1999/xhtml" class="labelBkg" style="display: table; white-space: break-spaces; line-height: 1.5; max-width: 200px; text-align: center; width: 200px;"><span class="edgeLabel"><p>async: if local_px==0 activate(own) L248</p></span></div></foreignObject></g></g><g class="edgeLabel" transform="translate(652.8203125, 1842)"><g class="label" data-id="edge9" transform="translate(-100, -36)"><foreignObject width="200" height="72"><div xmlns="http://www.w3.org/1999/xhtml" class="labelBkg" style="display: table; white-space: break-spaces; line-height: 1.5; max-width: 200px; text-align: center; width: 200px;"><span class="edgeLabel"><p>async: chunk0 meta emit, activate(handoff_done) L265</p></span></div></foreignObject></g></g><g class="edgeLabel" transform="translate(422.8203125, 1842)"><g class="label" data-id="edge10" transform="translate(-100, -36)"><foreignObject width="200" height="72"><div xmlns="http://www.w3.org/1999/xhtml" class="labelBkg" style="display: table; white-space: break-spaces; line-height: 1.5; max-width: 200px; text-align: center; width: 200px;"><span class="edgeLabel"><p>async: chunk&gt;=1 emit, activate(handoff_done) L268</p></span></div></foreignObject></g></g><g class="edgeLabel" transform="translate(264.16015625, 1717)"><g class="label" data-id="edge11" transform="translate(-92.5, -12)"><foreignObject width="185" height="24"><div xmlns="http://www.w3.org/1999/xhtml" class="labelBkg" style="display: table-cell; white-space: nowrap; line-height: 1.5; max-width: 200px; text-align: center;"><span class="edgeLabel"><p>async: back-edge if chunk</p></span></div></foreignObject></g></g><g class="edgeLabel" transform="translate(1582.8203125, 922)"><g class="label" data-id="edge12" transform="translate(-100, -36)"><foreignObject width="200" height="72"><div xmlns="http://www.w3.org/1999/xhtml" class="labelBkg" style="display: table; white-space: break-spaces; line-height: 1.5; max-width: 200px; text-align: center; width: 200px;"><span class="edgeLabel"><p>call: step-0 compare_record(ptr_send) L303</p></span></div></foreignObject></g></g><g class="edgeLabel" transform="translate(1412.8203125, 722)"><g class="label" data-id="edge13" transform="translate(-100, -24)"><foreignObject width="200" height="48"><div xmlns="http://www.w3.org/1999/xhtml" class="labelBkg" style="display: table; white-space: break-spaces; line-height: 1.5; max-width: 200px; text-align: center; width: 200px;"><span class="edgeLabel"><p>call: if P_BLOCK_SIZE&gt;1 launch_shift() L306</p></span></div></foreignObject></g></g><g class="edgeLabel" transform="translate(430.65625, 922)"><g class="label" data-id="edge14" transform="translate(-100, -36)"><foreignObject width="200" height="72"><div xmlns="http://www.w3.org/1999/xhtml" class="labelBkg" style="display: table; white-space: break-spaces; line-height: 1.5; max-width: 200px; text-align: center; width: 200px;"><span class="edgeLabel"><p>async: if P_BLOCK_SIZE==1 activate(forward) L308</p></span></div></foreignObject></g></g><g class="edgeLabel" transform="translate(1111.48046875, 1208)"><g class="label" data-id="edge15" transform="translate(-100, -24)"><foreignObject width="200" height="48"><div xmlns="http://www.w3.org/1999/xhtml" class="labelBkg" style="display: table; white-space: break-spaces; line-height: 1.5; max-width: 200px; text-align: center; width: 200px;"><span class="edgeLabel"><p>async: after P hops, activate(forward) L232</p></span></div></foreignObject></g></g><g class="edgeLabel" transform="translate(148.98046875, 922)"><g class="label" data-id="edge16" transform="translate(-100, -24)"><foreignObject width="200" height="48"><div xmlns="http://www.w3.org/1999/xhtml" class="labelBkg" style="display: table; white-space: break-spaces; line-height: 1.5; max-width: 200px; text-align: center; width: 200px;"><span class="edgeLabel"><p>async: request done, activate(ingress) L284</p></span></div></foreignObject></g></g><g class="edgeLabel"><g class="label" data-id="shift_done-shift_done----note-17" transform="translate(0, 0)"><foreignObject width="0" height="0"><div xmlns="http://www.w3.org/1999/xhtml" class="labelBkg" style="display: table-cell; white-space: nowrap; line-height: 1.5; max-width: 200px; text-align: center;"><span class="edgeLabel"></span></div></foreignObject></g></g><g class="edgeLabel"><g class="label" data-id="compare_record----note-18-compare_record" transform="translate(0, 0)"><foreignObject width="0" height="0"><div xmlns="http://www.w3.org/1999/xhtml" class="labelBkg" style="display: table-cell; white-space: nowrap; line-height: 1.5; max-width: 200px; text-align: center;"><span class="edgeLabel"></span></div></foreignObject></g></g><g class="edgeLabel"><g class="label" data-id="forward-forward----note-19" transform="translate(0, 0)"><foreignObject width="0" height="0"><div xmlns="http://www.w3.org/1999/xhtml" class="labelBkg" style="display: table-cell; white-space: nowrap; line-height: 1.5; max-width: 200px; text-align: center;"><span class="edgeLabel"></span></div></foreignObject></g></g><g class="edgeLabel"><g class="label" data-id="launch_shift----note-20-launch_shift" transform="translate(0, 0)"><foreignObject width="0" height="0"><div xmlns="http://www.w3.org/1999/xhtml" class="labelBkg" style="display: table-cell; white-space: nowrap; line-height: 1.5; max-width: 200px; text-align: center;"><span class="edgeLabel"></span></div></foreignObject></g></g></g><g class="nodes"><g class="node  statediagram-state" id="my-svg-state-ingress-16" data-look="classic" transform="translate(1194.2265625, 289)"><rect class="basic label-container" style="" rx="5" ry="5" x="-59.140625" y="-20" width="118.28125" height="40"/><g class="label" style="" transform="translate(-51.140625, -12)"><rect/><foreignObject width="102.28125" height="24"><div xmlns="http://www.w3.org/1999/xhtml" style="display: table-cell; white-space: nowrap; line-height: 1.5; max-width: 200px; text-align: center;"><span class="nodeLabel markdown-node-label"><p>ingress (L165)</p></span></div></foreignObject></g></g><g class="node  statediagram-state" id="my-svg-state-ingress_ids-2" data-look="classic" transform="translate(1269.2265625, 427)"><rect class="basic label-container" style="" rx="5" ry="5" x="-73.8125" y="-20" width="147.625" height="40"/><g class="label" style="" transform="translate(-65.8125, -12)"><rect/><foreignObject width="131.625" height="24"><div xmlns="http://www.w3.org/1999/xhtml" style="display: table-cell; white-space: nowrap; line-height: 1.5; max-width: 200px; text-align: center;"><span class="nodeLabel markdown-node-label"><p>ingress_ids (L170)</p></span></div></foreignObject></g></g><g class="node  statediagram-state" id="my-svg-state-init-14" data-look="classic" transform="translate(1269.2265625, 609)"><rect class="basic label-container" style="" rx="5" ry="5" x="-43.578125" y="-20" width="87.15625" height="40"/><g class="label" style="" transform="translate(-35.578125, -12)"><rect/><foreignObject width="71.15625" height="24"><div xmlns="http://www.w3.org/1999/xhtml" style="display: table-cell; white-space: nowrap; line-height: 1.5; max-width: 200px; text-align: center;"><span class="nodeLabel markdown-node-label"><p>init (L288)</p></span></div></foreignObject></g></g><g class="node default" id="my-svg-state-root_start-0" data-look="classic" transform="translate(1194.2265625, 77.5)"><circle class="state-start" r="7" width="14" height="14"/></g><g class="node  statediagram-state" id="my-svg-state-compare_record-18" data-look="classic" transform="translate(1575.07421875, 1394)"><rect class="basic label-container" style="" rx="5" ry="5" x="-100.4921875" y="-20" width="200.984375" height="40"/><g class="label" style="" transform="translate(-92.4921875, -12)"><rect/><foreignObject width="184.984375" height="24"><div xmlns="http://www.w3.org/1999/xhtml" style="display: table-cell; white-space: nowrap; line-height: 1.5; max-width: 200px; text-align: center;"><span class="nodeLabel markdown-node-label"><p>compare_record fn (L185)</p></span></div></foreignObject></g></g><g class="node  statediagram-state" id="my-svg-state-launch_shift-20" data-look="classic" transform="translate(1160.65625, 841)"><rect class="basic label-container" style="" rx="5" ry="5" x="-84.9375" y="-20" width="169.875" height="40"/><g class="label" style="" transform="translate(-76.9375, -12)"><rect/><foreignObject width="153.875" height="24"><div xmlns="http://www.w3.org/1999/xhtml" style="display: table-cell; white-space: nowrap; line-height: 1.5; max-width: 200px; text-align: center;"><span class="nodeLabel markdown-node-label"><p>launch_shift fn (L208)</p></span></div></foreignObject></g></g><g class="node  statediagram-state" id="my-svg-state-shift_done-17" data-look="classic" transform="translate(1211.48046875, 1071)"><rect class="basic label-container" style="" rx="5" ry="5" x="-70.265625" y="-20" width="140.53125" height="40"/><g class="label" style="" transform="translate(-62.265625, -12)"><rect/><foreignObject width="124.53125" height="24"><div xmlns="http://www.w3.org/1999/xhtml" style="display: table-cell; white-space: nowrap; line-height: 1.5; max-width: 200px; text-align: center;"><span class="nodeLabel markdown-node-label"><p>shift_done (L219)</p></span></div></foreignObject></g></g><g class="node  statediagram-state" id="my-svg-state-forward-19" data-look="classic" transform="translate(430.65625, 1394)"><rect class="basic label-container" style="" rx="5" ry="5" x="-60.0234375" y="-20" width="120.046875" height="40"/><g class="label" style="" transform="translate(-52.0234375, -12)"><rect/><foreignObject width="104.046875" height="24"><div xmlns="http://www.w3.org/1999/xhtml" style="display: table-cell; white-space: nowrap; line-height: 1.5; max-width: 200px; text-align: center;"><span class="nodeLabel markdown-node-label"><p>forward (L239)</p></span></div></foreignObject></g></g><g class="node  statediagram-state" id="my-svg-state-send_own-10" data-look="classic" transform="translate(621.48046875, 1717)"><rect class="basic label-container" style="" rx="5" ry="5" x="-69.8203125" y="-20" width="139.640625" height="40"/><g class="label" style="" transform="translate(-61.8203125, -12)"><rect/><foreignObject width="123.640625" height="24"><div xmlns="http://www.w3.org/1999/xhtml" style="display: table-cell; white-space: nowrap; line-height: 1.5; max-width: 200px; text-align: center;"><span class="nodeLabel markdown-node-label"><p>send_own (L252)</p></span></div></foreignObject></g></g><g class="node  statediagram-state" id="my-svg-state-handoff_done-16" data-look="classic" transform="translate(454.25, 1923)"><rect class="basic label-container" style="" rx="5" ry="5" x="-82.140625" y="-20" width="164.28125" height="40"/><g class="label" style="" transform="translate(-74.140625, -12)"><rect/><foreignObject width="148.28125" height="24"><div xmlns="http://www.w3.org/1999/xhtml" style="display: table-cell; white-space: nowrap; line-height: 1.5; max-width: 200px; text-align: center;"><span class="nodeLabel markdown-node-label"><p>handoff_done (L275)</p></span></div></foreignObject></g></g><g class="node statediagram-note" id="my-svg-state-shift_done----note-17" data-look="classic" transform="translate(1900.56640625, 1394)"><g class="basic label-container outer-path"><path d="M-115 -87 L115 -87 L115 87 L-115 87" stroke="none" stroke-width="0" fill="#fff5ad" style=""/><path d="M-115 -87 C-59.24826976701382 -87, -3.496539534027633 -87, 115 -87 M-115 -87 C-33.21376035824305 -87, 48.5724792835139 -87, 115 -87 M115 -87 C115 -32.70125536845429, 115 21.59748926309142, 115 87 M115 -87 C115 -21.623689594955948, 115 43.752620810088104, 115 87 M115 87 C62.683694364786504 87, 10.367388729573008 87, -115 87 M115 87 C23.522085041329575 87, -67.95582991734085 87, -115 87 M-115 87 C-115 50.7192308837742, -115 14.438461767548404, -115 -87 M-115 87 C-115 27.415145411772123, -115 -32.169709176455754, -115 -87" stroke="#aaaa33" stroke-width="1.3" fill="none" stroke-dasharray="0 0" style=""/></g><g class="label noteLabel" style="" transform="translate(-100, -72)"><rect/><foreignObject width="200" height="144"><div xmlns="http://www.w3.org/1999/xhtml" style="display: table; white-space: break-spaces; line-height: 1.5; max-width: 200px; text-align: center; width: 200px;"><span class="nodeLabel markdown-node-label"><p>@block re-gates each hop (L220, comptime L329);<br />armed by launch_shift unblock+activate.<br />P-th restoring hop skips compare_record.</p></span></div></foreignObject></g></g><g class="node statediagram-note" id="my-svg-state-compare_record----note-18" data-look="classic" transform="translate(1900.56640625, 1071)"><g class="basic label-container outer-path"><path d="M-115 -63 L115 -63 L115 63 L-115 63" stroke="none" stroke-width="0" fill="#fff5ad" style=""/><path d="M-115 -63 C-43.935411064529546 -63, 27.129177870940907 -63, 115 -63 M-115 -63 C-53.01921056517822 -63, 8.96157886964356 -63, 115 -63 M115 -63 C115 -21.37907852834411, 115 20.24184294331178, 115 63 M115 -63 C115 -36.635228323096285, 115 -10.270456646192564, 115 63 M115 63 C40.444211412166226 63, -34.11157717566755 63, -115 63 M115 63 C44.82018990927273 63, -25.359620181454545 63, -115 63 M-115 63 C-115 17.8943653829974, -115 -27.2112692340052, -115 -63 M-115 63 C-115 21.798675549972728, -115 -19.402648900054544, -115 -63" stroke="#aaaa33" stroke-width="1.3" fill="none" stroke-dasharray="0 0" style=""/></g><g class="label noteLabel" style="" transform="translate(-100, -48)"><rect/><foreignObject width="200" height="96"><div xmlns="http://www.w3.org/1999/xhtml" style="display: table; white-space: break-spaces; line-height: 1.5; max-width: 200px; text-align: center; width: 200px;"><span class="nodeLabel markdown-node-label"><p>sync LUT helper: copies W_E rows into X_tile,<br />returns to caller (no control transfer out).</p></span></div></foreignObject></g></g><g class="node statediagram-note" id="my-svg-state-forward----note-19" data-look="classic" transform="translate(1900.56640625, 1717)"><g class="basic label-container outer-path"><path d="M-115 -39 L115 -39 L115 39 L-115 39" stroke="none" stroke-width="0" fill="#fff5ad" style=""/><path d="M-115 -39 C-60.38654201281536 -39, -5.773084025630723 -39, 115 -39 M-115 -39 C-57.263447945151015 -39, 0.4731041096979709 -39, 115 -39 M115 -39 C115 -20.560249112061808, 115 -2.120498224123615, 115 39 M115 -39 C115 -12.6285708857277, 115 13.742858228544598, 115 39 M115 39 C52.32541617338406 39, -10.349167653231873 39, -115 39 M115 39 C34.70096217529522 39, -45.598075649409566 39, -115 39 M-115 39 C-115 12.509287982601617, -115 -13.981424034796767, -115 -39 M-115 39 C-115 11.644253361409781, -115 -15.711493277180438, -115 -39" stroke="#aaaa33" stroke-width="1.3" fill="none" stroke-dasharray="0 0" style=""/></g><g class="label noteLabel" style="" transform="translate(-100, -24)"><rect/><foreignObject width="200" height="48"><div xmlns="http://www.w3.org/1999/xhtml" style="display: table; white-space: break-spaces; line-height: 1.5; max-width: 200px; text-align: center; width: 200px;"><span class="nodeLabel markdown-node-label"><p>per-chunk loop x request_n_chunks</p></span></div></foreignObject></g></g><g class="node statediagram-note" id="my-svg-state-launch_shift----note-20" data-look="classic" transform="translate(574.25, 609)"><g class="basic label-container outer-path"><path d="M-115 -39 L115 -39 L115 39 L-115 39" stroke="none" stroke-width="0" fill="#fff5ad" style=""/><path d="M-115 -39 C-66.32449993994086 -39, -17.648999879881742 -39, 115 -39 M-115 -39 C-25.88704617308683 -39, 63.22590765382634 -39, 115 -39 M115 -39 C115 -14.298387020604245, 115 10.40322595879151, 115 39 M115 -39 C115 -20.391222098502084, 115 -1.7824441970041676, 115 39 M115 39 C51.515553462995946 39, -11.968893074008108 39, -115 39 M115 39 C41.33916205653078 39, -32.321675886938436 39, -115 39 M-115 39 C-115 12.481353752779114, -115 -14.037292494441772, -115 -39 M-115 39 C-115 22.827009688660052, -115 6.654019377320104, -115 -39" stroke="#aaaa33" stroke-width="1.3" fill="none" stroke-dasharray="0 0" style=""/></g><g class="label noteLabel" style="" transform="translate(-100, -24)"><rect/><foreignObject width="200" height="48"><div xmlns="http://www.w3.org/1999/xhtml" style="display: table; white-space: break-spaces; line-height: 1.5; max-width: 200px; text-align: center; width: 200px;"><span class="nodeLabel markdown-node-label"><p>rotation ring x P_BLOCK_SIZE hops</p></span></div></foreignObject></g></g><g class="root" transform="translate(1243.2265625, 0)"><g class="clusters"><g class="statediagram-state statediagram-cluster" id="my-svg-state-Legend-21" data-id="Legend" data-look="classic"><g><rect class="outer" x="8" y="8" width="552" height="139" data-look="classic"/></g><g class="cluster-label" transform="translate(257.3046875, 9)"><foreignObject width="53.390625" height="24"><div xmlns="http://www.w3.org/1999/xhtml" style="display: table-cell; white-space: nowrap; line-height: 1.5;"><span class="nodeLabel"><p>Legend</p></span></div></foreignObject></g><rect class="inner" x="8" y="34" width="552" height="109"/></g></g><g class="edgePaths"/><g class="edgeLabels"/><g class="nodes"><g class="node  statediagram-state" id="my-svg-state-L1-21" data-look="classic" transform="translate(151, 77.5)"><rect class="basic label-container" style="" rx="5" ry="5" x="-108" y="-32" width="216" height="64"/><g class="label" style="" transform="translate(-100, -24)"><rect/><foreignObject width="200" height="48"><div xmlns="http://www.w3.org/1999/xhtml" style="display: table; white-space: break-spaces; line-height: 1.5; max-width: 200px; text-align: center; width: 200px;"><span class="nodeLabel markdown-node-label"><p>async: microthread callback / @activate</p></span></div></foreignObject></g></g><g class="node  statediagram-state" id="my-svg-state-L2-21" data-look="classic" transform="translate(417, 77.5)"><rect class="basic label-container" style="" rx="5" ry="5" x="-108" y="-32" width="216" height="64"/><g class="label" style="" transform="translate(-100, -24)"><rect/><foreignObject width="200" height="48"><div xmlns="http://www.w3.org/1999/xhtml" style="display: table; white-space: break-spaces; line-height: 1.5; max-width: 200px; text-align: center; width: 200px;"><span class="nodeLabel markdown-node-label"><p>call: direct synchronous fn call</p></span></div></foreignObject></g></g></g></g></g></g></g><defs><filter id="my-svg-drop-shadow" height="130%" width="130%"><feDropShadow dx="4" dy="4" stdDeviation="0" flood-opacity="0.06" flood-color="#000000"/></filter></defs><defs><filter id="my-svg-drop-shadow-small" height="150%" width="150%"><feDropShadow dx="2" dy="2" stdDeviation="0" flood-opacity="0.06" flood-color="#000000"/></filter></defs></svg>