<svg id="my-svg" width="100%" xmlns="http://www.w3.org/2000/svg" xmlns:xlink="http://www.w3.org/1999/xlink" class="statediagram" style="max-width: 1453.5px; background-color: white;" viewBox="0 0 1453.5 1336" role="graphics-document document" aria-roledescription="stateDiagram"><style>#my-svg{font-family:"trebuchet ms",verdana,arial,sans-serif;font-size:16px;fill:#333;}@keyframes edge-animation-frame{from{stroke-dashoffset:0;}}@keyframes dash{to{stroke-dashoffset:0;}}#my-svg .edge-animation-slow{stroke-dasharray:9,5!important;stroke-dashoffset:900;animation:dash 50s linear infinite;stroke-linecap:round;}#my-svg .edge-animation-fast{stroke-dasharray:9,5!important;stroke-dashoffset:900;animation:dash 20s linear infinite;stroke-linecap:round;}#my-svg .error-icon{fill:#552222;}#my-svg .error-text{fill:#552222;stroke:#552222;}#my-svg .edge-thickness-normal{stroke-width:1px;}#my-svg .edge-thickness-thick{stroke-width:3.5px;}#my-svg .edge-pattern-solid{stroke-dasharray:0;}#my-svg .edge-thickness-invisible{stroke-width:0;fill:none;}#my-svg .edge-pattern-dashed{stroke-dasharray:3;}#my-svg .edge-pattern-dotted{stroke-dasharray:2;}#my-svg .marker{fill:#333333;stroke:#333333;}#my-svg .marker.cross{stroke:#333333;}#my-svg svg{font-family:"trebuchet ms",verdana,arial,sans-serif;font-size:16px;}#my-svg p{margin:0;}#my-svg defs [id$="-barbEnd"]{fill:#333333;stroke:#333333;}#my-svg g.stateGroup text{fill:#9370DB;stroke:none;font-size:10px;}#my-svg g.stateGroup text{fill:#333;stroke:none;font-size:10px;}#my-svg g.stateGroup .state-title{font-weight:bolder;fill:#131300;}#my-svg g.stateGroup rect{fill:#ECECFF;stroke:#9370DB;}#my-svg g.stateGroup line{stroke:#333333;stroke-width:1;}#my-svg .transition{stroke:#333333;stroke-width:1;fill:none;}#my-svg .stateGroup .composit{fill:white;border-bottom:1px;}#my-svg .stateGroup .alt-composit{fill:#e0e0e0;border-bottom:1px;}#my-svg .state-note{stroke:#aaaa33;fill:#fff5ad;}#my-svg .state-note text{fill:black;stroke:none;font-size:10px;}#my-svg .stateLabel .box{stroke:none;stroke-width:0;fill:#ECECFF;opacity:0.5;}#my-svg .edgeLabel .label rect{fill:#ECECFF;opacity:0.5;}#my-svg .edgeLabel{background-color:rgba(232,232,232, 0.8);text-align:center;}#my-svg .edgeLabel p{background-color:rgba(232,232,232, 0.8);}#my-svg .edgeLabel rect{opacity:0.5;background-color:rgba(232,232,232, 0.8);fill:rgba(232,232,232, 0.8);}#my-svg .edgeLabel .label text{fill:#333;}#my-svg .label div .edgeLabel{color:#333;}#my-svg .stateLabel text{fill:#131300;font-size:10px;font-weight:bold;}#my-svg .node circle.state-start{fill:#333333;stroke:#333333;}#my-svg .node .fork-join{fill:#333333;stroke:#333333;}#my-svg .node circle.state-end{fill:#9370DB;stroke:white;stroke-width:1.5;}#my-svg .end-state-inner{fill:white;stroke-width:1.5;}#my-svg .node rect{fill:#ECECFF;stroke:#9370DB;stroke-width:1px;}#my-svg .node polygon{fill:#ECECFF;stroke:#9370DB;stroke-width:1px;}#my-svg [id$="-barbEnd"]{fill:#333333;}#my-svg .statediagram-cluster rect{fill:#ECECFF;stroke:#9370DB;stroke-width:1px;}#my-svg .cluster-label,#my-svg .nodeLabel{color:#131300;}#my-svg .statediagram-cluster rect.outer{rx:5px;ry:5px;}#my-svg .statediagram-state .divider{stroke:#9370DB;}#my-svg .statediagram-state .title-state{rx:5px;ry:5px;}#my-svg .statediagram-cluster.statediagram-cluster .inner{fill:white;}#my-svg .statediagram-cluster.statediagram-cluster-alt .inner{fill:#f0f0f0;}#my-svg .statediagram-cluster .inner{rx:0;ry:0;}#my-svg .statediagram-state rect.basic{rx:5px;ry:5px;}#my-svg .statediagram-state rect.divider{stroke-dasharray:10,10;fill:#f0f0f0;}#my-svg .note-edge{stroke-dasharray:5;}#my-svg .statediagram-note rect{fill:#fff5ad;stroke:#aaaa33;stroke-width:1px;rx:0;ry:0;}#my-svg .statediagram-note rect{fill:#fff5ad;stroke:#aaaa33;stroke-width:1px;rx:0;ry:0;}#my-svg .statediagram-note text{fill:black;}#my-svg .statediagram-note .nodeLabel{color:black;}#my-svg .statediagram .edgeLabel{color:red;}#my-svg [id$="-dependencyStart"],#my-svg [id$="-dependencyEnd"]{fill:#333333;stroke:#333333;stroke-width:1;}#my-svg .statediagramTitleText{text-anchor:middle;font-size:18px;fill:#333;}#my-svg [data-look="neo"].statediagram-cluster rect{fill:#ECECFF;stroke:#9370DB;stroke-width:1;}#my-svg [data-look="neo"].statediagram-cluster rect.outer{rx:5px;ry:5px;filter:drop-shadow(1px 2px 2px rgba(185, 185, 185, 1));}#my-svg .node .neo-node{stroke:#9370DB;}#my-svg [data-look="neo"].node rect,#my-svg [data-look="neo"].cluster rect,#my-svg [data-look="neo"].node polygon{stroke:#9370DB;filter:drop-shadow(1px 2px 2px rgba(185, 185, 185, 1));}#my-svg [data-look="neo"].swimlane.cluster rect{filter:none;}#my-svg [data-look="neo"].node path{stroke:#9370DB;stroke-width:1px;}#my-svg [data-look="neo"].node .outer-path{filter:drop-shadow(1px 2px 2px rgba(185, 185, 185, 1));}#my-svg [data-look="neo"].node .neo-line path{stroke:#9370DB;filter:none;}#my-svg [data-look="neo"].node circle{stroke:#9370DB;filter:drop-shadow(1px 2px 2px rgba(185, 185, 185, 1));}#my-svg [data-look="neo"].node circle .state-start{fill:#000000;}#my-svg [data-look="neo"].icon-shape .icon{fill:#9370DB;filter:drop-shadow(1px 2px 2px rgba(185, 185, 185, 1));}#my-svg [data-look="neo"].icon-shape .icon-neo path{stroke:#9370DB;filter:drop-shadow(1px 2px 2px rgba(185, 185, 185, 1));}#my-svg :root{--mermaid-font-family:"trebuchet ms",verdana,arial,sans-serif;}</style><g><defs><marker id="my-svg_stateDiagram-barbEnd" refX="19" refY="7" markerWidth="20" markerHeight="14" markerUnits="userSpaceOnUse" orient="auto"><path d="M 19,7 L9,13 L14,7 L9,1 Z"/></marker></defs><g class="root"><g class="clusters"><g class="note-cluster" id="my-svg-state-drain----parent-8"><rect x="8" y="556" width="300" height="152" fill="none"/></g><g class="note-cluster" id="my-svg-state-sync_src----parent-9"><rect x="301" y="830" width="300" height="224" fill="none"/></g><g class="note-cluster" id="my-svg-state-sync_wait----parent-10"><rect x="1025.5" y="282" width="300" height="176" fill="none"/></g><g class="note-cluster" id="my-svg-state-sync_do----parent-11"><rect x="1025.5" y="1104" width="300" height="224" fill="none"/></g></g><g class="edgePaths"><path d="M754,22L754,30.167C754,38.333,754,54.667,754,71C754,87.333,754,103.667,754,111.833L754,120" id="my-svg-edge0" class="edge-thickness-normal edge-pattern-solid transition" style="fill:none;;;fill:none" data-edge="true" data-et="edge" data-id="edge0" data-points="W3sieCI6NzU0LCJ5IjoyMn0seyJ4Ijo3NTQsInkiOjcxfSx7IngiOjc1NCwieSI6MTIwfV0=" data-look="classic" marker-end="url(#my-svg_stateDiagram-barbEnd)"/><path d="M777.111,184L783.009,192.167C788.907,200.333,800.704,216.667,806.602,233C812.5,249.333,812.5,265.667,812.5,283.167C812.5,300.667,812.5,319.333,812.5,328.667L812.5,338" id="my-svg-edge1" class="edge-thickness-normal edge-pattern-solid transition" style="fill:none;;;fill:none" data-edge="true" data-et="edge" data-id="edge1" data-points="W3sieCI6Nzc3LjExMTExMTExMTExMTEsInkiOjE4NH0seyJ4Ijo4MTIuNSwieSI6MjMzfSx7IngiOjgxMi41LCJ5IjoyODJ9LHsieCI6ODEyLjUsInkiOjMzOH1d" data-look="classic" marker-end="url(#my-svg_stateDiagram-barbEnd)"/><path d="M704.5,392.468L652,403.39C599.5,414.312,494.5,436.156,442,455.245C389.5,474.333,389.5,490.667,389.5,507C389.5,523.333,389.5,539.667,393.816,553.167C398.132,566.667,406.763,577.333,411.079,582.667L415.395,588" id="my-svg-edge3" class="edge-thickness-normal edge-pattern-solid transition" style="fill:none;;;fill:none" data-edge="true" data-et="edge" data-id="edge3" data-points="W3sieCI6NzA0LjUsInkiOjM5Mi40NjgwODUxMDYzODN9LHsieCI6Mzg5LjUsInkiOjQ1OH0seyJ4IjozODkuNSwieSI6NTA3fSx7IngiOjM4OS41LCJ5Ijo1NTZ9LHsieCI6NDE1LjM5NDczNjg0MjEwNTI2LCJ5Ijo1ODh9XQ==" data-look="classic" marker-end="url(#my-svg_stateDiagram-barbEnd)"/><path d="M882.682,402L903.152,411.333C923.621,420.667,964.561,439.333,985.03,456.833C1005.5,474.333,1005.5,490.667,1005.5,507C1005.5,523.333,1005.5,539.667,1011.465,553.167C1017.43,566.667,1029.36,577.333,1035.325,582.667L1041.289,588" id="my-svg-edge4" class="edge-thickness-normal edge-pattern-solid transition" style="fill:none;;;fill:none" data-edge="true" data-et="edge" data-id="edge4" data-points="W3sieCI6ODgyLjY4MTgxODE4MTgxODIsInkiOjQwMn0seyJ4IjoxMDA1LjUsInkiOjQ1OH0seyJ4IjoxMDA1LjUsInkiOjUwN30seyJ4IjoxMDA1LjUsInkiOjU1Nn0seyJ4IjoxMDQxLjI4OTQ3MzY4NDIxMDYsInkiOjU4OH1d" data-look="classic" marker-end="url(#my-svg_stateDiagram-barbEnd)"/><path d="M485.737,588L489.947,582.667C494.158,577.333,502.579,566.667,506.789,553.167C511,539.667,511,523.333,511,507C511,490.667,511,474.333,511,451.5C511,428.667,511,399.333,511,370C511,340.667,511,311.333,511,288.5C511,265.667,511,249.333,535.5,233C560,216.667,609,200.333,633.5,192.167L658,184" id="my-svg-edge5" class="edge-thickness-normal edge-pattern-solid transition" style="fill:none;;;fill:none" data-edge="true" data-et="edge" data-id="edge5" data-points="W3sieCI6NDg1LjczNjg0MjEwNTI2MzIsInkiOjU4OH0seyJ4Ijo1MTEsInkiOjU1Nn0seyJ4Ijo1MTEsInkiOjUwN30seyJ4Ijo1MTEsInkiOjQ1OH0seyJ4Ijo1MTEsInkiOjM3MH0seyJ4Ijo1MTEsInkiOjI4Mn0seyJ4Ijo1MTEsInkiOjIzM30seyJ4Ijo2NTgsInkiOjE4NH1d" data-look="classic" marker-end="url(#my-svg_stateDiagram-barbEnd)"/><path d="M1090.5,676L1090.5,681.333C1090.5,686.667,1090.5,697.333,1090.5,712.833C1090.5,728.333,1090.5,748.667,1090.5,769C1090.5,789.333,1090.5,809.667,1099.101,831.167C1107.702,852.667,1124.905,875.333,1133.506,886.667L1142.107,898" id="my-svg-edge6" class="edge-thickness-normal edge-pattern-solid transition" style="fill:none;;;fill:none" data-edge="true" data-et="edge" data-id="edge6" data-points="W3sieCI6MTA5MC41LCJ5Ijo2NzZ9LHsieCI6MTA5MC41LCJ5Ijo3MDh9LHsieCI6MTA5MC41LCJ5Ijo3Njl9LHsieCI6MTA5MC41LCJ5Ijo4MzB9LHsieCI6MTE0Mi4xMDcxNDI4NTcxNDMsInkiOjg5OH1d" data-look="classic" marker-end="url(#my-svg_stateDiagram-barbEnd)"/><path d="M1242.286,898L1259.488,886.667C1276.69,875.333,1311.095,852.667,1328.298,831.167C1345.5,809.667,1345.5,789.333,1345.5,769C1345.5,748.667,1345.5,728.333,1345.5,705.5C1345.5,682.667,1345.5,657.333,1345.5,632C1345.5,606.667,1345.5,581.333,1345.5,560.5C1345.5,539.667,1345.5,523.333,1345.5,507C1345.5,490.667,1345.5,474.333,1345.5,451.5C1345.5,428.667,1345.5,399.333,1345.5,370C1345.5,340.667,1345.5,311.333,1345.5,288.5C1345.5,265.667,1345.5,249.333,1264.917,230.132C1184.333,210.93,1023.167,188.86,942.583,177.825L862,166.79" id="my-svg-edge7" class="edge-thickness-normal edge-pattern-solid transition" style="fill:none;;;fill:none" data-edge="true" data-et="edge" data-id="edge7" data-points="W3sieCI6MTI0Mi4yODU3MTQyODU3MTQyLCJ5Ijo4OTh9LHsieCI6MTM0NS41LCJ5Ijo4MzB9LHsieCI6MTM0NS41LCJ5Ijo3Njl9LHsieCI6MTM0NS41LCJ5Ijo3MDh9LHsieCI6MTM0NS41LCJ5Ijo2MzJ9LHsieCI6MTM0NS41LCJ5Ijo1NTZ9LHsieCI6MTM0NS41LCJ5Ijo1MDd9LHsieCI6MTM0NS41LCJ5Ijo0NTh9LHsieCI6MTM0NS41LCJ5IjozNzB9LHsieCI6MTM0NS41LCJ5IjoyODJ9LHsieCI6MTM0NS41LCJ5IjoyMzN9LHsieCI6ODYyLCJ5IjoxNjYuNzg5NTE4MTc0MTMzNTV9XQ==" data-look="classic" marker-end="url(#my-svg_stateDiagram-barbEnd)"/><path d="M704.5,384.521L613.417,396.768C522.333,409.014,340.167,433.507,249.083,453.92C158,474.333,158,490.667,158,507C158,523.333,158,539.667,158,552C158,564.333,158,572.667,158,576.833L158,581" id="my-svg-drain-drain----note-8" class="edge-thickness-normal edge-pattern-solid transition note-edge" style="fill:none;;;fill:none" data-edge="true" data-et="edge" data-id="drain-drain----note-8" data-points="W3sieCI6NzA0LjUsInkiOjM4NC41MjEwMDg0MDMzNjEzNX0seyJ4IjoxNTgsInkiOjQ1OH0seyJ4IjoxNTgsInkiOjUwN30seyJ4IjoxNTgsInkiOjU1Nn0seyJ4IjoxNTgsInkiOjU4MX1d" data-look="classic"/><path d="M451,676L451,681.333C451,686.667,451,697.333,451,712.833C451,728.333,451,748.667,451,769C451,789.333,451,809.667,451,824C451,838.333,451,846.667,451,850.833L451,855" id="my-svg-sync_src-sync_src----note-9" class="edge-thickness-normal edge-pattern-solid transition note-edge" style="fill:none;;;fill:none" data-edge="true" data-et="edge" data-id="sync_src-sync_src----note-9" data-points="W3sieCI6NDUxLCJ5Ijo2NzZ9LHsieCI6NDUxLCJ5Ijo3MDh9LHsieCI6NDUxLCJ5Ijo3Njl9LHsieCI6NDUxLCJ5Ijo4MzB9LHsieCI6NDUxLCJ5Ijo4NTV9XQ==" data-look="classic"/><path d="M1175.5,433L1175.5,437.167C1175.5,441.333,1175.5,449.667,1175.5,462C1175.5,474.333,1175.5,490.667,1175.5,507C1175.5,523.333,1175.5,539.667,1169.535,553.167C1163.57,566.667,1151.64,577.333,1145.675,582.667L1139.711,588" id="my-svg-sync_wait----note-10-sync_wait" class="edge-thickness-normal edge-pattern-solid transition note-edge" style="fill:none;;;fill:none" data-edge="true" data-et="edge" data-id="sync_wait----note-10-sync_wait" data-points="W3sieCI6MTE3NS41LCJ5Ijo0MzN9LHsieCI6MTE3NS41LCJ5Ijo0NTh9LHsieCI6MTE3NS41LCJ5Ijo1MDd9LHsieCI6MTE3NS41LCJ5Ijo1NTZ9LHsieCI6MTEzOS43MTA1MjYzMTU3ODk0LCJ5Ijo1ODh9XQ==" data-look="classic"/><path d="M1175.5,986L1175.5,997.333C1175.5,1008.667,1175.5,1031.333,1175.5,1046.833C1175.5,1062.333,1175.5,1070.667,1175.5,1079C1175.5,1087.333,1175.5,1095.667,1175.5,1104C1175.5,1112.333,1175.5,1120.667,1175.5,1124.833L1175.5,1129" id="my-svg-sync_do-sync_do----note-11" class="edge-thickness-normal edge-pattern-solid transition note-edge" style="fill:none;;;fill:none" data-edge="true" data-et="edge" data-id="sync_do-sync_do----note-11" data-points="W3sieCI6MTE3NS41LCJ5Ijo5ODZ9LHsieCI6MTE3NS41LCJ5IjoxMDU0fSx7IngiOjExNzUuNSwieSI6MTA3OX0seyJ4IjoxMTc1LjUsInkiOjExMDR9LHsieCI6MTE3NS41LCJ5IjoxMTI5fV0=" data-look="classic"/><path d="M786.184,402L782.237,406.8C778.289,411.6,770.395,421.2,783.114,426C795.833,430.8,829.167,430.8,841.886,426C854.605,421.2,846.711,411.6,842.763,406.8L838.816,402" id="my-svg-edge2" class="edge-thickness-normal edge-pattern-solid transition" style="fill:none;;;fill:none" data-edge="true" data-et="edge" data-id="edge2" data-points="W3sieCI6Nzg2LjE4NDIxMDUyNjMxNTgsInkiOjQwMn0seyJ4Ijo3NjIuNSwieSI6NDMwLjh9LHsieCI6ODYyLjUsInkiOjQzMC44fSx7IngiOjgzOC44MTU3ODk0NzM2ODQyLCJ5Ijo0MDJ9XQ==" data-look="classic" marker-end="url(#my-svg_stateDiagram-barbEnd)"/></g><g class="edgeLabels"><g class="edgeLabel" transform="translate(754, 71)"><g class="label" data-id="edge0" transform="translate(-100, -24)"><foreignObject width="200" height="48"><div xmlns="http://www.w3.org/1999/xhtml" class="labelBkg" style="display: table; white-space: break-spaces; line-height: 1.5; max-width: 200px; text-align: center; width: 200px;"><span class="edgeLabel"><p>comptime activate(peel) L105</p></span></div></foreignObject></g></g><g class="edgeLabel" transform="translate(812.5, 233)"><g class="label" data-id="edge1" transform="translate(-100, -24)"><foreignObject width="200" height="48"><div xmlns="http://www.w3.org/1999/xhtml" class="labelBkg" style="display: table; white-space: break-spaces; line-height: 1.5; max-width: 200px; text-align: center; width: 200px;"><span class="edgeLabel"><p>async peel rnc then activate(drain) L66</p></span></div></foreignObject></g></g><g class="edgeLabel" transform="translate(812.5, 470.8)"><g class="label" data-id="edge2" transform="translate(-100, -36)"><foreignObject width="200" height="72"><div xmlns="http://www.w3.org/1999/xhtml" class="labelBkg" style="display: table; white-space: break-spaces; line-height: 1.5; max-width: 200px; text-align: center; width: 200px;"><span class="edgeLabel"><p>async seg drain while seg_idx&lt;=n_segs activate(drain) L72</p></span></div></foreignObject></g></g><g class="edgeLabel" transform="translate(389.5, 507)"><g class="label" data-id="edge3" transform="translate(-100, -24)"><foreignObject width="200" height="48"><div xmlns="http://www.w3.org/1999/xhtml" class="labelBkg" style="display: table; white-space: break-spaces; line-height: 1.5; max-width: 200px; text-align: center; width: 200px;"><span class="edgeLabel"><p>call activate(after_drain) tail branch L75</p></span></div></foreignObject></g></g><g class="edgeLabel" transform="translate(1005.5, 507)"><g class="label" data-id="edge4" transform="translate(-100, -24)"><foreignObject width="200" height="48"><div xmlns="http://www.w3.org/1999/xhtml" class="labelBkg" style="display: table; white-space: break-spaces; line-height: 1.5; max-width: 200px; text-align: center; width: 200px;"><span class="edgeLabel"><p>call activate(after_drain) non-tail branch L75</p></span></div></foreignObject></g></g><g class="edgeLabel" transform="translate(511, 370)"><g class="label" data-id="edge5" transform="translate(-100, -24)"><foreignObject width="200" height="48"><div xmlns="http://www.w3.org/1999/xhtml" class="labelBkg" style="display: table; white-space: break-spaces; line-height: 1.5; max-width: 200px; text-align: center; width: 200px;"><span class="edgeLabel"><p>call activate(peel) re-arm L88</p></span></div></foreignObject></g></g><g class="edgeLabel" transform="translate(1090.5, 769)"><g class="label" data-id="edge6" transform="translate(-100, -24)"><foreignObject width="200" height="48"><div xmlns="http://www.w3.org/1999/xhtml" class="labelBkg" style="display: table; white-space: break-spaces; line-height: 1.5; max-width: 200px; text-align: center; width: 200px;"><span class="edgeLabel"><p>async park on round_sync activate(sync_do) L94</p></span></div></foreignObject></g></g><g class="edgeLabel" transform="translate(1345.5, 507)"><g class="label" data-id="edge7" transform="translate(-100, -24)"><foreignObject width="200" height="48"><div xmlns="http://www.w3.org/1999/xhtml" class="labelBkg" style="display: table; white-space: break-spaces; line-height: 1.5; max-width: 200px; text-align: center; width: 200px;"><span class="edgeLabel"><p>call activate(peel) re-arm L99</p></span></div></foreignObject></g></g><g class="edgeLabel"><g class="label" data-id="drain-drain----note-8" transform="translate(0, 0)"><foreignObject width="0" height="0"><div xmlns="http://www.w3.org/1999/xhtml" class="labelBkg" style="display: table-cell; white-space: nowrap; line-height: 1.5; max-width: 200px; text-align: center;"><span class="edgeLabel"></span></div></foreignObject></g></g><g class="edgeLabel"><g class="label" data-id="sync_src-sync_src----note-9" transform="translate(0, 0)"><foreignObject width="0" height="0"><div xmlns="http://www.w3.org/1999/xhtml" class="labelBkg" style="display: table-cell; white-space: nowrap; line-height: 1.5; max-width: 200px; text-align: center;"><span class="edgeLabel"></span></div></foreignObject></g></g><g class="edgeLabel"><g class="label" data-id="sync_wait----note-10-sync_wait" transform="translate(0, 0)"><foreignObject width="0" height="0"><div xmlns="http://www.w3.org/1999/xhtml" class="labelBkg" style="display: table-cell; white-space: nowrap; line-height: 1.5; max-width: 200px; text-align: center;"><span class="edgeLabel"></span></div></foreignObject></g></g><g class="edgeLabel"><g class="label" data-id="sync_do-sync_do----note-11" transform="translate(0, 0)"><foreignObject width="0" height="0"><div xmlns="http://www.w3.org/1999/xhtml" class="labelBkg" style="display: table-cell; white-space: nowrap; line-height: 1.5; max-width: 200px; text-align: center;"><span class="edgeLabel"></span></div></foreignObject></g></g></g><g class="nodes"><g class="node  statediagram-state" id="my-svg-state-peel_meta-7" data-look="classic" transform="translate(754, 152)"><rect class="basic label-container" style="" rx="5" ry="5" x="-108" y="-32" width="216" height="64"/><g class="label" style="" transform="translate(-100, -24)"><rect/><foreignObject width="200" height="48"><div xmlns="http://www.w3.org/1999/xhtml" style="display: table; white-space: break-spaces; line-height: 1.5; max-width: 200px; text-align: center; width: 200px;"><span class="nodeLabel markdown-node-label"><p>peel_meta — peel rnc header (task 8)</p></span></div></foreignObject></g></g><g class="node  statediagram-state" id="my-svg-state-drain-8" data-look="classic" transform="translate(812.5, 370)"><rect class="basic label-container" style="" rx="5" ry="5" x="-108" y="-32" width="216" height="64"/><g class="label" style="" transform="translate(-100, -24)"><rect/><foreignObject width="200" height="48"><div xmlns="http://www.w3.org/1999/xhtml" style="display: table; white-space: break-spaces; line-height: 1.5; max-width: 200px; text-align: center; width: 200px;"><span class="nodeLabel markdown-node-label"><p>drain — segmented NORTH drain (task 9)</p></span></div></foreignObject></g></g><g class="node  statediagram-state" id="my-svg-state-sync_src-9" data-look="classic" transform="translate(451, 632)"><rect class="basic label-container" style="" rx="5" ry="5" x="-108" y="-44" width="216" height="88"/><g class="label" style="" transform="translate(-100, -36)"><rect/><foreignObject width="200" height="72"><div xmlns="http://www.w3.org/1999/xhtml" style="display: table; white-space: break-spaces; line-height: 1.5; max-width: 200px; text-align: center; width: 200px;"><span class="nodeLabel markdown-node-label"><p>sync_src — TAIL post-drain source + self re-arm (task 10)</p></span></div></foreignObject></g></g><g class="node  statediagram-state" id="my-svg-state-sync_wait-10" data-look="classic" transform="translate(1090.5, 632)"><rect class="basic label-container" style="" rx="5" ry="5" x="-108" y="-44" width="216" height="88"/><g class="label" style="" transform="translate(-100, -36)"><rect/><foreignObject width="200" height="72"><div xmlns="http://www.w3.org/1999/xhtml" style="display: table; white-space: break-spaces; line-height: 1.5; max-width: 200px; text-align: center; width: 200px;"><span class="nodeLabel markdown-node-label"><p>sync_wait — NON-TAIL SWITCH_ADV then park (task 10)</p></span></div></foreignObject></g></g><g class="node  statediagram-state" id="my-svg-state-sync_do-11" data-look="classic" transform="translate(1175.5, 942)"><rect class="basic label-container" style="" rx="5" ry="5" x="-108" y="-44" width="216" height="88"/><g class="label" style="" transform="translate(-100, -36)"><rect/><foreignObject width="200" height="72"><div xmlns="http://www.w3.org/1999/xhtml" style="display: table; white-space: break-spaces; line-height: 1.5; max-width: 200px; text-align: center; width: 200px;"><span class="nodeLabel markdown-node-label"><p>sync_do — NON-TAIL reset switch + re-arm (task 11)</p></span></div></foreignObject></g></g><g class="node default" id="my-svg-state-root_start-0" data-look="classic" transform="translate(754, 15)"><circle class="state-start" r="7" width="14" height="14"/></g><g class="node statediagram-note" id="my-svg-state-drain----note-8" data-look="classic" transform="translate(158, 632)"><g class="basic label-container outer-path"><path d="M-115 -51 L115 -51 L115 51 L-115 51" stroke="none" stroke-width="0" fill="#fff5ad" style=""/><path d="M-115 -51 C-30.06618337156985 -51, 54.8676332568603 -51, 115 -51 M-115 -51 C-57.82705598986971 -51, -0.6541119797394259 -51, 115 -51 M115 -51 C115 -29.175895760388187, 115 -7.3517915207763735, 115 51 M115 -51 C115 -22.66579449801662, 115 5.66841100396676, 115 51 M115 51 C53.89332078820959 51, -7.213358423580814 51, -115 51 M115 51 C25.78569467890719 51, -63.42861064218562 51, -115 51 M-115 51 C-115 21.44006984589036, -115 -8.11986030821928, -115 -51 M-115 51 C-115 28.432455164462233, -115 5.864910328924466, -115 -51" stroke="#aaaa33" stroke-width="1.3" fill="none" stroke-dasharray="0 0" style=""/></g><g class="label noteLabel" style="" transform="translate(-100, -36)"><rect/><foreignObject width="200" height="72"><div xmlns="http://www.w3.org/1999/xhtml" style="display: table; white-space: break-spaces; line-height: 1.5; max-width: 200px; text-align: center; width: 200px;"><span class="nodeLabel markdown-node-label"><p>self-loop = the per-segment fabin to fabout mov32 (row never lands in PE mem)</p></span></div></foreignObject></g></g><g class="node statediagram-note" id="my-svg-state-sync_src----note-9" data-look="classic" transform="translate(451, 942)"><g class="basic label-container outer-path"><path d="M-115 -87 L115 -87 L115 87 L-115 87" stroke="none" stroke-width="0" fill="#fff5ad" style=""/><path d="M-115 -87 C-55.59544865133278 -87, 3.8091026973344384 -87, 115 -87 M-115 -87 C-32.72862699173511 -87, 49.542746016529776 -87, 115 -87 M115 -87 C115 -27.776463620779914, 115 31.44707275844017, 115 87 M115 -87 C115 -41.627126328157445, 115 3.7457473436851103, 115 87 M115 87 C38.9083455014988 87, -37.1833089970024 87, -115 87 M115 87 C38.70875065291696 87, -37.58249869416608 87, -115 87 M-115 87 C-115 41.50536915695929, -115 -3.98926168608142, -115 -87 M-115 87 C-115 20.397332198221704, -115 -46.20533560355659, -115 -87" stroke="#aaaa33" stroke-width="1.3" fill="none" stroke-dasharray="0 0" style=""/></g><g class="label noteLabel" style="" transform="translate(-100, -72)"><rect/><foreignObject width="200" height="144"><div xmlns="http://www.w3.org/1999/xhtml" style="display: table; white-space: break-spaces; line-height: 1.5; max-width: 200px; text-align: center; width: 200px;"><span class="nodeLabel markdown-node-label"><p>side-effect L85 fire-and-forget mov32 sources round_sync NORTH (no callback, no edge)<br />clear_current_position is a no-op (tail never left pos0)</p></span></div></foreignObject></g></g><g class="node statediagram-note" id="my-svg-state-sync_wait----note-10" data-look="classic" transform="translate(1175.5, 370)"><g class="basic label-container outer-path"><path d="M-115 -63 L115 -63 L115 63 L-115 63" stroke="none" stroke-width="0" fill="#fff5ad" style=""/><path d="M-115 -63 C-46.99921835534555 -63, 21.001563289308905 -63, 115 -63 M-115 -63 C-56.27438827342477 -63, 2.4512234531504618 -63, 115 -63 M115 -63 C115 -31.669301605500497, 115 -0.33860321100099355, 115 63 M115 -63 C115 -16.89285710581325, 115 29.214285788373502, 115 63 M115 63 C39.015873026721266 63, -36.96825394655747 63, -115 63 M115 63 C37.180327115509925 63, -40.63934576898015 63, -115 63 M-115 63 C-115 36.008719355619164, -115 9.01743871123832, -115 -63 M-115 63 C-115 13.224120389993018, -115 -36.55175922001396, -115 -63" stroke="#aaaa33" stroke-width="1.3" fill="none" stroke-dasharray="0 0" style=""/></g><g class="label noteLabel" style="" transform="translate(-100, -48)"><rect/><foreignObject width="200" height="96"><div xmlns="http://www.w3.org/1999/xhtml" style="display: table; white-space: break-spaces; line-height: 1.5; max-width: 200px; text-align: center; width: 200px;"><span class="nodeLabel markdown-node-label"><p>side-effect L93 synchronous ctrl mov32 emits SWITCH_ADV (no callback, no edge)</p></span></div></foreignObject></g></g><g class="node statediagram-note" id="my-svg-state-sync_do----note-11" data-look="classic" transform="translate(1175.5, 1216)"><g class="basic label-container outer-path"><path d="M-115 -87 L115 -87 L115 87 L-115 87" stroke="none" stroke-width="0" fill="#fff5ad" style=""/><path d="M-115 -87 C-60.20939708842342 -87, -5.418794176846845 -87, 115 -87 M-115 -87 C-35.55950725762378 -87, 43.88098548475244 -87, 115 -87 M115 -87 C115 -41.92829396947427, 115 3.143412061051464, 115 87 M115 -87 C115 -44.04641321343324, 115 -1.0928264268664805, 115 87 M115 87 C52.821052167585705 87, -9.35789566482859 87, -115 87 M115 87 C23.770333185882663 87, -67.45933362823467 87, -115 87 M-115 87 C-115 43.39907824233482, -115 -0.20184351533036704, -115 -87 M-115 87 C-115 31.886810765144432, -115 -23.226378469711136, -115 -87" stroke="#aaaa33" stroke-width="1.3" fill="none" stroke-dasharray="0 0" style=""/></g><g class="label noteLabel" style="" transform="translate(-100, -72)"><rect/><foreignObject width="200" height="144"><div xmlns="http://www.w3.org/1999/xhtml" style="display: table; white-space: break-spaces; line-height: 1.5; max-width: 200px; text-align: center; width: 200px;"><span class="nodeLabel markdown-node-label"><p>COLUMN-FENCE barrier gate: fires only after the tail sentinel<br />threads up through every south PE (all rows below drained)</p></span></div></foreignObject></g></g><g class="label edgeLabel" id="drain---drain---1" transform="translate(754, 632)"><rect width="0.1" height="0.1"/><g class="label" style="" transform="translate(0, 0)"><rect/><foreignObject width="0" height="0"><div xmlns="http://www.w3.org/1999/xhtml" style="display: table-cell; white-space: nowrap; line-height: 1.5; max-width: 10px; text-align: center;"><span class="nodeLabel"></span></div></foreignObject></g></g><g class="label edgeLabel" id="drain---drain---2" transform="translate(814, 942)"><rect width="0.1" height="0.1"/><g class="label" style="" transform="translate(0, 0)"><rect/><foreignObject width="0" height="0"><div xmlns="http://www.w3.org/1999/xhtml" style="display: table-cell; white-space: nowrap; line-height: 1.5; max-width: 10px; text-align: center;"><span class="nodeLabel"></span></div></foreignObject></g></g></g></g></g><defs><filter id="my-svg-drop-shadow" height="130%" width="130%"><feDropShadow dx="4" dy="4" stdDeviation="0" flood-opacity="0.06" flood-color="#000000"/></filter></defs><defs><filter id="my-svg-drop-shadow-small" height="150%" width="150%"><feDropShadow dx="2" dy="2" stdDeviation="0" flood-opacity="0.06" flood-color="#000000"/></filter></defs></svg>