<svg xmlns="http://www.w3.org/2000/svg" width="1580" height="700" viewBox="0 0 1580 700" font-family="ui-sans-serif,Segoe UI,Helvetica,Arial">
<rect width="1580" height="700" fill="#f7f9fb"/>
<text x="50" y="42" font-size="22" font-weight="700" fill="#0d1b26" text-anchor="start">Prefill prefix reuse on WSE-3 — measured device results</text>
<text x="50" y="68" font-size="13" font-weight="500" fill="#4a5b66" text-anchor="start">524,288 PEs (Pw 512 x Ph 1024), 28 layers, dim 2048, vocab 151,936. Pure on-device single-request latency: host stream preparation and logit post-processing are outside the timed window.</text>
<text x="50" y="88" font-size="13" font-weight="500" fill="#4a5b66" text-anchor="start">n = 1 run per point, no repeats — variance uncharacterised. Every reuse point verified BYTE-IDENTICAL to its cold round.</text>
<line x1="50" y1="112" x2="76" y2="112" stroke="#2a78d6" stroke-width="2"/>
<circle cx="63" cy="112" r="4.5" fill="#2a78d6" stroke="#f7f9fb" stroke-width="2"/>
<text x="84" y="116" font-size="13" font-weight="600" fill="#0d1b26" text-anchor="start">prompt = 8,192 tokens (32 chunks)</text>
<line x1="300" y1="112" x2="326" y2="112" stroke="#008300" stroke-width="2"/>
<circle cx="313" cy="112" r="4.5" fill="#008300" stroke="#f7f9fb" stroke-width="2"/>
<text x="334" y="116" font-size="13" font-weight="600" fill="#0d1b26" text-anchor="start">prompt = 16,384 tokens (64 chunks)</text>
<line x1="96" y1="190" x2="96" y2="535" stroke="#dce4ea" stroke-width="1.2"/>
<line x1="96" y1="535" x2="496" y2="535" stroke="#dce4ea" stroke-width="1.2"/>
<text x="96" y="156" font-size="16" font-weight="700" fill="#0d1b26" text-anchor="start">Latency per request</text>
<text x="96" y="175" font-size="12" font-weight="500" fill="#4a5b66" text-anchor="start">milliseconds, lower is better</text>
<text x="86" y="539.0" font-size="11" font-weight="500" fill="#8a97a0" text-anchor="end">0</text>
<line x1="96" y1="430.5" x2="496" y2="430.5" stroke="#dce4ea" stroke-width="1" stroke-dasharray="3 4"/>
<text x="86" y="434.45454545454544" font-size="11" font-weight="500" fill="#8a97a0" text-anchor="end">1,000 ms</text>
<line x1="96" y1="325.9" x2="496" y2="325.9" stroke="#dce4ea" stroke-width="1" stroke-dasharray="3 4"/>
<text x="86" y="329.9090909090909" font-size="11" font-weight="500" fill="#8a97a0" text-anchor="end">2,000 ms</text>
<line x1="96" y1="221.4" x2="496" y2="221.4" stroke="#dce4ea" stroke-width="1" stroke-dasharray="3 4"/>
<text x="86" y="225.36363636363637" font-size="11" font-weight="500" fill="#8a97a0" text-anchor="end">3,000 ms</text>
<text x="96.0" y="557" font-size="12" font-weight="500" fill="#4a5b66" text-anchor="middle">0%</text>
<text x="229.33333333333331" y="557" font-size="12" font-weight="500" fill="#4a5b66" text-anchor="middle">25%</text>
<text x="362.66666666666663" y="557" font-size="12" font-weight="500" fill="#4a5b66" text-anchor="middle">50%</text>
<text x="496.0" y="557" font-size="12" font-weight="500" fill="#4a5b66" text-anchor="middle">75%</text>
<text x="296.0" y="579" font-size="12.5" font-weight="600" fill="#4a5b66" text-anchor="middle">share of the prompt reused</text>
<polyline points="96.0,430.3 229.3,438.4 362.7,454.2 496.0,477.6" fill="none" stroke="#2a78d6" stroke-width="2"/>
<circle cx="96.0" cy="430.3" r="5" fill="#2a78d6" stroke="#f7f9fb" stroke-width="2"/>
<circle cx="229.3" cy="438.4" r="5" fill="#2a78d6" stroke="#f7f9fb" stroke-width="2"/>
<circle cx="362.7" cy="454.2" r="5" fill="#2a78d6" stroke="#f7f9fb" stroke-width="2"/>
<circle cx="496.0" cy="477.6" r="5" fill="#2a78d6" stroke="#f7f9fb" stroke-width="2"/>
<text x="507.0" y="492.6" font-size="12.5" font-weight="700" fill="#0d1b26">549 ms</text>
<polyline points="96.0,206.2 229.3,230.1 362.7,284.6 496.0,369.8" fill="none" stroke="#008300" stroke-width="2"/>
<circle cx="96.0" cy="206.2" r="5" fill="#008300" stroke="#f7f9fb" stroke-width="2"/>
<circle cx="229.3" cy="230.1" r="5" fill="#008300" stroke="#f7f9fb" stroke-width="2"/>
<circle cx="362.7" cy="284.6" r="5" fill="#008300" stroke="#f7f9fb" stroke-width="2"/>
<circle cx="496.0" cy="369.8" r="5" fill="#008300" stroke="#f7f9fb" stroke-width="2"/>
<text x="507.0" y="357.8" font-size="12.5" font-weight="700" fill="#0d1b26">1,580 ms</text>
<line x1="596" y1="190" x2="596" y2="535" stroke="#dce4ea" stroke-width="1.2"/>
<line x1="596" y1="535" x2="996" y2="535" stroke="#dce4ea" stroke-width="1.2"/>
<text x="596" y="156" font-size="16" font-weight="700" fill="#0d1b26" text-anchor="start">Throughput per request</text>
<text x="596" y="175" font-size="12" font-weight="500" fill="#4a5b66" text-anchor="start">tokens/s, higher is better</text>
<text x="586" y="539.0" font-size="11" font-weight="500" fill="#8a97a0" text-anchor="end">0</text>
<line x1="596" y1="448.8" x2="996" y2="448.8" stroke="#dce4ea" stroke-width="1" stroke-dasharray="3 4"/>
<text x="586" y="452.75" font-size="11" font-weight="500" fill="#8a97a0" text-anchor="end">4,000</text>
<line x1="596" y1="362.5" x2="996" y2="362.5" stroke="#dce4ea" stroke-width="1" stroke-dasharray="3 4"/>
<text x="586" y="366.5" font-size="11" font-weight="500" fill="#8a97a0" text-anchor="end">8,000</text>
<line x1="596" y1="276.2" x2="996" y2="276.2" stroke="#dce4ea" stroke-width="1" stroke-dasharray="3 4"/>
<text x="586" y="280.25" font-size="11" font-weight="500" fill="#8a97a0" text-anchor="end">12,000</text>
<line x1="596" y1="190.0" x2="996" y2="190.0" stroke="#dce4ea" stroke-width="1" stroke-dasharray="3 4"/>
<text x="586" y="194.0" font-size="11" font-weight="500" fill="#8a97a0" text-anchor="end">16,000</text>
<text x="596.0" y="557" font-size="12" font-weight="500" fill="#4a5b66" text-anchor="middle">0%</text>
<text x="729.3333333333333" y="557" font-size="12" font-weight="500" fill="#4a5b66" text-anchor="middle">25%</text>
<text x="862.6666666666666" y="557" font-size="12" font-weight="500" fill="#4a5b66" text-anchor="middle">50%</text>
<text x="996.0" y="557" font-size="12" font-weight="500" fill="#4a5b66" text-anchor="middle">75%</text>
<text x="796.0" y="579" font-size="12.5" font-weight="600" fill="#4a5b66" text-anchor="middle">share of the prompt reused</text>
<polyline points="596.0,358.6 729.3,343.8 862.7,306.6 996.0,213.4" fill="none" stroke="#2a78d6" stroke-width="2"/>
<circle cx="596.0" cy="358.6" r="5" fill="#2a78d6" stroke="#f7f9fb" stroke-width="2"/>
<circle cx="729.3" cy="343.8" r="5" fill="#2a78d6" stroke="#f7f9fb" stroke-width="2"/>
<circle cx="862.7" cy="306.6" r="5" fill="#2a78d6" stroke="#f7f9fb" stroke-width="2"/>
<circle cx="996.0" cy="213.4" r="5" fill="#2a78d6" stroke="#f7f9fb" stroke-width="2"/>
<text x="1007.0" y="228.4" font-size="12.5" font-weight="700" fill="#0d1b26">14,916</text>
<polyline points="596.0,422.7 729.3,413.9 862.7,387.5 996.0,311.4" fill="none" stroke="#008300" stroke-width="2"/>
<circle cx="596.0" cy="422.7" r="5" fill="#008300" stroke="#f7f9fb" stroke-width="2"/>
<circle cx="729.3" cy="413.9" r="5" fill="#008300" stroke="#f7f9fb" stroke-width="2"/>
<circle cx="862.7" cy="387.5" r="5" fill="#008300" stroke="#f7f9fb" stroke-width="2"/>
<circle cx="996.0" cy="311.4" r="5" fill="#008300" stroke="#f7f9fb" stroke-width="2"/>
<text x="1007.0" y="299.4" font-size="12.5" font-weight="700" fill="#0d1b26">10,368</text>
<line x1="1096" y1="190" x2="1096" y2="535" stroke="#dce4ea" stroke-width="1.2"/>
<line x1="1096" y1="535" x2="1496" y2="535" stroke="#dce4ea" stroke-width="1.2"/>
<text x="1096" y="156" font-size="16" font-weight="700" fill="#0d1b26" text-anchor="start">Time saved vs no reuse</text>
<text x="1096" y="175" font-size="12" font-weight="500" fill="#4a5b66" text-anchor="start">percent of the cold-run latency</text>
<text x="1086" y="539.0" font-size="11" font-weight="500" fill="#8a97a0" text-anchor="end">0%</text>
<line x1="1096" y1="466.0" x2="1496" y2="466.0" stroke="#dce4ea" stroke-width="1" stroke-dasharray="3 4"/>
<text x="1086" y="470.0" font-size="11" font-weight="500" fill="#8a97a0" text-anchor="end">10.0%</text>
<line x1="1096" y1="397.0" x2="1496" y2="397.0" stroke="#dce4ea" stroke-width="1" stroke-dasharray="3 4"/>
<text x="1086" y="401.0" font-size="11" font-weight="500" fill="#8a97a0" text-anchor="end">20.0%</text>
<line x1="1096" y1="328.0" x2="1496" y2="328.0" stroke="#dce4ea" stroke-width="1" stroke-dasharray="3 4"/>
<text x="1086" y="332.0" font-size="11" font-weight="500" fill="#8a97a0" text-anchor="end">30.0%</text>
<line x1="1096" y1="259.0" x2="1496" y2="259.0" stroke="#dce4ea" stroke-width="1" stroke-dasharray="3 4"/>
<text x="1086" y="263.0" font-size="11" font-weight="500" fill="#8a97a0" text-anchor="end">40.0%</text>
<line x1="1096" y1="190.0" x2="1496" y2="190.0" stroke="#dce4ea" stroke-width="1" stroke-dasharray="3 4"/>
<text x="1086" y="194.0" font-size="11" font-weight="500" fill="#8a97a0" text-anchor="end">50.0%</text>
<text x="1096.0" y="557" font-size="12" font-weight="500" fill="#4a5b66" text-anchor="middle">0%</text>
<text x="1229.3333333333333" y="557" font-size="12" font-weight="500" fill="#4a5b66" text-anchor="middle">25%</text>
<text x="1362.6666666666665" y="557" font-size="12" font-weight="500" fill="#4a5b66" text-anchor="middle">50%</text>
<text x="1496.0" y="557" font-size="12" font-weight="500" fill="#4a5b66" text-anchor="middle">75%</text>
<text x="1296.0" y="579" font-size="12.5" font-weight="600" fill="#4a5b66" text-anchor="middle">share of the prompt reused</text>
<polyline points="1096.0,535.0 1229.3,481.7 1362.7,377.8 1496.0,223.4" fill="none" stroke="#2a78d6" stroke-width="2"/>
<circle cx="1096.0" cy="535.0" r="5" fill="#2a78d6" stroke="#f7f9fb" stroke-width="2"/>
<circle cx="1229.3" cy="481.7" r="5" fill="#2a78d6" stroke="#f7f9fb" stroke-width="2"/>
<circle cx="1362.7" cy="377.8" r="5" fill="#2a78d6" stroke="#f7f9fb" stroke-width="2"/>
<circle cx="1496.0" cy="223.4" r="5" fill="#2a78d6" stroke="#f7f9fb" stroke-width="2"/>
<text x="1507.0" y="238.4" font-size="12.5" font-weight="700" fill="#0d1b26">45.2%</text>
<polyline points="1096.0,535.0 1229.3,485.0 1362.7,370.5 1496.0,191.7" fill="none" stroke="#008300" stroke-width="2"/>
<circle cx="1096.0" cy="535.0" r="5" fill="#008300" stroke="#f7f9fb" stroke-width="2"/>
<circle cx="1229.3" cy="485.0" r="5" fill="#008300" stroke="#f7f9fb" stroke-width="2"/>
<circle cx="1362.7" cy="370.5" r="5" fill="#008300" stroke="#f7f9fb" stroke-width="2"/>
<circle cx="1496.0" cy="191.7" r="5" fill="#008300" stroke="#f7f9fb" stroke-width="2"/>
<text x="1507.0" y="179.7" font-size="12.5" font-weight="700" fill="#0d1b26">49.8%</text>
<rect x="1096" y="599" width="460" height="90" rx="6" fill="#eef4fa" stroke="#245f96" stroke-width="1.4"/>
<text x="1110" y="620" font-size="13" font-weight="700" fill="#12356a" text-anchor="start">Fraction sets the saving; length is a second-order effect.</text>
<text x="1110" y="638" font-size="12.5" font-weight="500" fill="#4a5b66" text-anchor="start">Saving  L=8192 vs 16384:  25% -> 7.7/7.3,  50% -> 22.8/23.8,</text>
<text x="1110" y="655" font-size="12.5" font-weight="500" fill="#4a5b66" text-anchor="start">75% -> 45.2/49.8.  The gap grows with reuse and favours</text>
<text x="1110" y="672" font-size="12.5" font-weight="500" fill="#4a5b66" text-anchor="start">the LONGER prompt — its skipped chunks are the pricier ones.</text>
<text x="96" y="613" font-size="12.5" font-weight="500" fill="#4a5b66" text-anchor="start">Reuse is strongly sub-linear: half the prompt cached</text>
<text x="96" y="630" font-size="12.5" font-weight="500" fill="#4a5b66" text-anchor="start">buys well under a quarter of the time. A chunk's cost</text>
<text x="96" y="647" font-size="12.5" font-weight="500" fill="#4a5b66" text-anchor="start">grows with the text before it, so the reused prefix is</text>
<text x="96" y="664" font-size="12.5" font-weight="500" fill="#4a5b66" text-anchor="start">always the cheapest part of the request.</text>
<text x="596" y="613" font-size="12.5" font-weight="500" fill="#4a5b66" text-anchor="start">Both prompt lengths now measured at all four reuse</text>
<text x="596" y="630" font-size="12.5" font-weight="500" fill="#4a5b66" text-anchor="start">fractions (0 / 25 / 50 / 75%), 524,288 PEs, n=1 each.</text>
<text x="596" y="647" font-size="12.5" font-weight="500" fill="#4a5b66" text-anchor="start">Decode side (not shown): retain saves -49.3% at</text>
<text x="596" y="664" font-size="12.5" font-weight="500" fill="#4a5b66" text-anchor="start">MAX_SEQ 4096, -34.6% at 1024 — set by the redo pattern.</text>
</svg>