<svg xmlns="http://www.w3.org/2000/svg" viewBox="0 0 536 566" width="536" height="566">
<defs><marker id="ab" markerWidth="8" markerHeight="8" refX="6" refY="3" orient="auto"><path d="M0,0 L6,3 L0,6 z" fill="#4285f4"/></marker><marker id="ag" markerWidth="8" markerHeight="8" refX="6" refY="3" orient="auto"><path d="M0,0 L6,3 L0,6 z" fill="#34a853"/></marker><marker id="ar" markerWidth="11" markerHeight="11" refX="7" refY="4" orient="auto"><path d="M0,0 L8,4 L0,8 z" fill="#ea4335"/></marker></defs>
<rect x="0" y="0" width="536" height="566" fill="#fafafa"/>
<rect x="44" y="44" width="56" height="56" fill="#fde6b0" stroke="#cccccc"/>
<rect x="100" y="44" width="56" height="56" fill="#ffffff" stroke="#cccccc"/>
<rect x="156" y="44" width="56" height="56" fill="#ffffff" stroke="#cccccc"/>
<rect x="212" y="44" width="56" height="56" fill="#ffffff" stroke="#cccccc"/>
<rect x="268" y="44" width="56" height="56" fill="#ffffff" stroke="#cccccc"/>
<rect x="324" y="44" width="56" height="56" fill="#ffffff" stroke="#cccccc"/>
<rect x="380" y="44" width="56" height="56" fill="#ffffff" stroke="#cccccc"/>
<rect x="436" y="44" width="56" height="56" fill="#ffffff" stroke="#cccccc"/>
<rect x="44" y="100" width="56" height="56" fill="#ffffff" stroke="#cccccc"/>
<rect x="100" y="100" width="56" height="56" fill="#fde6b0" stroke="#cccccc"/>
<rect x="156" y="100" width="56" height="56" fill="#ffffff" stroke="#cccccc"/>
<rect x="212" y="100" width="56" height="56" fill="#ffffff" stroke="#cccccc"/>
<rect x="268" y="100" width="56" height="56" fill="#ffffff" stroke="#cccccc"/>
<rect x="324" y="100" width="56" height="56" fill="#ffffff" stroke="#cccccc"/>
<rect x="380" y="100" width="56" height="56" fill="#ffffff" stroke="#cccccc"/>
<rect x="436" y="100" width="56" height="56" fill="#ffffff" stroke="#cccccc"/>
<rect x="44" y="156" width="56" height="56" fill="#ffffff" stroke="#cccccc"/>
<rect x="100" y="156" width="56" height="56" fill="#ffffff" stroke="#cccccc"/>
<rect x="156" y="156" width="56" height="56" fill="#fde6b0" stroke="#cccccc"/>
<rect x="212" y="156" width="56" height="56" fill="#ffffff" stroke="#cccccc"/>
<rect x="268" y="156" width="56" height="56" fill="#ffffff" stroke="#cccccc"/>
<rect x="324" y="156" width="56" height="56" fill="#ffffff" stroke="#cccccc"/>
<rect x="380" y="156" width="56" height="56" fill="#ffffff" stroke="#cccccc"/>
<rect x="436" y="156" width="56" height="56" fill="#ffffff" stroke="#cccccc"/>
<rect x="44" y="212" width="56" height="56" fill="#ffffff" stroke="#cccccc"/>
<rect x="100" y="212" width="56" height="56" fill="#ffffff" stroke="#cccccc"/>
<rect x="156" y="212" width="56" height="56" fill="#ffffff" stroke="#cccccc"/>
<rect x="212" y="212" width="56" height="56" fill="#fde6b0" stroke="#cccccc"/>
<rect x="268" y="212" width="56" height="56" fill="#ffffff" stroke="#cccccc"/>
<rect x="324" y="212" width="56" height="56" fill="#ffffff" stroke="#cccccc"/>
<rect x="380" y="212" width="56" height="56" fill="#ffffff" stroke="#cccccc"/>
<rect x="436" y="212" width="56" height="56" fill="#ffffff" stroke="#cccccc"/>
<rect x="44" y="268" width="56" height="56" fill="#ffffff" stroke="#cccccc"/>
<rect x="100" y="268" width="56" height="56" fill="#ffffff" stroke="#cccccc"/>
<rect x="156" y="268" width="56" height="56" fill="#ffffff" stroke="#cccccc"/>
<rect x="212" y="268" width="56" height="56" fill="#ffffff" stroke="#cccccc"/>
<rect x="268" y="268" width="56" height="56" fill="#fde6b0" stroke="#cccccc"/>
<rect x="324" y="268" width="56" height="56" fill="#ffffff" stroke="#cccccc"/>
<rect x="380" y="268" width="56" height="56" fill="#ffffff" stroke="#cccccc"/>
<rect x="436" y="268" width="56" height="56" fill="#ffffff" stroke="#cccccc"/>
<rect x="44" y="324" width="56" height="56" fill="#ffffff" stroke="#cccccc"/>
<rect x="100" y="324" width="56" height="56" fill="#ffffff" stroke="#cccccc"/>
<rect x="156" y="324" width="56" height="56" fill="#ffffff" stroke="#cccccc"/>
<rect x="212" y="324" width="56" height="56" fill="#ffffff" stroke="#cccccc"/>
<rect x="268" y="324" width="56" height="56" fill="#ffffff" stroke="#cccccc"/>
<rect x="324" y="324" width="56" height="56" fill="#fde6b0" stroke="#cccccc"/>
<rect x="380" y="324" width="56" height="56" fill="#ffffff" stroke="#cccccc"/>
<rect x="436" y="324" width="56" height="56" fill="#ffffff" stroke="#cccccc"/>
<rect x="44" y="380" width="56" height="56" fill="#ffffff" stroke="#cccccc"/>
<rect x="100" y="380" width="56" height="56" fill="#ffffff" stroke="#cccccc"/>
<rect x="156" y="380" width="56" height="56" fill="#ffffff" stroke="#cccccc"/>
<rect x="212" y="380" width="56" height="56" fill="#ffffff" stroke="#cccccc"/>
<rect x="268" y="380" width="56" height="56" fill="#ffffff" stroke="#cccccc"/>
<rect x="324" y="380" width="56" height="56" fill="#ffffff" stroke="#cccccc"/>
<rect x="380" y="380" width="56" height="56" fill="#fde6b0" stroke="#cccccc"/>
<rect x="436" y="380" width="56" height="56" fill="#ffffff" stroke="#cccccc"/>
<rect x="44" y="436" width="56" height="56" fill="#ffffff" stroke="#cccccc"/>
<rect x="100" y="436" width="56" height="56" fill="#ffffff" stroke="#cccccc"/>
<rect x="156" y="436" width="56" height="56" fill="#ffffff" stroke="#cccccc"/>
<rect x="212" y="436" width="56" height="56" fill="#ffffff" stroke="#cccccc"/>
<rect x="268" y="436" width="56" height="56" fill="#ffffff" stroke="#cccccc"/>
<rect x="324" y="436" width="56" height="56" fill="#ffffff" stroke="#cccccc"/>
<rect x="380" y="436" width="56" height="56" fill="#ffffff" stroke="#cccccc"/>
<rect x="436" y="436" width="56" height="56" fill="#fde6b0" stroke="#cccccc"/>
<line x1="128" y1="62" x2="55" y2="62" stroke="#4285f4" stroke-width="1.3" opacity="0.30" marker-end="url(#ab)"/>
<line x1="184" y1="62" x2="55" y2="62" stroke="#4285f4" stroke-width="1.3" opacity="0.30" marker-end="url(#ab)"/>
<line x1="240" y1="62" x2="55" y2="62" stroke="#4285f4" stroke-width="1.3" opacity="0.30" marker-end="url(#ab)"/>
<line x1="296" y1="62" x2="55" y2="62" stroke="#4285f4" stroke-width="1.3" opacity="0.30" marker-end="url(#ab)"/>
<line x1="352" y1="62" x2="55" y2="62" stroke="#4285f4" stroke-width="1.3" opacity="0.30" marker-end="url(#ab)"/>
<line x1="408" y1="62" x2="55" y2="62" stroke="#4285f4" stroke-width="1.3" opacity="0.30" marker-end="url(#ab)"/>
<line x1="464" y1="62" x2="55" y2="62" stroke="#4285f4" stroke-width="1.3" opacity="0.30" marker-end="url(#ab)"/>
<line x1="72" y1="118" x2="145" y2="118" stroke="#4285f4" stroke-width="1.3" opacity="0.30" marker-end="url(#ab)"/>
<line x1="184" y1="118" x2="111" y2="118" stroke="#4285f4" stroke-width="1.3" opacity="0.30" marker-end="url(#ab)"/>
<line x1="240" y1="118" x2="111" y2="118" stroke="#4285f4" stroke-width="1.3" opacity="0.30" marker-end="url(#ab)"/>
<line x1="296" y1="118" x2="111" y2="118" stroke="#4285f4" stroke-width="1.3" opacity="0.30" marker-end="url(#ab)"/>
<line x1="352" y1="118" x2="111" y2="118" stroke="#4285f4" stroke-width="1.3" opacity="0.30" marker-end="url(#ab)"/>
<line x1="408" y1="118" x2="111" y2="118" stroke="#4285f4" stroke-width="1.3" opacity="0.30" marker-end="url(#ab)"/>
<line x1="464" y1="118" x2="111" y2="118" stroke="#4285f4" stroke-width="1.3" opacity="0.30" marker-end="url(#ab)"/>
<line x1="72" y1="174" x2="201" y2="174" stroke="#4285f4" stroke-width="1.3" opacity="0.30" marker-end="url(#ab)"/>
<line x1="128" y1="174" x2="201" y2="174" stroke="#4285f4" stroke-width="1.3" opacity="0.30" marker-end="url(#ab)"/>
<line x1="240" y1="174" x2="167" y2="174" stroke="#4285f4" stroke-width="1.3" opacity="0.30" marker-end="url(#ab)"/>
<line x1="296" y1="174" x2="167" y2="174" stroke="#4285f4" stroke-width="1.3" opacity="0.30" marker-end="url(#ab)"/>
<line x1="352" y1="174" x2="167" y2="174" stroke="#4285f4" stroke-width="1.3" opacity="0.30" marker-end="url(#ab)"/>
<line x1="408" y1="174" x2="167" y2="174" stroke="#4285f4" stroke-width="1.3" opacity="0.30" marker-end="url(#ab)"/>
<line x1="464" y1="174" x2="167" y2="174" stroke="#4285f4" stroke-width="1.3" opacity="0.30" marker-end="url(#ab)"/>
<line x1="72" y1="230" x2="257" y2="230" stroke="#4285f4" stroke-width="1.3" opacity="0.30" marker-end="url(#ab)"/>
<line x1="128" y1="230" x2="257" y2="230" stroke="#4285f4" stroke-width="1.3" opacity="0.30" marker-end="url(#ab)"/>
<line x1="184" y1="230" x2="257" y2="230" stroke="#4285f4" stroke-width="1.3" opacity="0.30" marker-end="url(#ab)"/>
<line x1="296" y1="230" x2="223" y2="230" stroke="#4285f4" stroke-width="1.3" opacity="0.30" marker-end="url(#ab)"/>
<line x1="352" y1="230" x2="223" y2="230" stroke="#4285f4" stroke-width="1.3" opacity="0.30" marker-end="url(#ab)"/>
<line x1="408" y1="230" x2="223" y2="230" stroke="#4285f4" stroke-width="1.3" opacity="0.30" marker-end="url(#ab)"/>
<line x1="464" y1="230" x2="223" y2="230" stroke="#4285f4" stroke-width="1.3" opacity="0.30" marker-end="url(#ab)"/>
<line x1="72" y1="286" x2="313" y2="286" stroke="#4285f4" stroke-width="1.3" opacity="0.30" marker-end="url(#ab)"/>
<line x1="128" y1="286" x2="313" y2="286" stroke="#4285f4" stroke-width="1.3" opacity="0.30" marker-end="url(#ab)"/>
<line x1="184" y1="286" x2="313" y2="286" stroke="#4285f4" stroke-width="1.3" opacity="0.30" marker-end="url(#ab)"/>
<line x1="240" y1="286" x2="313" y2="286" stroke="#4285f4" stroke-width="1.3" opacity="0.30" marker-end="url(#ab)"/>
<line x1="352" y1="286" x2="279" y2="286" stroke="#4285f4" stroke-width="1.3" opacity="0.30" marker-end="url(#ab)"/>
<line x1="408" y1="286" x2="279" y2="286" stroke="#4285f4" stroke-width="1.3" opacity="0.30" marker-end="url(#ab)"/>
<line x1="464" y1="286" x2="279" y2="286" stroke="#4285f4" stroke-width="1.3" opacity="0.30" marker-end="url(#ab)"/>
<line x1="72" y1="342" x2="369" y2="342" stroke="#4285f4" stroke-width="1.3" opacity="0.30" marker-end="url(#ab)"/>
<line x1="128" y1="342" x2="369" y2="342" stroke="#4285f4" stroke-width="1.3" opacity="0.30" marker-end="url(#ab)"/>
<line x1="184" y1="342" x2="369" y2="342" stroke="#4285f4" stroke-width="1.3" opacity="0.30" marker-end="url(#ab)"/>
<line x1="240" y1="342" x2="369" y2="342" stroke="#4285f4" stroke-width="1.3" opacity="0.30" marker-end="url(#ab)"/>
<line x1="296" y1="342" x2="369" y2="342" stroke="#4285f4" stroke-width="1.3" opacity="0.30" marker-end="url(#ab)"/>
<line x1="408" y1="342" x2="335" y2="342" stroke="#4285f4" stroke-width="1.3" opacity="0.30" marker-end="url(#ab)"/>
<line x1="464" y1="342" x2="335" y2="342" stroke="#4285f4" stroke-width="1.3" opacity="0.30" marker-end="url(#ab)"/>
<line x1="72" y1="398" x2="425" y2="398" stroke="#4285f4" stroke-width="1.3" opacity="0.30" marker-end="url(#ab)"/>
<line x1="128" y1="398" x2="425" y2="398" stroke="#4285f4" stroke-width="1.3" opacity="0.30" marker-end="url(#ab)"/>
<line x1="184" y1="398" x2="425" y2="398" stroke="#4285f4" stroke-width="1.3" opacity="0.30" marker-end="url(#ab)"/>
<line x1="240" y1="398" x2="425" y2="398" stroke="#4285f4" stroke-width="1.3" opacity="0.30" marker-end="url(#ab)"/>
<line x1="296" y1="398" x2="425" y2="398" stroke="#4285f4" stroke-width="1.3" opacity="0.30" marker-end="url(#ab)"/>
<line x1="352" y1="398" x2="425" y2="398" stroke="#4285f4" stroke-width="1.3" opacity="0.30" marker-end="url(#ab)"/>
<line x1="464" y1="398" x2="391" y2="398" stroke="#4285f4" stroke-width="1.3" opacity="0.30" marker-end="url(#ab)"/>
<line x1="72" y1="454" x2="481" y2="454" stroke="#4285f4" stroke-width="1.3" opacity="0.30" marker-end="url(#ab)"/>
<line x1="128" y1="454" x2="481" y2="454" stroke="#4285f4" stroke-width="1.3" opacity="0.30" marker-end="url(#ab)"/>
<line x1="184" y1="454" x2="481" y2="454" stroke="#4285f4" stroke-width="1.3" opacity="0.30" marker-end="url(#ab)"/>
<line x1="240" y1="454" x2="481" y2="454" stroke="#4285f4" stroke-width="1.3" opacity="0.30" marker-end="url(#ab)"/>
<line x1="296" y1="454" x2="481" y2="454" stroke="#4285f4" stroke-width="1.3" opacity="0.30" marker-end="url(#ab)"/>
<line x1="352" y1="454" x2="481" y2="454" stroke="#4285f4" stroke-width="1.3" opacity="0.30" marker-end="url(#ab)"/>
<line x1="408" y1="454" x2="481" y2="454" stroke="#4285f4" stroke-width="1.3" opacity="0.30" marker-end="url(#ab)"/>
<line x1="83" y1="72" x2="83" y2="111" stroke="#34a853" stroke-width="1.3" opacity="0.28" marker-end="url(#ag)"/>
<line x1="83" y1="72" x2="83" y2="167" stroke="#34a853" stroke-width="1.3" opacity="0.28" marker-end="url(#ag)"/>
<line x1="83" y1="72" x2="83" y2="223" stroke="#34a853" stroke-width="1.3" opacity="0.28" marker-end="url(#ag)"/>
<line x1="83" y1="72" x2="83" y2="279" stroke="#34a853" stroke-width="1.3" opacity="0.28" marker-end="url(#ag)"/>
<line x1="83" y1="72" x2="83" y2="335" stroke="#34a853" stroke-width="1.3" opacity="0.28" marker-end="url(#ag)"/>
<line x1="83" y1="72" x2="83" y2="391" stroke="#34a853" stroke-width="1.3" opacity="0.28" marker-end="url(#ag)"/>
<line x1="83" y1="72" x2="83" y2="447" stroke="#34a853" stroke-width="1.3" opacity="0.28" marker-end="url(#ag)"/>
<line x1="139" y1="128" x2="139" y2="89" stroke="#34a853" stroke-width="1.3" opacity="0.28" marker-end="url(#ag)"/>
<line x1="139" y1="128" x2="139" y2="167" stroke="#34a853" stroke-width="1.3" opacity="0.28" marker-end="url(#ag)"/>
<line x1="139" y1="128" x2="139" y2="223" stroke="#34a853" stroke-width="1.3" opacity="0.28" marker-end="url(#ag)"/>
<line x1="139" y1="128" x2="139" y2="279" stroke="#34a853" stroke-width="1.3" opacity="0.28" marker-end="url(#ag)"/>
<line x1="139" y1="128" x2="139" y2="335" stroke="#34a853" stroke-width="1.3" opacity="0.28" marker-end="url(#ag)"/>
<line x1="139" y1="128" x2="139" y2="391" stroke="#34a853" stroke-width="1.3" opacity="0.28" marker-end="url(#ag)"/>
<line x1="139" y1="128" x2="139" y2="447" stroke="#34a853" stroke-width="1.3" opacity="0.28" marker-end="url(#ag)"/>
<line x1="195" y1="184" x2="195" y2="89" stroke="#34a853" stroke-width="1.3" opacity="0.28" marker-end="url(#ag)"/>
<line x1="195" y1="184" x2="195" y2="145" stroke="#34a853" stroke-width="1.3" opacity="0.28" marker-end="url(#ag)"/>
<line x1="195" y1="184" x2="195" y2="223" stroke="#34a853" stroke-width="1.3" opacity="0.28" marker-end="url(#ag)"/>
<line x1="195" y1="184" x2="195" y2="279" stroke="#34a853" stroke-width="1.3" opacity="0.28" marker-end="url(#ag)"/>
<line x1="195" y1="184" x2="195" y2="335" stroke="#34a853" stroke-width="1.3" opacity="0.28" marker-end="url(#ag)"/>
<line x1="195" y1="184" x2="195" y2="391" stroke="#34a853" stroke-width="1.3" opacity="0.28" marker-end="url(#ag)"/>
<line x1="195" y1="184" x2="195" y2="447" stroke="#34a853" stroke-width="1.3" opacity="0.28" marker-end="url(#ag)"/>
<line x1="251" y1="240" x2="251" y2="89" stroke="#34a853" stroke-width="1.3" opacity="0.28" marker-end="url(#ag)"/>
<line x1="251" y1="240" x2="251" y2="145" stroke="#34a853" stroke-width="1.3" opacity="0.28" marker-end="url(#ag)"/>
<line x1="251" y1="240" x2="251" y2="201" stroke="#34a853" stroke-width="1.3" opacity="0.28" marker-end="url(#ag)"/>
<line x1="251" y1="240" x2="251" y2="279" stroke="#34a853" stroke-width="1.3" opacity="0.28" marker-end="url(#ag)"/>
<line x1="251" y1="240" x2="251" y2="335" stroke="#34a853" stroke-width="1.3" opacity="0.28" marker-end="url(#ag)"/>
<line x1="251" y1="240" x2="251" y2="391" stroke="#34a853" stroke-width="1.3" opacity="0.28" marker-end="url(#ag)"/>
<line x1="251" y1="240" x2="251" y2="447" stroke="#34a853" stroke-width="1.3" opacity="0.28" marker-end="url(#ag)"/>
<line x1="307" y1="296" x2="307" y2="89" stroke="#34a853" stroke-width="1.3" opacity="0.28" marker-end="url(#ag)"/>
<line x1="307" y1="296" x2="307" y2="145" stroke="#34a853" stroke-width="1.3" opacity="0.28" marker-end="url(#ag)"/>
<line x1="307" y1="296" x2="307" y2="201" stroke="#34a853" stroke-width="1.3" opacity="0.28" marker-end="url(#ag)"/>
<line x1="307" y1="296" x2="307" y2="257" stroke="#34a853" stroke-width="1.3" opacity="0.28" marker-end="url(#ag)"/>
<line x1="307" y1="296" x2="307" y2="335" stroke="#34a853" stroke-width="1.3" opacity="0.28" marker-end="url(#ag)"/>
<line x1="307" y1="296" x2="307" y2="391" stroke="#34a853" stroke-width="1.3" opacity="0.28" marker-end="url(#ag)"/>
<line x1="307" y1="296" x2="307" y2="447" stroke="#34a853" stroke-width="1.3" opacity="0.28" marker-end="url(#ag)"/>
<line x1="363" y1="352" x2="363" y2="89" stroke="#34a853" stroke-width="1.3" opacity="0.28" marker-end="url(#ag)"/>
<line x1="363" y1="352" x2="363" y2="145" stroke="#34a853" stroke-width="1.3" opacity="0.28" marker-end="url(#ag)"/>
<line x1="363" y1="352" x2="363" y2="201" stroke="#34a853" stroke-width="1.3" opacity="0.28" marker-end="url(#ag)"/>
<line x1="363" y1="352" x2="363" y2="257" stroke="#34a853" stroke-width="1.3" opacity="0.28" marker-end="url(#ag)"/>
<line x1="363" y1="352" x2="363" y2="313" stroke="#34a853" stroke-width="1.3" opacity="0.28" marker-end="url(#ag)"/>
<line x1="363" y1="352" x2="363" y2="391" stroke="#34a853" stroke-width="1.3" opacity="0.28" marker-end="url(#ag)"/>
<line x1="363" y1="352" x2="363" y2="447" stroke="#34a853" stroke-width="1.3" opacity="0.28" marker-end="url(#ag)"/>
<line x1="419" y1="408" x2="419" y2="89" stroke="#34a853" stroke-width="1.3" opacity="0.28" marker-end="url(#ag)"/>
<line x1="419" y1="408" x2="419" y2="145" stroke="#34a853" stroke-width="1.3" opacity="0.28" marker-end="url(#ag)"/>
<line x1="419" y1="408" x2="419" y2="201" stroke="#34a853" stroke-width="1.3" opacity="0.28" marker-end="url(#ag)"/>
<line x1="419" y1="408" x2="419" y2="257" stroke="#34a853" stroke-width="1.3" opacity="0.28" marker-end="url(#ag)"/>
<line x1="419" y1="408" x2="419" y2="313" stroke="#34a853" stroke-width="1.3" opacity="0.28" marker-end="url(#ag)"/>
<line x1="419" y1="408" x2="419" y2="369" stroke="#34a853" stroke-width="1.3" opacity="0.28" marker-end="url(#ag)"/>
<line x1="419" y1="408" x2="419" y2="447" stroke="#34a853" stroke-width="1.3" opacity="0.28" marker-end="url(#ag)"/>
<line x1="475" y1="464" x2="475" y2="89" stroke="#34a853" stroke-width="1.3" opacity="0.28" marker-end="url(#ag)"/>
<line x1="475" y1="464" x2="475" y2="145" stroke="#34a853" stroke-width="1.3" opacity="0.28" marker-end="url(#ag)"/>
<line x1="475" y1="464" x2="475" y2="201" stroke="#34a853" stroke-width="1.3" opacity="0.28" marker-end="url(#ag)"/>
<line x1="475" y1="464" x2="475" y2="257" stroke="#34a853" stroke-width="1.3" opacity="0.28" marker-end="url(#ag)"/>
<line x1="475" y1="464" x2="475" y2="313" stroke="#34a853" stroke-width="1.3" opacity="0.28" marker-end="url(#ag)"/>
<line x1="475" y1="464" x2="475" y2="369" stroke="#34a853" stroke-width="1.3" opacity="0.28" marker-end="url(#ag)"/>
<line x1="475" y1="464" x2="475" y2="425" stroke="#34a853" stroke-width="1.3" opacity="0.28" marker-end="url(#ag)"/>
<line x1="184" y1="352" x2="360" y2="352" stroke="#ea4335" stroke-width="3.4" marker-end="url(#ar)"/>
<line x1="352" y1="352" x2="352" y2="184" stroke="#ea4335" stroke-width="3.4" marker-end="url(#ar)"/>
<circle cx="184" cy="352" r="6" fill="#ea4335"/>
<text x="180" y="340" font-size="12" font-weight="700" fill="#c5221f" text-anchor="start">src tile(lx2,ly5)</text>
<circle cx="352" cy="352" r="6" fill="#ea4335"/>
<text x="362" y="344" font-size="12" font-weight="700" fill="#c5221f" text-anchor="start">diag PE(5,5): row aggregated</text>
<circle cx="352" cy="184" r="6" fill="#ea4335"/>
<text x="360" y="200" font-size="12" font-weight="700" fill="#c5221f" text-anchor="start">dst PE(ly2,lx5) = TRANSPOSE</text>
<text x="44" y="26" font-size="13" fill="#666">lx (col) →</text>
<text x="14" y="268" font-size="13" fill="#666" transform="rotate(-90 14 268)">ly (row) →</text>
<text x="268" y="556" text-anchor="middle" font-size="11.5" fill="#555">rows funnel →diagonal (state 0/1, blue) · diagonal emits ↕column (state 2/3, green) · net (lx,ly)→(ly,lx)</text>
</svg>